AnekBangla-ExpandedThin.ufo
<glyph name="exclam" format="2">
	<advance width="516"/>
	<unicode hex="0021"/>
	<outline>
		<contour>
			<point x="273" y="367" type="line"/>
			<point x="278" y="1278" type="line"/>
			<point x="237" y="1278" type="line"/>
			<point x="242" y="367" type="line"/>
		</contour>
		<contour>
			<point x="257" y="-14" type="curve" smooth="yes"/>
			<point x="295" y="-14"/>
			<point x="316" y="4"/>
			<point x="316" y="39" type="curve" smooth="yes"/>
			<point x="316" y="43" type="line" smooth="yes"/>
			<point x="316" y="77"/>
			<point x="295" y="94"/>
			<point x="257" y="94" type="curve" smooth="yes"/>
			<point x="222" y="94"/>
			<point x="200" y="77"/>
			<point x="200" y="43" type="curve" smooth="yes"/>
			<point x="200" y="39" type="line" smooth="yes"/>
			<point x="200" y="4"/>
			<point x="222" y="-14"/>
		</contour>
	</outline>
</glyph>
<glyph name="dollar" format="2">
  <advance width="1452"/>
  <unicode hex="0024"/>
  <anchor x="723" y="0" name="bottom"/>
  <anchor x="723" y="1278" name="top"/>
  <outline>
    <contour>
      <point x="731" y="1278" type="line"/>
      <point x="731" y="1545" type="line"/>
      <point x="695" y="1545" type="line"/>
      <point x="695" y="1278" type="line"/>
    </contour>
    <contour>
      <point x="731" y="-270" type="line"/>
      <point x="731" y="0" type="line"/>
      <point x="695" y="0" type="line"/>
      <point x="695" y="-270" type="line"/>
    </contour>
    <component base="S"/>
  </outline>
</glyph>
<glyph name="ampersand" format="2">
	<advance width="1649"/>
	<unicode hex="0026"/>
	<outline>
		<contour>
			<point x="1560" y="0" type="curve"/>
			<point x="1621" y="0" type="line"/>
			<point x="1621" y="4" type="line"/>
			<point x="1492" y="95"/>
			<point x="1417" y="148"/>
			<point x="1280" y="245" type="curve"/>
			<point x="1269" y="253" type="line"/>
			<point x="502" y="767" type="line" smooth="yes"/>
			<point x="414" y="826"/>
			<point x="334" y="892"/>
			<point x="334" y="1008" type="curve"/>
			<point x="334" y="1009" type="line"/>
			<point x="334" y="1162"/>
			<point x="442" y="1260"/>
			<point x="736" y="1260" type="curve" smooth="yes"/>
			<point x="960" y="1260"/>
			<point x="1117" y="1196"/>
			<point x="1220" y="1127" type="curve"/>
			<point x="1215" y="1169" type="line"/>
			<point x="1133" y="1227"/>
			<point x="970" y="1297"/>
			<point x="738" y="1297" type="curve" smooth="yes"/>
			<point x="416" y="1297"/>
			<point x="293" y="1186"/>
			<point x="293" y="1009" type="curve"/>
			<point x="293" y="1007" type="line"/>
			<point x="293" y="891"/>
			<point x="361" y="815"/>
			<point x="457" y="753" type="curve"/>
			<point x="467" y="746" type="line"/>
			<point x="1245" y="224" type="line"/>
			<point x="1253" y="218" type="line"/>
			<point x="1323" y="168"/>
			<point x="1513" y="34"/>
		</contour>
		<contour>
			<point x="682" y="-21" type="curve" smooth="yes"/>
			<point x="938" y="-21"/>
			<point x="1134" y="67"/>
			<point x="1273" y="221" type="curve"/>
			<point x="1282" y="230" type="line"/>
			<point x="1392" y="361"/>
			<point x="1464" y="538"/>
			<point x="1499" y="749" type="curve"/>
			<point x="1456" y="749" type="line"/>
			<point x="1424" y="545"/>
			<point x="1355" y="376"/>
			<point x="1251" y="250" type="curve"/>
			<point x="1241" y="240" type="line"/>
			<point x="1109" y="96"/>
			<point x="923" y="16"/>
			<point x="685" y="16" type="curve" smooth="yes"/>
			<point x="366" y="16"/>
			<point x="189" y="143"/>
			<point x="189" y="369" type="curve" smooth="yes"/>
			<point x="189" y="379" type="line" smooth="yes"/>
			<point x="189" y="553"/>
			<point x="283" y="663"/>
			<point x="487" y="743" type="curve"/>
			<point x="459" y="770" type="line"/>
			<point x="248" y="686"/>
			<point x="148" y="562"/>
			<point x="148" y="377" type="curve" smooth="yes"/>
			<point x="148" y="368" type="line" smooth="yes"/>
			<point x="148" y="121"/>
			<point x="340" y="-21"/>
		</contour>
	</outline>
</glyph>
<glyph name="parenright" format="2">
	<advance width="705"/>
	<unicode hex="0029"/>
	<outline>
		<contour>
			<point x="450" y="572" type="curve" smooth="yes"/>
			<point x="450" y="551" type="line" smooth="yes"/>
			<point x="450" y="239"/>
			<point x="340" y="-26"/>
			<point x="128" y="-231" type="curve"/>
			<point x="174" y="-231" type="line"/>
			<point x="381" y="-30"/>
			<point x="489" y="237"/>
			<point x="489" y="551" type="curve" smooth="yes"/>
			<point x="489" y="572" type="line" smooth="yes"/>
			<point x="489" y="880"/>
			<point x="381" y="1145"/>
			<point x="174" y="1347" type="curve"/>
			<point x="128" y="1347" type="line"/>
			<point x="340" y="1146"/>
			<point x="450" y="881"/>
		</contour>
	</outline>
</glyph>
<glyph name="hyphen" format="2">
	<advance width="1141"/>
	<unicode hex="002D"/>
	<outline>
		<contour>
			<point x="186" y="513" type="line"/>
			<point x="955" y="513" type="line"/>
			<point x="955" y="547" type="line"/>
			<point x="186" y="547" type="line"/>
		</contour>
	</outline>
</glyph>
<glyph name="two" format="2">
	<advance width="1287"/>
	<unicode hex="0032"/>
	<outline>
		<contour>
			<point x="110" y="0" type="line"/>
			<point x="1165" y="0" type="line"/>
			<point x="1165" y="37" type="line"/>
			<point x="136" y="37" type="line"/>
			<point x="154" y="25" type="line"/>
			<point x="154" y="46" type="line"/>
			<point x="617" y="341" type="line" smooth="yes"/>
			<point x="902" y="525"/>
			<point x="1131" y="664"/>
			<point x="1131" y="914" type="curve" smooth="yes"/>
			<point x="1131" y="921" type="line" smooth="yes"/>
			<point x="1131" y="1165"/>
			<point x="958" y="1298"/>
			<point x="644" y="1298" type="curve" smooth="yes"/>
			<point x="397" y="1298"/>
			<point x="227" y="1207"/>
			<point x="118" y="1133" type="curve"/>
			<point x="112" y="1088" type="line"/>
			<point x="245" y="1179"/>
			<point x="421" y="1261"/>
			<point x="642" y="1261" type="curve" smooth="yes"/>
			<point x="934" y="1261"/>
			<point x="1090" y="1140"/>
			<point x="1090" y="921" type="curve" smooth="yes"/>
			<point x="1090" y="916" type="line" smooth="yes"/>
			<point x="1090" y="677"/>
			<point x="865" y="547"/>
			<point x="598" y="373" type="curve" smooth="yes"/>
			<point x="110" y="58" type="line"/>
		</contour>
	</outline>
</glyph>
<glyph name="seven" format="2">
  <advance width="1248"/>
  <unicode hex="0037"/>
  <outline>
    <contour>
      <point x="375" y="0" type="line"/>
      <point x="421" y="0" type="line"/>
      <point x="1162" y="1241" type="line"/>
      <point x="1162" y="1278" type="line"/>
      <point x="94" y="1278" type="line"/>
      <point x="94" y="1242" type="line"/>
      <point x="1121" y="1242" type="line"/>
    </contour>
  </outline>
</glyph>
<glyph name="nine" format="2">
	<advance width="1430"/>
	<unicode hex="0039"/>
	<outline>
		<contour>
			<point x="680" y="1297" type="curve" smooth="yes"/>
			<point x="321" y="1297"/>
			<point x="130" y="1142"/>
			<point x="130" y="882" type="curve" smooth="yes"/>
			<point x="130" y="868" type="line" smooth="yes"/>
			<point x="130" y="616"/>
			<point x="303" y="475"/>
			<point x="637" y="475" type="curve" smooth="yes"/>
			<point x="978" y="475"/>
			<point x="1176" y="649"/>
			<point x="1243" y="831" type="curve"/>
			<point x="1252" y="831" type="line"/>
			<point x="1233" y="863" type="line"/>
			<point x="1152" y="667"/>
			<point x="959" y="510"/>
			<point x="639" y="510" type="curve" smooth="yes"/>
			<point x="327" y="510"/>
			<point x="171" y="639"/>
			<point x="171" y="868" type="curve" smooth="yes"/>
			<point x="171" y="879" type="line" smooth="yes"/>
			<point x="171" y="1117"/>
			<point x="343" y="1260"/>
			<point x="680" y="1260" type="curve" smooth="yes"/>
			<point x="1044" y="1260"/>
			<point x="1245" y="1055"/>
			<point x="1245" y="640" type="curve" smooth="yes"/>
			<point x="1245" y="619" type="line" smooth="yes"/>
			<point x="1245" y="235"/>
			<point x="1053" y="21"/>
			<point x="647" y="21" type="curve" smooth="yes"/>
			<point x="435" y="21"/>
			<point x="313" y="71"/>
			<point x="196" y="132" type="curve"/>
			<point x="202" y="89" type="line"/>
			<point x="294" y="41"/>
			<point x="418" y="-16"/>
			<point x="647" y="-16" type="curve" smooth="yes"/>
			<point x="1078" y="-16"/>
			<point x="1286" y="213"/>
			<point x="1286" y="619" type="curve"/>
			<point x="1286" y="640" type="line"/>
			<point x="1286" y="1073"/>
			<point x="1073" y="1297"/>
		</contour>
	</outline>
</glyph>
<glyph name="equal" format="2">
	<advance width="1389"/>
	<unicode hex="003D"/>
	<outline>
		<contour>
			<point x="185" y="346" type="line"/>
			<point x="1204" y="346" type="line"/>
			<point x="1204" y="380" type="line"/>
			<point x="185" y="380" type="line"/>
		</contour>
		<contour>
			<point x="185" y="846" type="line"/>
			<point x="1204" y="846" type="line"/>
			<point x="1204" y="880" type="line"/>
			<point x="185" y="880" type="line"/>
		</contour>
	</outline>
</glyph>
<glyph name="greater" format="2">
  <advance width="1402"/>
  <unicode hex="003E"/>
  <outline>
    <contour>
      <point x="1204" y="627" type="line"/>
      <point x="1204" y="601" type="line"/>
      <point x="217" y="281" type="line"/>
      <point x="217" y="241" type="line"/>
      <point x="1236" y="576" type="line"/>
      <point x="1236" y="652" type="line"/>
      <point x="217" y="987" type="line"/>
      <point x="217" y="947" type="line"/>
    </contour>
  </outline>
</glyph>
<glyph name="question" format="2">
  <advance width="1293"/>
  <unicode hex="003F"/>
  <outline>
    <contour>
      <point x="488" y="459" type="line"/>
      <point x="591" y="468" type="line" smooth="yes"/>
      <point x="969" y="501"/>
      <point x="1159" y="648"/>
      <point x="1159" y="897" type="curve" smooth="yes"/>
      <point x="1159" y="914" type="line" smooth="yes"/>
      <point x="1159" y="1155"/>
      <point x="1011" y="1295"/>
      <point x="655" y="1295" type="curve" smooth="yes"/>
      <point x="394" y="1295"/>
      <point x="205" y="1202"/>
      <point x="105" y="1129" type="curve"/>
      <point x="100" y="1087" type="line"/>
      <point x="221" y="1176"/>
      <point x="419" y="1259"/>
      <point x="655" y="1259" type="curve" smooth="yes"/>
      <point x="990" y="1259"/>
      <point x="1122" y="1132"/>
      <point x="1122" y="914" type="curve" smooth="yes"/>
      <point x="1122" y="898" type="line" smooth="yes"/>
      <point x="1122" y="664"/>
      <point x="931" y="531"/>
      <point x="584" y="502" type="curve" smooth="yes"/>
      <point x="488" y="494" type="line"/>
    </contour>
    <contour>
      <point x="529" y="-14" type="curve" smooth="yes"/>
      <point x="567" y="-14"/>
      <point x="588" y="4"/>
      <point x="588" y="39" type="curve" smooth="yes"/>
      <point x="588" y="43" type="line" smooth="yes"/>
      <point x="588" y="77"/>
      <point x="567" y="94"/>
      <point x="529" y="94" type="curve" smooth="yes"/>
      <point x="494" y="94"/>
      <point x="472" y="77"/>
      <point x="472" y="43" type="curve" smooth="yes"/>
      <point x="472" y="39" type="line" smooth="yes"/>
      <point x="472" y="4"/>
      <point x="494" y="-14"/>
    </contour>
  </outline>
</glyph>
<glyph name="A" format="2">
  <advance width="1530"/>
  <unicode hex="0041"/>
  <anchor x="765" y="0" name="bottom"/>
  <anchor x="1495" y="0" name="ogonek"/>
  <anchor x="765" y="1278" name="top"/>
  <outline>
    <contour>
      <point x="82" y="0" type="line"/>
      <point x="124" y="0" type="line"/>
      <point x="748" y="1246" type="line"/>
      <point x="782" y="1246" type="line"/>
      <point x="1406" y="0" type="line"/>
      <point x="1448" y="0" type="line"/>
      <point x="807" y="1278" type="line"/>
      <point x="723" y="1278" type="line"/>
    </contour>
    <contour>
      <point x="334" y="447" type="line"/>
      <point x="1196" y="447" type="line"/>
      <point x="1196" y="481" type="line"/>
      <point x="334" y="481" type="line"/>
    </contour>
  </outline>
</glyph>
<glyph name="C" format="2">
  <advance width="1530"/>
  <unicode hex="0043"/>
  <anchor x="825" y="0" name="bottom"/>
  <anchor x="825" y="1278" name="top"/>
  <outline>
    <contour>
      <point x="833" y="-21" type="curve" smooth="yes"/>
      <point x="1097" y="-21"/>
      <point x="1283" y="75"/>
      <point x="1381" y="155" type="curve"/>
      <point x="1386" y="199" type="line"/>
      <point x="1261" y="100"/>
      <point x="1083" y="16"/>
      <point x="831" y="16" type="curve" smooth="yes"/>
      <point x="410" y="16"/>
      <point x="183" y="237"/>
      <point x="183" y="629" type="curve"/>
      <point x="183" y="650" type="line"/>
      <point x="183" y="1043"/>
      <point x="410" y="1262"/>
      <point x="817" y="1262" type="curve" smooth="yes"/>
      <point x="1068" y="1262"/>
      <point x="1250" y="1175"/>
      <point x="1372" y="1080" type="curve"/>
      <point x="1366" y="1123" type="line"/>
      <point x="1272" y="1200"/>
      <point x="1086" y="1299"/>
      <point x="818" y="1299" type="curve" smooth="yes"/>
      <point x="385" y="1299"/>
      <point x="142" y="1065"/>
      <point x="142" y="650" type="curve"/>
      <point x="142" y="629" type="line"/>
      <point x="142" y="214"/>
      <point x="385" y="-21"/>
    </contour>
  </outline>
</glyph>
<glyph name="D" format="2">
	<advance width="1616"/>
	<unicode hex="0044"/>
	<anchor x="808" y="639" name="center"/>
	<anchor x="794" y="0" name="bottom"/>
	<anchor x="794" y="1278" name="top"/>
	<outline>
		<contour>
			<point x="265" y="0" type="line"/>
			<point x="799" y="0" type="line" smooth="yes"/>
			<point x="1234" y="0"/>
			<point x="1474" y="226"/>
			<point x="1474" y="629" type="curve" smooth="yes"/>
			<point x="1474" y="650" type="line" smooth="yes"/>
			<point x="1474" y="1053"/>
			<point x="1234" y="1278"/>
			<point x="799" y="1278" type="curve" smooth="yes"/>
			<point x="254" y="1278" type="line"/>
			<point x="254" y="1244" type="line"/>
			<point x="799" y="1244" type="line" smooth="yes"/>
			<point x="1211" y="1244"/>
			<point x="1433" y="1034"/>
			<point x="1433" y="650" type="curve" smooth="yes"/>
			<point x="1433" y="629" type="line" smooth="yes"/>
			<point x="1433" y="247"/>
			<point x="1211" y="34"/>
			<point x="799" y="34" type="curve" smooth="yes"/>
			<point x="265" y="34" type="line"/>
		</contour>
		<contour>
			<point x="236" y="0" type="line"/>
			<point x="276" y="0" type="line"/>
			<point x="276" y="1278" type="line"/>
			<point x="236" y="1278" type="line"/>
		</contour>
	</outline>
</glyph>
<glyph name="E" format="2">
  <advance width="1462"/>
  <unicode hex="0045"/>
  <anchor x="780" y="0" name="bottom"/>
  <anchor x="1356" y="0" name="ogonek"/>
  <anchor x="780" y="1278" name="top"/>
  <anchor x="20" y="1278" name="topleft"/>
  <outline>
    <contour>
      <point x="236" y="0" type="line"/>
      <point x="275" y="0" type="line"/>
      <point x="275" y="1278" type="line"/>
      <point x="236" y="1278" type="line"/>
    </contour>
    <contour>
      <point x="258" y="0" type="line"/>
      <point x="1308" y="0" type="line"/>
      <point x="1308" y="34" type="line"/>
      <point x="258" y="34" type="line"/>
    </contour>
    <contour>
      <point x="258" y="636" type="line"/>
      <point x="1273" y="636" type="line"/>
      <point x="1273" y="670" type="line"/>
      <point x="258" y="670" type="line"/>
    </contour>
    <contour>
      <point x="258" y="1244" type="line"/>
      <point x="1298" y="1244" type="line"/>
      <point x="1298" y="1278" type="line"/>
      <point x="258" y="1278" type="line"/>
    </contour>
  </outline>
</glyph>
<glyph name="F" format="2">
	<advance width="1403"/>
	<unicode hex="0046"/>
	<anchor x="702" y="1278" name="top"/>
	<anchor x="702" y="0" name="bottom"/>
	<outline>
		<contour>
			<point x="236" y="0" type="line"/>
			<point x="276" y="0" type="line"/>
			<point x="276" y="1278" type="line"/>
			<point x="236" y="1278" type="line"/>
		</contour>
		<contour>
			<point x="258" y="607" type="line"/>
			<point x="1250" y="607" type="line"/>
			<point x="1250" y="641" type="line"/>
			<point x="258" y="641" type="line"/>
		</contour>
		<contour>
			<point x="258" y="1244" type="line"/>
			<point x="1269" y="1244" type="line"/>
			<point x="1269" y="1278" type="line"/>
			<point x="258" y="1278" type="line"/>
		</contour>
	</outline>
</glyph>
<glyph name="H" format="2">
  <advance width="1658"/>
  <unicode hex="0048"/>
  <anchor x="829" y="0" name="bottom"/>
  <anchor x="829" y="639" name="center"/>
  <anchor x="829" y="1278" name="top"/>
  <anchor x="20" y="1278" name="topleft"/>
  <outline>
    <contour>
      <point x="276" y="0" type="line"/>
      <point x="276" y="1278" type="line"/>
      <point x="236" y="1278" type="line"/>
      <point x="236" y="0" type="line"/>
    </contour>
    <contour>
      <point x="1422" y="0" type="line"/>
      <point x="1422" y="1278" type="line"/>
      <point x="1382" y="1278" type="line"/>
      <point x="1382" y="0" type="line"/>
    </contour>
    <contour>
      <point x="259" y="680" type="line"/>
      <point x="259" y="645" type="line"/>
      <point x="1404" y="645" type="line"/>
      <point x="1404" y="680" type="line"/>
    </contour>
  </outline>
</glyph>
<glyph name="I" format="2">
	<advance width="520"/>
	<unicode hex="0049"/>
	<anchor x="328" y="0" name="ogonek"/>
	<anchor x="260" y="1278" name="top"/>
	<anchor x="20" y="1278" name="topleft"/>
	<anchor x="260" y="0" name="bottom"/>
	<outline>
		<contour>
			<point x="280" y="0" type="line"/>
			<point x="280" y="1278" type="line"/>
			<point x="240" y="1278" type="line"/>
			<point x="240" y="0" type="line"/>
		</contour>
	</outline>
</glyph>
<glyph name="J" format="2">
	<advance width="1193"/>
	<unicode hex="004A"/>
	<anchor x="948" y="1278" name="top"/>
	<anchor x="598" y="0" name="bottom"/>
	<outline>
		<contour>
			<point x="488" y="-9" type="curve" smooth="yes"/>
			<point x="842" y="-9"/>
			<point x="969" y="153"/>
			<point x="969" y="466" type="curve" smooth="yes"/>
			<point x="969" y="1278" type="line"/>
			<point x="929" y="1278" type="line"/>
			<point x="929" y="466" type="line" smooth="yes"/>
			<point x="929" y="169"/>
			<point x="813" y="28"/>
			<point x="490" y="28" type="curve" smooth="yes"/>
			<point x="357" y="28"/>
			<point x="225" y="54"/>
			<point x="106" y="112" type="curve"/>
			<point x="111" y="69" type="line"/>
			<point x="215" y="20"/>
			<point x="349" y="-9"/>
		</contour>
	</outline>
</glyph>
<glyph name="K" format="2">
	<advance width="1506"/>
	<unicode hex="004B"/>
	<anchor x="753" y="1278" name="top"/>
	<anchor x="753" y="0" name="bottom"/>
	<outline>
		<contour>
			<point x="1346" y="0" type="line"/>
			<point x="1410" y="0" type="line"/>
			<point x="575" y="664" type="line"/>
			<point x="575" y="640" type="line"/>
			<point x="1394" y="1278" type="line"/>
			<point x="1335" y="1278" type="line"/>
			<point x="552" y="668" type="line"/>
			<point x="266" y="668" type="line"/>
			<point x="266" y="634" type="line"/>
			<point x="550" y="634" type="line"/>
		</contour>
		<contour>
			<point x="236" y="0" type="line"/>
			<point x="276" y="0" type="line"/>
			<point x="276" y="1278" type="line"/>
			<point x="236" y="1278" type="line"/>
		</contour>
	</outline>
</glyph>
<glyph name="M" format="2">
	<advance width="1939"/>
	<unicode hex="004D"/>
	<anchor x="970" y="1278" name="top"/>
	<anchor x="970" y="0" name="bottom"/>
	<outline>
		<contour>
			<point x="186" y="0" type="line"/>
			<point x="226" y="0" type="line"/>
			<point x="278" y="641" type="line"/>
			<point x="327" y="1244" type="line"/>
			<point x="357" y="1244" type="line"/>
			<point x="934" y="160" type="line"/>
			<point x="1005" y="160" type="line"/>
			<point x="1582" y="1244" type="line"/>
			<point x="1612" y="1244" type="line"/>
			<point x="1661" y="640" type="line"/>
			<point x="1713" y="0" type="line"/>
			<point x="1753" y="0" type="line"/>
			<point x="1645" y="1278" type="line"/>
			<point x="1558" y="1278" type="line"/>
			<point x="981" y="194" type="line"/>
			<point x="958" y="194" type="line"/>
			<point x="381" y="1278" type="line"/>
			<point x="294" y="1278" type="line"/>
		</contour>
	</outline>
</glyph>
<glyph name="R" format="2">
  <advance width="1569"/>
  <unicode hex="0052"/>
  <anchor x="795" y="0" name="bottom"/>
  <anchor x="785" y="1278" name="top"/>
  <outline>
    <contour>
      <point x="1377" y="0" type="line"/>
      <point x="1418" y="0" type="line"/>
      <point x="1363" y="260" type="line" smooth="yes"/>
      <point x="1322" y="454"/>
      <point x="1250" y="601"/>
      <point x="991" y="601" type="curve"/>
      <point x="1026" y="597" type="line"/>
      <point x="1026" y="589" type="line"/>
      <point x="1291" y="589"/>
      <point x="1409" y="731"/>
      <point x="1409" y="921" type="curve" smooth="yes"/>
      <point x="1409" y="939" type="line" smooth="yes"/>
      <point x="1409" y="1141"/>
      <point x="1284" y="1278"/>
      <point x="1012" y="1278" type="curve" smooth="yes"/>
      <point x="255" y="1278" type="line"/>
      <point x="255" y="1244" type="line"/>
      <point x="1010" y="1244" type="line" smooth="yes"/>
      <point x="1260" y="1244"/>
      <point x="1369" y="1124"/>
      <point x="1369" y="937" type="curve" smooth="yes"/>
      <point x="1369" y="923" type="line" smooth="yes"/>
      <point x="1369" y="740"/>
      <point x="1258" y="610"/>
      <point x="1019" y="610" type="curve" smooth="yes"/>
      <point x="255" y="610" type="line"/>
      <point x="255" y="576" type="line"/>
      <point x="960" y="576" type="line" smooth="yes"/>
      <point x="1224" y="576"/>
      <point x="1288" y="436"/>
      <point x="1326" y="251" type="curve" smooth="yes"/>
    </contour>
    <contour>
      <point x="236" y="0" type="line"/>
      <point x="276" y="0" type="line"/>
      <point x="276" y="587" type="line"/>
      <point x="276" y="605" type="line"/>
      <point x="276" y="1278" type="line"/>
      <point x="236" y="1278" type="line"/>
    </contour>
  </outline>
</glyph>
<glyph name="T" format="2">
	<advance width="1460"/>
	<unicode hex="0054"/>
	<anchor x="730" y="639" name="center"/>
	<anchor x="730" y="0" name="bottom"/>
	<anchor x="730" y="1278" name="top"/>
	<outline>
		<contour>
			<point x="710" y="0" type="line"/>
			<point x="750" y="0" type="line"/>
			<point x="750" y="1278" type="line"/>
			<point x="710" y="1278" type="line"/>
		</contour>
		<contour>
			<point x="104" y="1244" type="line"/>
			<point x="1356" y="1244" type="line"/>
			<point x="1356" y="1278" type="line"/>
			<point x="104" y="1278" type="line"/>
		</contour>
	</outline>
</glyph>
<glyph name="U" format="2">
	<advance width="1630"/>
	<unicode hex="0055"/>
	<anchor x="1055" y="0" name="ogonek"/>
	<anchor x="815" y="1278" name="top"/>
	<anchor x="1580" y="1278" name="topright"/>
	<anchor x="815" y="0" name="bottom"/>
	<outline>
		<contour>
			<point x="815" y="-21" type="curve" smooth="yes"/>
			<point x="1215" y="-21"/>
			<point x="1408" y="193"/>
			<point x="1408" y="579" type="curve"/>
			<point x="1408" y="1278" type="line"/>
			<point x="1368" y="1278" type="line"/>
			<point x="1368" y="581" type="line" smooth="yes"/>
			<point x="1368" y="218"/>
			<point x="1193" y="16"/>
			<point x="815" y="16" type="curve" smooth="yes"/>
			<point x="437" y="16"/>
			<point x="262" y="218"/>
			<point x="262" y="581" type="curve"/>
			<point x="262" y="1278" type="line"/>
			<point x="222" y="1278" type="line"/>
			<point x="222" y="579" type="line" smooth="yes"/>
			<point x="222" y="193"/>
			<point x="414" y="-21"/>
		</contour>
	</outline>
</glyph>
<glyph name="W" format="2">
  <advance width="2195"/>
  <unicode hex="0057"/>
  <anchor x="1098" y="0" name="bottom"/>
  <anchor x="1098" y="1278" name="top"/>
  <outline>
    <contour>
      <point x="569" y="0" type="line"/>
      <point x="651" y="0" type="line"/>
      <point x="954" y="838" type="line"/>
      <point x="1087" y="1206" type="line"/>
      <point x="1108" y="1206" type="line"/>
      <point x="1241" y="838" type="line"/>
      <point x="1544" y="0" type="line"/>
      <point x="1626" y="0" type="line"/>
      <point x="2091" y="1278" type="line"/>
      <point x="2049" y="1278" type="line"/>
      <point x="1616" y="87" type="line"/>
      <point x="1597" y="34" type="line"/>
      <point x="1573" y="34" type="line"/>
      <point x="1554" y="86" type="line"/>
      <point x="1134" y="1239" type="line"/>
      <point x="1059" y="1239" type="line"/>
      <point x="640" y="85" type="line"/>
      <point x="622" y="34" type="line"/>
      <point x="599" y="34" type="line"/>
      <point x="580" y="85" type="line"/>
      <point x="147" y="1278" type="line"/>
      <point x="104" y="1278" type="line"/>
    </contour>
  </outline>
</glyph>
<glyph name="Z" format="2">
	<advance width="1441"/>
	<unicode hex="005A"/>
	<anchor x="721" y="639" name="center"/>
	<anchor x="721" y="0" name="bottom"/>
	<anchor x="721" y="1278" name="top"/>
	<outline>
		<contour>
			<point x="1301" y="34" type="line"/>
			<point x="191" y="34" type="line"/>
			<point x="1294" y="1248" type="line"/>
			<point x="1294" y="1278" type="line"/>
			<point x="142" y="1278" type="line"/>
			<point x="142" y="1244" type="line"/>
			<point x="1242" y="1244" type="line"/>
			<point x="140" y="30" type="line"/>
			<point x="140" y="0" type="line"/>
			<point x="1301" y="0" type="line"/>
		</contour>
	</outline>
</glyph>
<glyph name="bracketleft" format="2">
	<advance width="788"/>
	<unicode hex="005B"/>
	<outline>
		<contour>
			<point x="236" y="-231" type="line"/>
			<point x="696" y="-231" type="line"/>
			<point x="696" y="-197" type="line"/>
			<point x="274" y="-197" type="line"/>
			<point x="274" y="1313" type="line"/>
			<point x="696" y="1313" type="line"/>
			<point x="696" y="1347" type="line"/>
			<point x="236" y="1347" type="line"/>
		</contour>
	</outline>
</glyph>
<glyph name="backslash" format="2">
	<advance width="1054"/>
	<unicode hex="005C"/>
	<outline>
		<contour>
			<point x="972" y="-221" type="line"/>
			<point x="126" y="1317" type="line"/>
			<point x="82" y="1317" type="line"/>
			<point x="928" y="-221" type="line"/>
		</contour>
	</outline>
</glyph>
<glyph name="b" format="2">
	<advance width="1441"/>
	<unicode hex="0062"/>
	<anchor x="721" y="1324" name="top"/>
	<anchor x="721" y="0" name="bottom"/>
	<outline>
		<contour>
			<point x="761" y="-25" type="curve" smooth="yes"/>
			<point x="1111" y="-25"/>
			<point x="1307" y="142"/>
			<point x="1307" y="463" type="curve" smooth="yes"/>
			<point x="1307" y="491" type="line" smooth="yes"/>
			<point x="1307" y="808"/>
			<point x="1111" y="977"/>
			<point x="767" y="977" type="curve" smooth="yes"/>
			<point x="444" y="977"/>
			<point x="240" y="787"/>
			<point x="222" y="582" type="curve"/>
			<point x="211" y="582" type="line"/>
			<point x="229" y="554" type="line"/>
			<point x="265" y="773"/>
			<point x="473" y="943"/>
			<point x="761" y="943" type="curve" smooth="yes"/>
			<point x="1083" y="943"/>
			<point x="1269" y="789"/>
			<point x="1269" y="490" type="curve" smooth="yes"/>
			<point x="1269" y="465" type="line" smooth="yes"/>
			<point x="1269" y="167"/>
			<point x="1083" y="9"/>
			<point x="765" y="9" type="curve" smooth="yes"/>
			<point x="493" y="9"/>
			<point x="254" y="142"/>
			<point x="236" y="422" type="curve"/>
			<point x="211" y="395" type="line"/>
			<point x="227" y="395" type="line"/>
			<point x="227" y="130"/>
			<point x="466" y="-25"/>
		</contour>
		<contour>
			<point x="202" y="0" type="line"/>
			<point x="240" y="0" type="line"/>
			<point x="234" y="328" type="line"/>
			<point x="236" y="342" type="line"/>
			<point x="236" y="611" type="line"/>
			<point x="234" y="630" type="line"/>
			<point x="240" y="952" type="line"/>
			<point x="240" y="1324" type="line"/>
			<point x="202" y="1324" type="line"/>
		</contour>
	</outline>
</glyph>
<glyph name="e" format="2">
	<advance width="1323"/>
	<unicode hex="0065"/>
	<anchor x="956" y="0" name="ogonek"/>
	<anchor x="666" y="0" name="bottom"/>
	<anchor x="666" y="952" name="top"/>
	<outline>
		<contour>
			<point x="690" y="-25" type="curve" smooth="yes"/>
			<point x="888" y="-25"/>
			<point x="1042" y="25"/>
			<point x="1167" y="119" type="curve"/>
			<point x="1172" y="162" type="line"/>
			<point x="1031" y="55"/>
			<point x="884" y="9"/>
			<point x="691" y="9" type="curve" smooth="yes"/>
			<point x="354" y="9"/>
			<point x="172" y="178"/>
			<point x="172" y="463" type="curve" smooth="yes"/>
			<point x="172" y="475" type="line"/>
			<point x="172" y="480" type="line"/>
			<point x="172" y="490" type="line" smooth="yes"/>
			<point x="172" y="773"/>
			<point x="346" y="943"/>
			<point x="668" y="943" type="curve" smooth="yes"/>
			<point x="990" y="943"/>
			<point x="1162" y="762"/>
			<point x="1162" y="507" type="curve" smooth="yes"/>
			<point x="1162" y="493"/>
			<point x="1162" y="479"/>
			<point x="1161" y="468" type="curve"/>
			<point x="1197" y="468" type="line"/>
			<point x="1199" y="483"/>
			<point x="1199" y="495"/>
			<point x="1199" y="505" type="curve" smooth="yes"/>
			<point x="1199" y="509" type="line" smooth="yes"/>
			<point x="1199" y="784"/>
			<point x="1014" y="977"/>
			<point x="668" y="977" type="curve" smooth="yes"/>
			<point x="321" y="977"/>
			<point x="134" y="796"/>
			<point x="134" y="490" type="curve"/>
			<point x="134" y="463" type="line"/>
			<point x="134" y="155"/>
			<point x="325" y="-25"/>
		</contour>
		<contour>
			<point x="152" y="468" type="line"/>
			<point x="1184" y="468" type="line"/>
			<point x="1184" y="500" type="line"/>
			<point x="152" y="500" type="line"/>
		</contour>
	</outline>
</glyph>
<glyph name="i" format="2">
  <advance width="450"/>
  <unicode hex="0069"/>
  <anchor x="225" y="0" name="bottom"/>
  <anchor x="292" y="0" name="ogonek"/>
  <outline>
    <contour>
      <point x="206" y="0" type="line"/>
      <point x="244" y="0" type="line"/>
      <point x="244" y="952" type="line"/>
      <point x="206" y="952" type="line"/>
    </contour>
    <contour>
      <point x="224" y="1198" type="curve" smooth="yes"/>
      <point x="262" y="1198"/>
      <point x="283" y="1216"/>
      <point x="283" y="1250" type="curve" smooth="yes"/>
      <point x="283" y="1253" type="line" smooth="yes"/>
      <point x="283" y="1285"/>
      <point x="262" y="1303"/>
      <point x="224" y="1303" type="curve" smooth="yes"/>
      <point x="189" y="1303"/>
      <point x="167" y="1285"/>
      <point x="167" y="1253" type="curve" smooth="yes"/>
      <point x="167" y="1250" type="line" smooth="yes"/>
      <point x="167" y="1216"/>
      <point x="189" y="1198"/>
    </contour>
  </outline>
</glyph>
<glyph name="t" format="2">
	<advance width="1119"/>
	<unicode hex="0074"/>
	<anchor x="560" y="476" name="center"/>
	<anchor x="279" y="1203" name="top"/>
	<anchor x="890" y="1402" name="topright"/>
	<anchor x="621" y="0" name="bottom"/>
	<outline>
		<contour>
			<point x="653" y="-25" type="curve" smooth="yes"/>
			<point x="782" y="-25"/>
			<point x="912" y="9"/>
			<point x="1010" y="62" type="curve"/>
			<point x="1015" y="103" type="line"/>
			<point x="898" y="37"/>
			<point x="775" y="9"/>
			<point x="653" y="9" type="curve" smooth="yes"/>
			<point x="391" y="9"/>
			<point x="296" y="112"/>
			<point x="296" y="329" type="curve" smooth="yes"/>
			<point x="296" y="899" type="line"/>
			<point x="259" y="899" type="line"/>
			<point x="259" y="329" type="line" smooth="yes"/>
			<point x="259" y="85"/>
			<point x="374" y="-25"/>
		</contour>
		<contour>
			<point x="12" y="888" type="line"/>
			<point x="1010" y="888" type="line"/>
			<point x="1015" y="920" type="line"/>
			<point x="12" y="920" type="line"/>
		</contour>
		<contour>
			<point x="259" y="911" type="line"/>
			<point x="295" y="911" type="line"/>
			<point x="298" y="1233" type="line"/>
			<point x="259" y="1218" type="line"/>
		</contour>
	</outline>
</glyph>
<glyph name="v" format="2">
	<advance width="1287"/>
	<unicode hex="0076"/>
	<anchor x="644" y="952" name="top"/>
	<anchor x="644" y="0" name="bottom"/>
	<outline>
		<contour>
			<point x="660" y="32" type="line"/>
			<point x="628" y="32" type="line"/>
			<point x="115" y="952" type="line"/>
			<point x="72" y="952" type="line"/>
			<point x="605" y="0" type="line"/>
			<point x="683" y="0" type="line"/>
			<point x="1215" y="952" type="line"/>
			<point x="1172" y="952" type="line"/>
		</contour>
	</outline>
</glyph>
<glyph name="x" format="2">
	<advance width="1260"/>
	<unicode hex="0078"/>
	<anchor x="630" y="952" name="top"/>
	<anchor x="630" y="0" name="bottom"/>
	<outline>
		<contour>
			<point x="96" y="0" type="line"/>
			<point x="146" y="0" type="line"/>
			<point x="623" y="463" type="line"/>
			<point x="637" y="463" type="line"/>
			<point x="1114" y="0" type="line"/>
			<point x="1164" y="0" type="line"/>
			<point x="655" y="493" type="line"/>
			<point x="655" y="488" type="line"/>
			<point x="1157" y="952" type="line"/>
			<point x="1107" y="952" type="line"/>
			<point x="637" y="514" type="line"/>
			<point x="623" y="514" type="line"/>
			<point x="153" y="952" type="line"/>
			<point x="103" y="952" type="line"/>
			<point x="605" y="486" type="line"/>
			<point x="605" y="491" type="line"/>
		</contour>
	</outline>
</glyph>
<glyph name="braceleft" format="2">
	<advance width="856"/>
	<unicode hex="007B"/>
	<outline>
		<contour>
			<point x="764" y="1279" type="curve"/>
			<point x="764" y="1313" type="line"/>
			<point x="718" y="1332"/>
			<point x="647" y="1347"/>
			<point x="570" y="1347" type="curve" smooth="yes"/>
			<point x="383" y="1347"/>
			<point x="305" y="1267"/>
			<point x="305" y="1087" type="curve" smooth="yes"/>
			<point x="305" y="1008"/>
			<point x="323" y="883"/>
			<point x="323" y="791" type="curve" smooth="yes"/>
			<point x="323" y="668"/>
			<point x="282" y="593"/>
			<point x="92" y="583" type="curve"/>
			<point x="92" y="544" type="line"/>
			<point x="282" y="530"/>
			<point x="323" y="452"/>
			<point x="323" y="325" type="curve" smooth="yes"/>
			<point x="323" y="234"/>
			<point x="305" y="109"/>
			<point x="305" y="29" type="curve" smooth="yes"/>
			<point x="305" y="-151"/>
			<point x="383" y="-231"/>
			<point x="570" y="-231" type="curve" smooth="yes"/>
			<point x="647" y="-231"/>
			<point x="718" y="-215"/>
			<point x="764" y="-196" type="curve"/>
			<point x="764" y="-162" type="line"/>
			<point x="716" y="-181"/>
			<point x="650" y="-197"/>
			<point x="569" y="-197" type="curve" smooth="yes"/>
			<point x="407" y="-197"/>
			<point x="343" y="-135"/>
			<point x="343" y="33" type="curve" smooth="yes"/>
			<point x="343" y="105"/>
			<point x="360" y="227"/>
			<point x="360" y="327" type="curve" smooth="yes"/>
			<point x="360" y="461"/>
			<point x="307" y="559"/>
			<point x="130" y="563" type="curve"/>
			<point x="134" y="553" type="line"/>
			<point x="134" y="564" type="line"/>
			<point x="322" y="574"/>
			<point x="360" y="676"/>
			<point x="360" y="790" type="curve" smooth="yes"/>
			<point x="360" y="889"/>
			<point x="343" y="1011"/>
			<point x="343" y="1084" type="curve" smooth="yes"/>
			<point x="343" y="1251"/>
			<point x="407" y="1313"/>
			<point x="569" y="1313" type="curve" smooth="yes"/>
			<point x="650" y="1313"/>
			<point x="716" y="1298"/>
		</contour>
	</outline>
</glyph>
<glyph name="cent" format="2">
	<advance width="1245"/>
	<unicode hex="00A2"/>
	<outline>
		<contour>
			<point x="701" y="958" type="line"/>
			<point x="701" y="1225" type="line"/>
			<point x="665" y="1225" type="line"/>
			<point x="665" y="958" type="line"/>
		</contour>
		<contour>
			<point x="701" y="-270" type="line"/>
			<point x="701" y="-10" type="line"/>
			<point x="665" y="-10" type="line"/>
			<point x="665" y="-270" type="line"/>
		</contour>
		<component base="c"/>
	</outline>
</glyph>
<glyph name="sterling" format="2">
  <advance width="1527"/>
  <unicode hex="00A3"/>
  <outline>
    <contour>
      <point x="120" y="626" type="line"/>
      <point x="1268" y="626" type="line"/>
      <point x="1275" y="660" type="line"/>
      <point x="127" y="660" type="line"/>
    </contour>
    <contour>
      <point x="283" y="34" type="line"/>
      <point x="283" y="38" type="line"/>
      <point x="378" y="76"/>
      <point x="467" y="175"/>
      <point x="467" y="347" type="curve" smooth="yes"/>
      <point x="467" y="590"/>
      <point x="356" y="723"/>
      <point x="356" y="943" type="curve" smooth="yes"/>
      <point x="356" y="1159"/>
      <point x="532" y="1261"/>
      <point x="845" y="1261" type="curve" smooth="yes"/>
      <point x="1009" y="1261"/>
      <point x="1172" y="1233"/>
      <point x="1319" y="1178" type="curve"/>
      <point x="1314" y="1220" type="line"/>
      <point x="1185" y="1266"/>
      <point x="1019" y="1298"/>
      <point x="847" y="1298" type="curve" smooth="yes"/>
      <point x="489" y="1298"/>
      <point x="316" y="1179"/>
      <point x="316" y="945" type="curve" smooth="yes"/>
      <point x="316" y="702"/>
      <point x="428" y="579"/>
      <point x="427" y="356" type="curve" smooth="yes"/>
      <point x="426" y="180"/>
      <point x="333" y="50"/>
      <point x="167" y="32" type="curve" smooth="yes"/>
      <point x="130" y="28" type="line"/>
      <point x="130" y="0" type="line"/>
      <point x="1437" y="0" type="line"/>
      <point x="1437" y="34" type="line"/>
    </contour>
  </outline>
</glyph>
<glyph name="currency" format="2">
  <advance width="1250"/>
  <unicode hex="00A4"/>
  <outline>
    <contour>
      <point x="625" y="251" type="curve" smooth="yes"/>
      <point x="895" y="251"/>
      <point x="1053" y="387"/>
      <point x="1053" y="631" type="curve"/>
      <point x="1053" y="637" type="line"/>
      <point x="1053" y="880"/>
      <point x="896" y="1014"/>
      <point x="626" y="1014" type="curve" smooth="yes"/>
      <point x="356" y="1014"/>
      <point x="198" y="880"/>
      <point x="198" y="637" type="curve"/>
      <point x="198" y="631" type="line"/>
      <point x="198" y="387"/>
      <point x="355" y="251"/>
    </contour>
    <contour>
      <point x="626" y="285" type="curve" smooth="yes"/>
      <point x="379" y="285"/>
      <point x="236" y="406"/>
      <point x="236" y="631" type="curve" smooth="yes"/>
      <point x="236" y="637" type="line" smooth="yes"/>
      <point x="236" y="860"/>
      <point x="379" y="980"/>
      <point x="626" y="980" type="curve" smooth="yes"/>
      <point x="871" y="980"/>
      <point x="1015" y="860"/>
      <point x="1015" y="637" type="curve" smooth="yes"/>
      <point x="1015" y="631" type="line" smooth="yes"/>
      <point x="1015" y="406"/>
      <point x="871" y="285"/>
    </contour>
    <contour>
      <point x="928" y="365" type="line"/>
      <point x="900" y="344" type="line"/>
      <point x="1104" y="148" type="line"/>
      <point x="1128" y="173" type="line"/>
    </contour>
    <contour>
      <point x="347" y="341" type="line"/>
      <point x="322" y="365" type="line"/>
      <point x="122" y="173" type="line"/>
      <point x="146" y="148" type="line"/>
    </contour>
    <contour>
      <point x="318" y="903" type="line"/>
      <point x="346" y="924" type="line"/>
      <point x="146" y="1116" type="line"/>
      <point x="122" y="1091" type="line"/>
    </contour>
    <contour>
      <point x="901" y="921" type="line"/>
      <point x="931" y="902" type="line"/>
      <point x="1128" y="1091" type="line"/>
      <point x="1104" y="1116" type="line"/>
    </contour>
  </outline>
</glyph>
<glyph name="yen" format="2">
  <advance width="1488"/>
  <unicode hex="00A5"/>
  <anchor x="740" y="0" name="bottom"/>
  <anchor x="740" y="1278" name="top"/>
  <anchor x="20" y="1278" name="topleft"/>
  <outline>
    <contour>
      <point x="903" y="633" type="line"/>
      <point x="1326" y="633" type="line"/>
      <point x="1333" y="665" type="line"/>
      <point x="925" y="665" type="line"/>
    </contour>
    <contour>
      <point x="163" y="326" type="line"/>
      <point x="156" y="294" type="line"/>
      <point x="1326" y="294" type="line"/>
      <point x="1333" y="326" type="line"/>
    </contour>
    <contour>
      <point x="558" y="665" type="line"/>
      <point x="163" y="665" type="line"/>
      <point x="156" y="633" type="line"/>
      <point x="580" y="633" type="line"/>
    </contour>
    <component base="Y"/>
  </outline>
</glyph>
<glyph name="plusminus" format="2">
	<advance width="1389"/>
	<unicode hex="00B1"/>
	<outline>
		<contour>
			<point x="185" y="132" type="line"/>
			<point x="1204" y="132" type="line"/>
			<point x="1204" y="164" type="line"/>
			<point x="185" y="164" type="line"/>
		</contour>
		<contour>
			<point x="713" y="354" type="line"/>
			<point x="713" y="1174" type="line"/>
			<point x="677" y="1174" type="line"/>
			<point x="677" y="354" type="line"/>
		</contour>
		<contour>
			<point x="185" y="748" type="line"/>
			<point x="1204" y="748" type="line"/>
			<point x="1204" y="780" type="line"/>
			<point x="185" y="780" type="line"/>
		</contour>
	</outline>
</glyph>
<glyph name="twosuperior" format="2">
	<advance width="841"/>
	<unicode hex="00B2"/>
	<outline>
		<contour>
			<point x="68" y="750" type="line"/>
			<point x="765" y="750" type="line"/>
			<point x="765" y="783" type="line"/>
			<point x="99" y="781" type="line"/>
			<point x="113" y="774" type="line"/>
			<point x="113" y="783" type="line"/>
			<point x="396" y="912" type="line" smooth="yes"/>
			<point x="611" y="1010"/>
			<point x="744" y="1080"/>
			<point x="744" y="1226" type="curve" smooth="yes"/>
			<point x="744" y="1231" type="line" smooth="yes"/>
			<point x="744" y="1363"/>
			<point x="626" y="1434"/>
			<point x="423" y="1434" type="curve" smooth="yes"/>
			<point x="297" y="1434"/>
			<point x="156" y="1396"/>
			<point x="77" y="1342" type="curve"/>
			<point x="73" y="1306" type="line"/>
			<point x="179" y="1366"/>
			<point x="304" y="1401"/>
			<point x="422" y="1401" type="curve" smooth="yes"/>
			<point x="601" y="1401"/>
			<point x="707" y="1346"/>
			<point x="707" y="1230" type="curve" smooth="yes"/>
			<point x="707" y="1227" type="line" smooth="yes"/>
			<point x="707" y="1096"/>
			<point x="573" y="1031"/>
			<point x="383" y="942" type="curve" smooth="yes"/>
			<point x="68" y="795" type="line"/>
		</contour>
	</outline>
</glyph>
<glyph name="paragraph" format="2">
	<advance width="836"/>
	<unicode hex="00B6"/>
	<outline>
		<contour>
			<point x="452" y="675" type="curve"/>
			<point x="584" y="675" type="line"/>
			<point x="582" y="1278" type="line"/>
			<point x="452" y="1278" type="line" smooth="yes"/>
			<point x="228" y="1278"/>
			<point x="124" y="1160"/>
			<point x="124" y="986" type="curve" smooth="yes"/>
			<point x="124" y="968" type="line" smooth="yes"/>
			<point x="124" y="793"/>
			<point x="228" y="675"/>
		</contour>
		<contour>
			<point x="600" y="0" type="line"/>
			<point x="600" y="1278" type="line"/>
			<point x="560" y="1278" type="line"/>
			<point x="560" y="0" type="line"/>
		</contour>
	</outline>
</glyph>
<glyph name="AE" format="2">
	<advance width="2442"/>
	<unicode hex="00C6"/>
	<anchor x="1221" y="1278" name="top"/>
	<anchor x="1221" y="0" name="bottom"/>
	<outline>
		<contour>
			<point x="92" y="0" type="line"/>
			<point x="138" y="0" type="line"/>
			<point x="1141" y="1246" type="line"/>
			<point x="1236" y="1246" type="line"/>
			<point x="1236" y="1278" type="line"/>
			<point x="1117" y="1278" type="line"/>
		</contour>
		<contour>
			<point x="494" y="454" type="line"/>
			<point x="1226" y="454" type="line"/>
			<point x="1226" y="488" type="line"/>
			<point x="494" y="488" type="line"/>
		</contour>
		<contour>
			<point x="1238" y="0" type="line"/>
			<point x="2288" y="0" type="line"/>
			<point x="2288" y="34" type="line"/>
			<point x="1238" y="34" type="line"/>
		</contour>
		<contour>
			<point x="1216" y="0" type="line"/>
			<point x="1255" y="0" type="line"/>
			<point x="1255" y="1278" type="line"/>
			<point x="1216" y="1278" type="line"/>
		</contour>
		<contour>
			<point x="1238" y="636" type="line"/>
			<point x="2253" y="636" type="line"/>
			<point x="2253" y="670" type="line"/>
			<point x="1238" y="670" type="line"/>
		</contour>
		<contour>
			<point x="1238" y="1244" type="line"/>
			<point x="2278" y="1244" type="line"/>
			<point x="2278" y="1278" type="line"/>
			<point x="1238" y="1278" type="line"/>
		</contour>
	</outline>
</glyph>
<glyph name="Eth" format="2">
  <advance width="1616"/>
  <unicode hex="00D0"/>
  <anchor x="794" y="0" name="bottom"/>
  <anchor x="808" y="639" name="center"/>
  <anchor x="794" y="1278" name="top"/>
  <outline>
    <contour>
      <point x="-6" y="642" type="line"/>
      <point x="852" y="642" type="line"/>
      <point x="852" y="676" type="line"/>
      <point x="-6" y="676" type="line"/>
    </contour>
    <component base="D"/>
  </outline>
</glyph>
<glyph name="germandbls" format="2">
  <advance width="1443"/>
  <unicode hex="00DF"/>
  <anchor x="687" y="0" name="bottom"/>
  <anchor x="687" y="952" name="top"/>
  <outline>
    <contour>
      <point x="202" y="935" type="curve" smooth="yes"/>
      <point x="202" y="0" type="line"/>
      <point x="239" y="0" type="line"/>
      <point x="239" y="932" type="line" smooth="yes"/>
      <point x="239" y="1173"/>
      <point x="318" y="1316"/>
      <point x="627" y="1316" type="curve" smooth="yes"/>
      <point x="866" y="1316"/>
      <point x="974" y="1224"/>
      <point x="974" y="1104" type="curve"/>
      <point x="974" y="906"/>
      <point x="634" y="905"/>
      <point x="633" y="698" type="curve"/>
      <point x="633" y="687" type="line"/>
      <point x="633" y="550"/>
      <point x="722" y="509"/>
      <point x="951" y="480" type="curve" smooth="yes"/>
      <point x="1184" y="450"/>
      <point x="1282" y="404"/>
      <point x="1282" y="248" type="curve" smooth="yes"/>
      <point x="1282" y="236" type="line" smooth="yes"/>
      <point x="1282" y="91"/>
      <point x="1168" y="9"/>
      <point x="954" y="9" type="curve" smooth="yes"/>
      <point x="792" y="9"/>
      <point x="702" y="37"/>
      <point x="584" y="83" type="curve"/>
      <point x="590" y="43" type="line"/>
      <point x="682" y="7"/>
      <point x="781" y="-25"/>
      <point x="954" y="-25" type="curve" smooth="yes"/>
      <point x="1193" y="-25"/>
      <point x="1319" y="72"/>
      <point x="1319" y="237" type="curve"/>
      <point x="1319" y="248" type="line"/>
      <point x="1319" y="421"/>
      <point x="1222" y="478"/>
      <point x="954" y="515" type="curve" smooth="yes"/>
      <point x="754" y="543"/>
      <point x="669" y="571"/>
      <point x="669" y="687" type="curve"/>
      <point x="669" y="698" type="line"/>
      <point x="669" y="881"/>
      <point x="1012" y="886"/>
      <point x="1012" y="1105" type="curve"/>
      <point x="1012" y="1246"/>
      <point x="883" y="1350"/>
      <point x="627" y="1350" type="curve" smooth="yes"/>
      <point x="292" y="1350"/>
      <point x="202" y="1186"/>
    </contour>
  </outline>
</glyph>
<glyph name="eth" format="2">
	<advance width="1385"/>
	<unicode hex="00F0"/>
	<outline>
		<contour>
			<point x="693" y="-25" type="curve" smooth="yes"/>
			<point x="1046" y="-25"/>
			<point x="1251" y="140"/>
			<point x="1251" y="456" type="curve"/>
			<point x="1251" y="487" type="line"/>
			<point x="1251" y="947"/>
			<point x="863" y="1146"/>
			<point x="443" y="1324" type="curve"/>
			<point x="368" y="1324" type="line"/>
			<point x="368" y="1323" type="line"/>
			<point x="845" y="1122"/>
			<point x="1173" y="938"/>
			<point x="1211" y="557" type="curve"/>
			<point x="1211" y="550"/>
			<point x="1212" y="542"/>
			<point x="1212" y="535" type="curve"/>
			<point x="1212" y="509"/>
			<point x="1212" y="482"/>
			<point x="1212" y="456" type="curve" smooth="yes"/>
			<point x="1212" y="165"/>
			<point x="1018" y="9"/>
			<point x="693" y="9" type="curve" smooth="yes"/>
			<point x="366" y="9"/>
			<point x="172" y="162"/>
			<point x="172" y="447" type="curve" smooth="yes"/>
			<point x="172" y="465" type="line" smooth="yes"/>
			<point x="172" y="751"/>
			<point x="369" y="903"/>
			<point x="681" y="903" type="curve" smooth="yes"/>
			<point x="932" y="903"/>
			<point x="1194" y="784"/>
			<point x="1212" y="477" type="curve"/>
			<point x="1234" y="508" type="line"/>
			<point x="1220" y="504" type="line"/>
			<point x="1220" y="790"/>
			<point x="966" y="937"/>
			<point x="685" y="937" type="curve" smooth="yes"/>
			<point x="341" y="937"/>
			<point x="134" y="776"/>
			<point x="134" y="467" type="curve" smooth="yes"/>
			<point x="134" y="447" type="line" smooth="yes"/>
			<point x="134" y="139"/>
			<point x="337" y="-25"/>
		</contour>
		<contour>
			<point x="293" y="1050" type="line"/>
			<point x="1170" y="1236" type="line"/>
			<point x="1170" y="1269" type="line"/>
			<point x="293" y="1083" type="line"/>
		</contour>
	</outline>
</glyph>
<glyph name="divide" format="2">
	<advance width="1351"/>
	<unicode hex="00F7"/>
	<outline>
		<contour>
			<point x="166" y="596" type="line"/>
			<point x="1185" y="596" type="line"/>
			<point x="1185" y="630" type="line"/>
			<point x="166" y="630" type="line"/>
		</contour>
		<contour>
			<point x="680" y="127" type="curve" smooth="yes"/>
			<point x="718" y="127"/>
			<point x="739" y="145"/>
			<point x="739" y="180" type="curve" smooth="yes"/>
			<point x="739" y="184" type="line" smooth="yes"/>
			<point x="739" y="218"/>
			<point x="718" y="235"/>
			<point x="680" y="235" type="curve" smooth="yes"/>
			<point x="645" y="235"/>
			<point x="623" y="218"/>
			<point x="623" y="184" type="curve" smooth="yes"/>
			<point x="623" y="180" type="line" smooth="yes"/>
			<point x="623" y="145"/>
			<point x="645" y="127"/>
		</contour>
		<contour>
			<point x="680" y="991" type="curve" smooth="yes"/>
			<point x="718" y="991"/>
			<point x="739" y="1009"/>
			<point x="739" y="1044" type="curve" smooth="yes"/>
			<point x="739" y="1048" type="line" smooth="yes"/>
			<point x="739" y="1082"/>
			<point x="718" y="1099"/>
			<point x="680" y="1099" type="curve" smooth="yes"/>
			<point x="645" y="1099"/>
			<point x="623" y="1082"/>
			<point x="623" y="1048" type="curve" smooth="yes"/>
			<point x="623" y="1044" type="line" smooth="yes"/>
			<point x="623" y="1009"/>
			<point x="645" y="991"/>
		</contour>
	</outline>
</glyph>
<glyph name="gravecomb" format="2">
	<advance width="0"/>
	<unicode hex="0300"/>
	<anchor x="-278" y="1321" name="top"/>
	<anchor x="-114" y="952" name="_top"/>
	<outline>
		<contour>
			<point x="-402" y="1388" type="line"/>
			<point x="-456" y="1388" type="line"/>
			<point x="-456" y="1385" type="line"/>
			<point x="-144" y="1114" type="line"/>
			<point x="-100" y="1114" type="line"/>
			<point x="-100" y="1116" type="line"/>
		</contour>
	</outline>
</glyph>
<glyph name="acutecomb" format="2">
  <unicode hex="0301"/>
  <anchor x="114" y="952" name="_top"/>
  <anchor x="114" y="1321" name="top"/>
  <outline>
    <contour>
      <point x="402" y="1388" type="line"/>
      <point x="100" y="1116" type="line"/>
      <point x="100" y="1114" type="line"/>
      <point x="144" y="1114" type="line"/>
      <point x="456" y="1385" type="line"/>
      <point x="456" y="1388" type="line"/>
    </contour>
  </outline>
</glyph>
<glyph name="circumflexcomb" format="2">
  <unicode hex="0302"/>
  <anchor x="412" y="952" name="_top"/>
  <anchor x="412" y="1321" name="top"/>
  <outline>
    <contour>
      <point x="388" y="1388" type="line"/>
      <point x="100" y="1116" type="line"/>
      <point x="100" y="1114" type="line"/>
      <point x="145" y="1114" type="line"/>
      <point x="409" y="1356" type="line"/>
      <point x="415" y="1356" type="line"/>
      <point x="679" y="1114" type="line"/>
      <point x="724" y="1114" type="line"/>
      <point x="724" y="1116" type="line"/>
      <point x="436" y="1388" type="line"/>
    </contour>
  </outline>
</glyph>
<glyph name="tildecomb" format="2">
	<advance width="0"/>
	<unicode hex="0303"/>
	<anchor x="-395" y="1311" name="top"/>
	<anchor x="-395" y="952" name="_top"/>
	<outline>
		<contour>
			<point x="-228" y="1147" type="curve" smooth="yes"/>
			<point x="-141" y="1147"/>
			<point x="-100" y="1196"/>
			<point x="-100" y="1302" type="curve" smooth="yes"/>
			<point x="-100" y="1336" type="line"/>
			<point x="-132" y="1336" type="line"/>
			<point x="-132" y="1306" type="line" smooth="yes"/>
			<point x="-132" y="1221"/>
			<point x="-162" y="1181"/>
			<point x="-228" y="1181" type="curve" smooth="yes"/>
			<point x="-337" y="1181"/>
			<point x="-437" y="1326"/>
			<point x="-562" y="1326" type="curve" smooth="yes"/>
			<point x="-649" y="1326"/>
			<point x="-690" y="1276"/>
			<point x="-690" y="1169" type="curve" smooth="yes"/>
			<point x="-690" y="1137" type="line"/>
			<point x="-658" y="1137" type="line"/>
			<point x="-658" y="1167" type="line" smooth="yes"/>
			<point x="-658" y="1252"/>
			<point x="-628" y="1292"/>
			<point x="-562" y="1292" type="curve" smooth="yes"/>
			<point x="-455" y="1292"/>
			<point x="-355" y="1147"/>
		</contour>
	</outline>
</glyph>
<glyph name="macroncomb" format="2">
	<advance width="0"/>
	<unicode hex="0304"/>
	<anchor x="-451" y="1291" name="top"/>
	<anchor x="-452" y="952" name="_top"/>
	<outline>
		<contour>
			<point x="-773" y="1226" type="line"/>
			<point x="-130" y="1226" type="line"/>
			<point x="-130" y="1258" type="line"/>
			<point x="-773" y="1258" type="line"/>
		</contour>
	</outline>
</glyph>
<glyph name="dotaccentcomb" format="2">
	<advance width="0"/>
	<unicode hex="0307"/>
	<anchor x="-157" y="1321" name="top"/>
	<anchor x="-157" y="952" name="_top"/>
	<outline>
		<contour>
			<point x="-157" y="1193" type="curve" smooth="yes"/>
			<point x="-121" y="1193"/>
			<point x="-100" y="1210"/>
			<point x="-100" y="1244" type="curve" smooth="yes"/>
			<point x="-100" y="1248" type="line" smooth="yes"/>
			<point x="-100" y="1278"/>
			<point x="-121" y="1296"/>
			<point x="-157" y="1296" type="curve" smooth="yes"/>
			<point x="-192" y="1296"/>
			<point x="-214" y="1278"/>
			<point x="-214" y="1248" type="curve" smooth="yes"/>
			<point x="-214" y="1244" type="line" smooth="yes"/>
			<point x="-214" y="1210"/>
			<point x="-192" y="1193"/>
		</contour>
	</outline>
</glyph>
<glyph name="dieresiscomb" format="2">
	<advance width="0"/>
	<unicode hex="0308"/>
	<anchor x="-331" y="1321" name="top"/>
	<anchor x="-331" y="952" name="_top"/>
	<outline>
		<contour>
			<point x="-505" y="1193" type="curve" smooth="yes"/>
			<point x="-470" y="1193"/>
			<point x="-448" y="1210"/>
			<point x="-448" y="1244" type="curve" smooth="yes"/>
			<point x="-448" y="1248" type="line" smooth="yes"/>
			<point x="-448" y="1278"/>
			<point x="-470" y="1296"/>
			<point x="-505" y="1296" type="curve" smooth="yes"/>
			<point x="-541" y="1296"/>
			<point x="-562" y="1278"/>
			<point x="-562" y="1248" type="curve" smooth="yes"/>
			<point x="-562" y="1244" type="line" smooth="yes"/>
			<point x="-562" y="1210"/>
			<point x="-541" y="1193"/>
		</contour>
		<contour>
			<point x="-156" y="1193" type="curve" smooth="yes"/>
			<point x="-121" y="1193"/>
			<point x="-100" y="1210"/>
			<point x="-100" y="1244" type="curve" smooth="yes"/>
			<point x="-100" y="1248" type="line" smooth="yes"/>
			<point x="-100" y="1278"/>
			<point x="-121" y="1296"/>
			<point x="-156" y="1296" type="curve" smooth="yes"/>
			<point x="-192" y="1296"/>
			<point x="-213" y="1278"/>
			<point x="-213" y="1248" type="curve" smooth="yes"/>
			<point x="-213" y="1244" type="line" smooth="yes"/>
			<point x="-213" y="1210"/>
			<point x="-192" y="1193"/>
		</contour>
	</outline>
</glyph>
<glyph name="ringcomb" format="2">
	<advance width="0"/>
	<unicode hex="030A"/>
	<anchor x="-287" y="1422" name="top"/>
	<anchor x="-287" y="952" name="_top"/>
	<outline>
		<contour>
			<point x="-474" y="1273" type="curve" smooth="yes"/>
			<point x="-474" y="1271" type="line"/>
			<point x="-474" y="1164"/>
			<point x="-405" y="1099"/>
			<point x="-287" y="1099" type="curve" smooth="yes"/>
			<point x="-170" y="1099"/>
			<point x="-100" y="1164"/>
			<point x="-100" y="1271" type="curve" smooth="yes"/>
			<point x="-100" y="1273" type="line" smooth="yes"/>
			<point x="-100" y="1380"/>
			<point x="-170" y="1445"/>
			<point x="-287" y="1445" type="curve" smooth="yes"/>
			<point x="-405" y="1445"/>
			<point x="-474" y="1380"/>
		</contour>
		<contour>
			<point x="-440" y="1271" type="curve" smooth="yes"/>
			<point x="-440" y="1273" type="line" smooth="yes"/>
			<point x="-440" y="1363"/>
			<point x="-385" y="1414"/>
			<point x="-287" y="1414" type="curve" smooth="yes"/>
			<point x="-189" y="1414"/>
			<point x="-134" y="1363"/>
			<point x="-134" y="1273" type="curve" smooth="yes"/>
			<point x="-134" y="1271" type="line" smooth="yes"/>
			<point x="-134" y="1181"/>
			<point x="-189" y="1130"/>
			<point x="-287" y="1130" type="curve" smooth="yes"/>
			<point x="-385" y="1130"/>
			<point x="-440" y="1181"/>
		</contour>
	</outline>
</glyph>
<glyph name="cedillacomb" format="2">
	<advance width="0"/>
	<unicode hex="0327"/>
	<anchor x="-316" y="0" name="_bottom"/>
	<anchor x="-239" y="-428" name="bottom"/>
	<outline>
		<contour>
			<point x="-299" y="0" type="line"/>
			<point x="-332" y="0" type="line"/>
			<point x="-357" y="-166" type="line"/>
			<point x="-325" y="-168"/>
			<point x="-297" y="-170"/>
			<point x="-272" y="-171" type="curve" smooth="yes"/>
			<point x="-124" y="-182"/>
			<point x="-60" y="-209"/>
			<point x="-60" y="-289" type="curve" smooth="yes"/>
			<point x="-60" y="-296" type="line" smooth="yes"/>
			<point x="-60" y="-362"/>
			<point x="-128" y="-394"/>
			<point x="-243" y="-394" type="curve" smooth="yes"/>
			<point x="-322" y="-394"/>
			<point x="-393" y="-381"/>
			<point x="-455" y="-356" type="curve"/>
			<point x="-445" y="-396" type="line"/>
			<point x="-400" y="-412"/>
			<point x="-322" y="-428"/>
			<point x="-243" y="-428" type="curve" smooth="yes"/>
			<point x="-106" y="-428"/>
			<point x="-23" y="-385"/>
			<point x="-23" y="-294" type="curve" smooth="yes"/>
			<point x="-23" y="-287" type="line" smooth="yes"/>
			<point x="-23" y="-189"/>
			<point x="-101" y="-154"/>
			<point x="-259" y="-141" type="curve" smooth="yes"/>
			<point x="-283" y="-139"/>
			<point x="-304" y="-139"/>
			<point x="-327" y="-138" type="curve"/>
			<point x="-322" y="-157" type="line"/>
		</contour>
	</outline>
</glyph>
<glyph name="Danda.bn" format="2">
	<advance width="835"/>
	<unicode hex="0964"/>
	<outline>
		<contour>
			<point x="398" y="1270" type="line"/>
			<point x="398" y="-60" type="line"/>
			<point x="434" y="-60" type="line"/>
			<point x="434" y="1270" type="line"/>
		</contour>
	</outline>
</glyph>
<glyph name="Doubledanda.bn" format="2">
	<advance width="1653"/>
	<unicode hex="0965"/>
	<outline>
		<contour>
			<point x="398" y="1270" type="line"/>
			<point x="398" y="-60" type="line"/>
			<point x="434" y="-60" type="line"/>
			<point x="434" y="1270" type="line"/>
		</contour>
		<contour>
			<point x="1216" y="1270" type="line"/>
			<point x="1216" y="-60" type="line"/>
			<point x="1252" y="-60" type="line"/>
			<point x="1252" y="1270" type="line"/>
		</contour>
	</outline>
</glyph>
<glyph name="anji.bn" format="2">
	<advance width="1622"/>
	<unicode hex="0980"/>
	<outline>
		<contour>
			<point x="783" y="1208" type="curve" smooth="yes"/>
			<point x="594" y="1208"/>
			<point x="409" y="1155"/>
			<point x="289" y="1051" type="curve" smooth="yes"/>
			<point x="207" y="980"/>
			<point x="155" y="884"/>
			<point x="155" y="764" type="curve" smooth="yes"/>
			<point x="155" y="567"/>
			<point x="306" y="450"/>
			<point x="607" y="450" type="curve" smooth="yes"/>
			<point x="900" y="450" type="line"/>
			<point x="908" y="484" type="line"/>
			<point x="607" y="484" type="line" smooth="yes"/>
			<point x="363" y="484"/>
			<point x="191" y="571"/>
			<point x="191" y="764" type="curve" smooth="yes"/>
			<point x="191" y="874"/>
			<point x="243" y="964"/>
			<point x="326" y="1032" type="curve" smooth="yes"/>
			<point x="439" y="1124"/>
			<point x="610" y="1174"/>
			<point x="783" y="1174" type="curve" smooth="yes"/>
			<point x="1111" y="1174"/>
			<point x="1279" y="1042"/>
			<point x="1279" y="778" type="curve" smooth="yes"/>
			<point x="1279" y="263" type="line"/>
			<point x="1315" y="263" type="line"/>
			<point x="1315" y="769" type="line" smooth="yes"/>
			<point x="1315" y="1062"/>
			<point x="1134" y="1208"/>
		</contour>
		<contour>
			<point x="1314" y="235" type="curve" smooth="yes"/>
			<point x="1314" y="300" type="line"/>
			<point x="1278" y="300" type="line"/>
			<point x="1278" y="235" type="line" smooth="yes"/>
			<point x="1278" y="73"/>
			<point x="1367" y="-27"/>
			<point x="1526" y="-27" type="curve" smooth="yes"/>
			<point x="1566" y="-27" type="line"/>
			<point x="1560" y="3" type="line"/>
			<point x="1526" y="3" type="line" smooth="yes"/>
			<point x="1391" y="3"/>
			<point x="1314" y="85"/>
		</contour>
	</outline>
</glyph>
<glyph name="Candrabindu.bn" format="2">
	<advance width="0"/>
	<unicode hex="0981"/>
	<anchor x="320" y="1776" name="_top2"/>
	<outline>
		<contour>
			<point x="1109" y="1766" type="curve"/>
			<point x="1076" y="1766" type="line"/>
			<point x="1076" y="1745" type="line" smooth="yes"/>
			<point x="1076" y="1578"/>
			<point x="942" y="1493"/>
			<point x="695" y="1493" type="curve" smooth="yes"/>
			<point x="454" y="1493"/>
			<point x="320" y="1578"/>
			<point x="320" y="1745" type="curve" smooth="yes"/>
			<point x="320" y="1766" type="line"/>
			<point x="287" y="1766" type="line"/>
			<point x="287" y="1761"/>
			<point x="287" y="1752"/>
			<point x="287" y="1745" type="curve" smooth="yes"/>
			<point x="287" y="1559"/>
			<point x="433" y="1459"/>
			<point x="695" y="1459" type="curve" smooth="yes"/>
			<point x="964" y="1459"/>
			<point x="1109" y="1559"/>
			<point x="1109" y="1745" type="curve" smooth="yes"/>
			<point x="1109" y="1752"/>
			<point x="1109" y="1759"/>
		</contour>
		<contour>
			<point x="696" y="1733" type="curve" smooth="yes"/>
			<point x="737" y="1733"/>
			<point x="756" y="1755"/>
			<point x="756" y="1783" type="curve" smooth="yes"/>
			<point x="756" y="1786" type="line" smooth="yes"/>
			<point x="756" y="1816"/>
			<point x="737" y="1838"/>
			<point x="696" y="1838" type="curve" smooth="yes"/>
			<point x="656" y="1838"/>
			<point x="637" y="1816"/>
			<point x="637" y="1786" type="curve" smooth="yes"/>
			<point x="637" y="1783" type="line" smooth="yes"/>
			<point x="637" y="1756"/>
			<point x="656" y="1733"/>
		</contour>
	</outline>
</glyph>
<glyph name="Anuswara.bn" format="2">
  <advance width="1390"/>
  <unicode hex="0982"/>
  <outline>
    <contour>
      <point x="1206" y="-18" type="line"/>
      <point x="1212" y="14" type="line"/>
      <point x="225" y="407" type="line"/>
      <point x="219" y="373" type="line"/>
    </contour>
    <contour>
      <point x="668" y="621" type="curve" smooth="yes"/>
      <point x="985" y="621"/>
      <point x="1119" y="728"/>
      <point x="1119" y="915" type="curve" smooth="yes"/>
      <point x="1119" y="924" type="line" smooth="yes"/>
      <point x="1119" y="1104"/>
      <point x="981" y="1219"/>
      <point x="666" y="1219" type="curve" smooth="yes"/>
      <point x="351" y="1219"/>
      <point x="212" y="1104"/>
      <point x="212" y="924" type="curve" smooth="yes"/>
      <point x="212" y="915" type="line" smooth="yes"/>
      <point x="212" y="728"/>
      <point x="351" y="621"/>
    </contour>
    <contour>
      <point x="667" y="654" type="curve" smooth="yes"/>
      <point x="376" y="654"/>
      <point x="248" y="748"/>
      <point x="248" y="915" type="curve" smooth="yes"/>
      <point x="248" y="924" type="line" smooth="yes"/>
      <point x="248" y="1084"/>
      <point x="376" y="1186"/>
      <point x="667" y="1186" type="curve" smooth="yes"/>
      <point x="958" y="1186"/>
      <point x="1083" y="1084"/>
      <point x="1083" y="924" type="curve" smooth="yes"/>
      <point x="1083" y="915" type="line" smooth="yes"/>
      <point x="1083" y="748"/>
      <point x="958" y="654"/>
    </contour>
  </outline>
</glyph>
<glyph name="Visarga.bn" format="2">
  <advance width="1331"/>
  <unicode hex="0983"/>
  <outline>
    <contour>
      <point x="668" y="651" type="curve" smooth="yes"/>
      <point x="985" y="651"/>
      <point x="1119" y="753"/>
      <point x="1119" y="930" type="curve" smooth="yes"/>
      <point x="1119" y="939" type="line" smooth="yes"/>
      <point x="1119" y="1110"/>
      <point x="981" y="1219"/>
      <point x="666" y="1219" type="curve" smooth="yes"/>
      <point x="351" y="1219"/>
      <point x="212" y="1110"/>
      <point x="212" y="939" type="curve" smooth="yes"/>
      <point x="212" y="930" type="line" smooth="yes"/>
      <point x="212" y="753"/>
      <point x="351" y="651"/>
    </contour>
    <contour>
      <point x="667" y="684" type="curve" smooth="yes"/>
      <point x="376" y="684"/>
      <point x="248" y="773"/>
      <point x="248" y="930" type="curve" smooth="yes"/>
      <point x="248" y="939" type="line" smooth="yes"/>
      <point x="248" y="1090"/>
      <point x="376" y="1186"/>
      <point x="667" y="1186" type="curve" smooth="yes"/>
      <point x="958" y="1186"/>
      <point x="1083" y="1090"/>
      <point x="1083" y="939" type="curve" smooth="yes"/>
      <point x="1083" y="930" type="line" smooth="yes"/>
      <point x="1083" y="773"/>
      <point x="958" y="684"/>
    </contour>
    <contour>
      <point x="668" y="-15" type="curve" smooth="yes"/>
      <point x="985" y="-15"/>
      <point x="1119" y="87"/>
      <point x="1119" y="264" type="curve" smooth="yes"/>
      <point x="1119" y="273" type="line" smooth="yes"/>
      <point x="1119" y="444"/>
      <point x="981" y="553"/>
      <point x="666" y="553" type="curve" smooth="yes"/>
      <point x="351" y="553"/>
      <point x="212" y="444"/>
      <point x="212" y="273" type="curve" smooth="yes"/>
      <point x="212" y="264" type="line" smooth="yes"/>
      <point x="212" y="87"/>
      <point x="351" y="-15"/>
    </contour>
    <contour>
      <point x="667" y="18" type="curve" smooth="yes"/>
      <point x="376" y="18"/>
      <point x="248" y="107"/>
      <point x="248" y="264" type="curve" smooth="yes"/>
      <point x="248" y="273" type="line" smooth="yes"/>
      <point x="248" y="424"/>
      <point x="376" y="520"/>
      <point x="667" y="520" type="curve" smooth="yes"/>
      <point x="958" y="520"/>
      <point x="1083" y="424"/>
      <point x="1083" y="273" type="curve" smooth="yes"/>
      <point x="1083" y="264" type="line" smooth="yes"/>
      <point x="1083" y="107"/>
      <point x="958" y="18"/>
    </contour>
  </outline>
</glyph>
<glyph name="VowelA.bn" format="2">
	<advance width="2510"/>
	<unicode hex="0985"/>
	<guideline x="96" y="7000" angle="0"/>
	<anchor x="2170" y="1403" name="top"/>
	<anchor x="1814" y="1776" name="top2"/>
	<note>
		VowelA.bn
	</note>
	<outline>
		<contour>
			<point x="990" y="116" type="curve" smooth="yes"/>
			<point x="1443" y="116"/>
			<point x="1668" y="265"/>
			<point x="1668" y="565" type="curve" smooth="yes"/>
			<point x="1668" y="570" type="line" smooth="yes"/>
			<point x="1668" y="801"/>
			<point x="1493" y="941"/>
			<point x="1238" y="941" type="curve" smooth="yes"/>
			<point x="953" y="941"/>
			<point x="806" y="817"/>
			<point x="806" y="610" type="curve" smooth="yes"/>
			<point x="806" y="592"/>
			<point x="808" y="564"/>
			<point x="811" y="550" type="curve"/>
			<point x="849" y="550" type="line"/>
			<point x="845" y="564"/>
			<point x="843" y="592"/>
			<point x="843" y="610" type="curve" smooth="yes"/>
			<point x="843" y="795"/>
			<point x="978" y="906"/>
			<point x="1240" y="906" type="curve" smooth="yes"/>
			<point x="1475" y="906"/>
			<point x="1631" y="779"/>
			<point x="1631" y="570" type="curve" smooth="yes"/>
			<point x="1631" y="565" type="line" smooth="yes"/>
			<point x="1631" y="287"/>
			<point x="1420" y="151"/>
			<point x="990" y="151" type="curve" smooth="yes"/>
			<point x="553" y="151"/>
			<point x="295" y="344"/>
			<point x="257" y="710" type="curve" smooth="yes"/>
			<point x="241" y="865" type="line"/>
			<point x="205" y="865" type="line"/>
			<point x="222" y="708" type="line" smooth="yes"/>
			<point x="264" y="321"/>
			<point x="533" y="116"/>
		</contour>
		<contour>
			<point x="2179" y="0" type="line"/>
			<point x="2210" y="0" type="line"/>
			<point x="2210" y="1188" type="line"/>
			<point x="2174" y="1188" type="line"/>
			<point x="2174" y="160" type="line"/>
			<point x="2175" y="24" type="line"/>
			<point x="2205" y="39" type="line"/>
			<point x="2185" y="34" type="line"/>
			<point x="1521" y="273" type="line"/>
			<point x="1491" y="247" type="line"/>
		</contour>
		<contour>
			<point x="-30" y="1177" type="line"/>
			<point x="2210" y="1177" type="line"/>
			<point x="2210" y="1208" type="line"/>
			<point x="-36" y="1208" type="line"/>
		</contour>
		<contour>
			<point x="2187" y="1199" type="line"/>
			<point x="2187" y="912" type="line"/>
			<point x="2210" y="912" type="line"/>
			<point x="2210" y="1199" type="line"/>
		</contour>
		<contour>
			<point x="2187" y="1177" type="line"/>
			<point x="2572" y="1177" type="line"/>
			<point x="2566" y="1208" type="line"/>
			<point x="2187" y="1208" type="line"/>
		</contour>
	</outline>
</glyph>
<glyph name="VowelI.bn" format="2">
  <advance width="1574"/>
  <unicode hex="0987"/>
  <note>
VowelI.bn
</note>
  <anchor x="966" y="159" name="bottom1"/>
  <anchor x="969.2" y="1561" name="top"/>
  <anchor x="1136.2" y="1519" name="top2"/>
  <outline>
    <contour>
      <point x="1465" y="-131" type="line"/>
      <point x="1469" y="-96" type="line"/>
      <point x="581" y="153" type="line"/>
      <point x="427" y="195" type="line"/>
      <point x="430" y="218" type="line"/>
      <point x="305" y="217" type="line"/>
      <point x="450" y="189"/>
      <point x="590" y="176"/>
      <point x="731" y="176" type="curve" smooth="yes"/>
      <point x="1208" y="176"/>
      <point x="1327" y="328"/>
      <point x="1327" y="544" type="curve" smooth="yes"/>
      <point x="1327" y="549" type="line" smooth="yes"/>
      <point x="1327" y="779"/>
      <point x="1130" y="929"/>
      <point x="789" y="929" type="curve" smooth="yes"/>
      <point x="428" y="929"/>
      <point x="235" y="807"/>
      <point x="235" y="578" type="curve" smooth="yes"/>
      <point x="235" y="562"/>
      <point x="237" y="543"/>
      <point x="239" y="529" type="curve"/>
      <point x="275" y="529" type="line"/>
      <point x="273" y="543"/>
      <point x="272" y="562"/>
      <point x="272" y="578" type="curve" smooth="yes"/>
      <point x="272" y="786"/>
      <point x="452" y="895"/>
      <point x="789" y="895" type="curve" smooth="yes"/>
      <point x="1112" y="895"/>
      <point x="1290" y="760"/>
      <point x="1290" y="549" type="curve" smooth="yes"/>
      <point x="1290" y="544" type="line" smooth="yes"/>
      <point x="1290" y="346"/>
      <point x="1184" y="210"/>
      <point x="723" y="210" type="curve" smooth="yes"/>
      <point x="554" y="210"/>
      <point x="403" y="225"/>
      <point x="264" y="255" type="curve" smooth="yes"/>
      <point x="191" y="271" type="line"/>
      <point x="187" y="232" type="line"/>
    </contour>
    <contour>
      <point x="-68" y="1177" type="line"/>
      <point x="1635" y="1177" type="line"/>
      <point x="1629" y="1208" type="line"/>
      <point x="-74" y="1208" type="line"/>
    </contour>
    <contour>
      <point x="1305" y="1205" type="line"/>
      <point x="1321" y="1238"/>
      <point x="1329" y="1277"/>
      <point x="1329" y="1325" type="curve" smooth="yes"/>
      <point x="1329" y="1492"/>
      <point x="1219" y="1570"/>
      <point x="1008" y="1570" type="curve" smooth="yes"/>
      <point x="462" y="1570" type="line" smooth="yes"/>
      <point x="286" y="1570"/>
      <point x="201" y="1630"/>
      <point x="201" y="1756" type="curve" smooth="yes"/>
      <point x="201" y="1774" type="line"/>
      <point x="170" y="1774" type="line"/>
      <point x="170" y="1756" type="line" smooth="yes"/>
      <point x="170" y="1611"/>
      <point x="267" y="1539"/>
      <point x="462" y="1539" type="curve" smooth="yes"/>
      <point x="1008" y="1539" type="line" smooth="yes"/>
      <point x="1206" y="1539"/>
      <point x="1296" y="1474"/>
      <point x="1296" y="1323" type="curve" smooth="yes"/>
      <point x="1296" y="1275"/>
      <point x="1287" y="1232"/>
      <point x="1269" y="1190" type="curve"/>
      <point x="1295" y="1190" type="line"/>
    </contour>
  </outline>
</glyph>
<glyph name="VowelIi.bn" format="2">
  <advance width="2035"/>
  <unicode hex="0988"/>
  <anchor x="1440.4" y="1561" name="top"/>
  <anchor x="1607.4" y="1519" name="top2"/>
  <outline>
    <contour>
      <point x="1713" y="-38" type="line"/>
      <point x="1749" y="-38" type="line"/>
      <point x="1749" y="856" type="line"/>
      <point x="1715" y="856" type="line"/>
      <point x="1499" y="711"/>
      <point x="1196" y="468"/>
      <point x="1042" y="355" type="curve"/>
      <point x="1056" y="349" type="line"/>
      <point x="1104" y="382"/>
      <point x="1131" y="482"/>
      <point x="1131" y="570" type="curve" smooth="yes"/>
      <point x="1131" y="575" type="line" smooth="yes"/>
      <point x="1131" y="802"/>
      <point x="977" y="930"/>
      <point x="684" y="930" type="curve" smooth="yes"/>
      <point x="400" y="930"/>
      <point x="248" y="811"/>
      <point x="248" y="588" type="curve" smooth="yes"/>
      <point x="248" y="570"/>
      <point x="250" y="542"/>
      <point x="254" y="528" type="curve"/>
      <point x="290" y="528" type="line"/>
      <point x="286" y="542"/>
      <point x="285" y="570"/>
      <point x="285" y="588" type="curve" smooth="yes"/>
      <point x="285" y="791"/>
      <point x="426" y="896"/>
      <point x="686" y="896" type="curve" smooth="yes"/>
      <point x="955" y="896"/>
      <point x="1094" y="783"/>
      <point x="1094" y="575" type="curve" smooth="yes"/>
      <point x="1094" y="570" type="line" smooth="yes"/>
      <point x="1094" y="348"/>
      <point x="918" y="228"/>
      <point x="637" y="228" type="curve" smooth="yes"/>
      <point x="497" y="228"/>
      <point x="381" y="243"/>
      <point x="292" y="268" type="curve" smooth="yes"/>
      <point x="243" y="282" type="line"/>
      <point x="241" y="246" type="line"/>
      <point x="355" y="209"/>
      <point x="483" y="193"/>
      <point x="638" y="193" type="curve" smooth="yes"/>
      <point x="820" y="193"/>
      <point x="928" y="233"/>
      <point x="1027" y="298" type="curve" smooth="yes"/>
      <point x="1163" y="398"/>
      <point x="1502" y="671"/>
      <point x="1730" y="821" type="curve"/>
      <point x="1715" y="834" type="line"/>
      <point x="1713" y="630" type="line"/>
    </contour>
    <contour>
      <point x="-102" y="1177" type="line"/>
      <point x="2077" y="1177" type="line"/>
      <point x="2071" y="1208" type="line"/>
      <point x="-108" y="1208" type="line"/>
    </contour>
    <contour>
      <point x="1776" y="1205" type="line"/>
      <point x="1792" y="1238"/>
      <point x="1800" y="1277"/>
      <point x="1800" y="1325" type="curve" smooth="yes"/>
      <point x="1800" y="1492"/>
      <point x="1690" y="1570"/>
      <point x="1479" y="1570" type="curve" smooth="yes"/>
      <point x="573" y="1570" type="line" smooth="yes"/>
      <point x="397" y="1570"/>
      <point x="312" y="1630"/>
      <point x="312" y="1756" type="curve" smooth="yes"/>
      <point x="312" y="1774" type="line"/>
      <point x="281" y="1774" type="line"/>
      <point x="281" y="1756" type="line" smooth="yes"/>
      <point x="281" y="1611"/>
      <point x="379" y="1539"/>
      <point x="573" y="1539" type="curve" smooth="yes"/>
      <point x="1479" y="1539" type="line" smooth="yes"/>
      <point x="1677" y="1539"/>
      <point x="1767" y="1474"/>
      <point x="1767" y="1323" type="curve" smooth="yes"/>
      <point x="1767" y="1275"/>
      <point x="1758" y="1232"/>
      <point x="1740" y="1190" type="curve"/>
      <point x="1766" y="1190" type="line"/>
    </contour>
  </outline>
</glyph>
<glyph name="VowelU.bn" format="2">
	<advance width="1942"/>
	<unicode hex="0989"/>
	<anchor x="1197" y="182" name="bottom1"/>
	<anchor x="1357" y="1561" name="top"/>
	<anchor x="1524" y="1519" name="top2"/>
	<note>
		VowelU.bn
	</note>
	<outline>
		<contour>
			<point x="277" y="650" type="curve" smooth="yes"/>
			<point x="252" y="866" type="line"/>
			<point x="216" y="866" type="line"/>
			<point x="241" y="646" type="line" smooth="yes"/>
			<point x="288" y="236"/>
			<point x="559" y="20"/>
			<point x="1033" y="20" type="curve" smooth="yes"/>
			<point x="1483" y="20"/>
			<point x="1719" y="208"/>
			<point x="1719" y="564" type="curve" smooth="yes"/>
			<point x="1719" y="670"/>
			<point x="1705" y="748"/>
			<point x="1672" y="835" type="curve"/>
			<point x="1634" y="839" type="line"/>
			<point x="1510" y="757" type="line" smooth="yes"/>
			<point x="1372" y="666"/>
			<point x="1253" y="612"/>
			<point x="1118" y="612" type="curve" smooth="yes"/>
			<point x="964" y="612"/>
			<point x="889" y="691"/>
			<point x="889" y="852" type="curve" smooth="yes"/>
			<point x="889" y="1196" type="line"/>
			<point x="854" y="1196" type="line"/>
			<point x="854" y="852" type="line" smooth="yes"/>
			<point x="854" y="667"/>
			<point x="941" y="577"/>
			<point x="1120" y="577" type="curve" smooth="yes"/>
			<point x="1263" y="577"/>
			<point x="1388" y="634"/>
			<point x="1532" y="729" type="curve" smooth="yes"/>
			<point x="1650" y="807" type="line"/>
			<point x="1642" y="815" type="line"/>
			<point x="1671" y="741"/>
			<point x="1682" y="650"/>
			<point x="1682" y="564" type="curve" smooth="yes"/>
			<point x="1682" y="233"/>
			<point x="1458" y="56"/>
			<point x="1033" y="56" type="curve" smooth="yes"/>
			<point x="581" y="56"/>
			<point x="322" y="261"/>
		</contour>
		<contour>
			<point x="-58" y="1177" type="line"/>
			<point x="1974" y="1177" type="line"/>
			<point x="1968" y="1208" type="line"/>
			<point x="-64" y="1208" type="line"/>
		</contour>
		<contour>
			<point x="1693" y="1205" type="line"/>
			<point x="1709" y="1238"/>
			<point x="1717" y="1277"/>
			<point x="1717" y="1325" type="curve" smooth="yes"/>
			<point x="1717" y="1492"/>
			<point x="1607" y="1570"/>
			<point x="1396" y="1570" type="curve" smooth="yes"/>
			<point x="571" y="1570" type="line" smooth="yes"/>
			<point x="395" y="1570"/>
			<point x="310" y="1630"/>
			<point x="310" y="1756" type="curve" smooth="yes"/>
			<point x="310" y="1774" type="line"/>
			<point x="279" y="1774" type="line"/>
			<point x="279" y="1756" type="line" smooth="yes"/>
			<point x="279" y="1611"/>
			<point x="376" y="1539"/>
			<point x="571" y="1539" type="curve" smooth="yes"/>
			<point x="1396" y="1539" type="line" smooth="yes"/>
			<point x="1594" y="1539"/>
			<point x="1684" y="1474"/>
			<point x="1684" y="1323" type="curve" smooth="yes"/>
			<point x="1684" y="1275"/>
			<point x="1675" y="1232"/>
			<point x="1657" y="1190" type="curve"/>
			<point x="1683" y="1190" type="line"/>
		</contour>
	</outline>
</glyph>
<glyph name="VowelUu.bn" format="2">
	<advance width="2110"/>
	<unicode hex="098A"/>
	<anchor x="1505.4" y="1561" name="top"/>
	<anchor x="1672.4" y="1519" name="top2"/>
	<outline>
		<contour>
			<point x="1022" y="1196" type="line"/>
			<point x="1022" y="852" type="line" smooth="yes"/>
			<point x="1022" y="667"/>
			<point x="1109" y="577"/>
			<point x="1288" y="577" type="curve" smooth="yes"/>
			<point x="1416" y="577"/>
			<point x="1547" y="628"/>
			<point x="1700" y="729" type="curve" smooth="yes"/>
			<point x="1818" y="807" type="line"/>
			<point x="1810" y="815" type="line"/>
			<point x="1839" y="741"/>
			<point x="1850" y="650"/>
			<point x="1850" y="564" type="curve" smooth="yes"/>
			<point x="1850" y="219"/>
			<point x="1621" y="55"/>
			<point x="1194" y="55" type="curve" smooth="yes"/>
			<point x="844" y="55"/>
			<point x="631" y="238"/>
			<point x="588" y="668" type="curve" smooth="yes"/>
			<point x="566" y="888" type="line"/>
			<point x="529" y="888" type="line"/>
			<point x="555" y="664" type="line" smooth="yes"/>
			<point x="599" y="284"/>
			<point x="768" y="82"/>
			<point x="1035" y="44" type="curve"/>
			<point x="943" y="80" type="line"/>
			<point x="933" y="49" type="line"/>
			<point x="1015" y="58" type="line"/>
			<point x="562" y="76"/>
			<point x="315" y="256"/>
			<point x="258" y="644" type="curve" smooth="yes"/>
			<point x="233" y="815" type="line"/>
			<point x="196" y="815" type="line"/>
			<point x="224" y="641" type="line" smooth="yes"/>
			<point x="289" y="234"/>
			<point x="515" y="20"/>
			<point x="1194" y="20" type="curve" smooth="yes"/>
			<point x="1645" y="20"/>
			<point x="1887" y="195"/>
			<point x="1887" y="564" type="curve" smooth="yes"/>
			<point x="1887" y="670"/>
			<point x="1873" y="748"/>
			<point x="1840" y="835" type="curve"/>
			<point x="1802" y="839" type="line"/>
			<point x="1678" y="757" type="line" smooth="yes"/>
			<point x="1530" y="659"/>
			<point x="1406" y="612"/>
			<point x="1286" y="612" type="curve" smooth="yes"/>
			<point x="1132" y="612"/>
			<point x="1057" y="691"/>
			<point x="1057" y="852" type="curve" smooth="yes"/>
			<point x="1057" y="1196" type="line"/>
		</contour>
		<contour>
			<point x="-83" y="1177" type="line"/>
			<point x="2142" y="1177" type="line"/>
			<point x="2136" y="1208" type="line"/>
			<point x="-89" y="1208" type="line"/>
		</contour>
		<contour>
			<point x="1841" y="1205" type="line"/>
			<point x="1857" y="1238"/>
			<point x="1865" y="1277"/>
			<point x="1865" y="1325" type="curve" smooth="yes"/>
			<point x="1865" y="1492"/>
			<point x="1755" y="1570"/>
			<point x="1544" y="1570" type="curve" smooth="yes"/>
			<point x="580" y="1570" type="line" smooth="yes"/>
			<point x="404" y="1570"/>
			<point x="319" y="1630"/>
			<point x="319" y="1756" type="curve" smooth="yes"/>
			<point x="319" y="1774" type="line"/>
			<point x="288" y="1774" type="line"/>
			<point x="288" y="1756" type="line" smooth="yes"/>
			<point x="288" y="1611"/>
			<point x="386" y="1539"/>
			<point x="580" y="1539" type="curve" smooth="yes"/>
			<point x="1544" y="1539" type="line" smooth="yes"/>
			<point x="1742" y="1539"/>
			<point x="1832" y="1474"/>
			<point x="1832" y="1323" type="curve" smooth="yes"/>
			<point x="1832" y="1275"/>
			<point x="1823" y="1232"/>
			<point x="1805" y="1190" type="curve"/>
			<point x="1831" y="1190" type="line"/>
		</contour>
	</outline>
</glyph>
<glyph name="VowelRu.bn" format="2">
	<advance width="2154"/>
	<unicode hex="098B"/>
	<anchor x="958" y="1776" name="top2"/>
	<outline>
		<contour>
			<point x="1325" y="0" type="line"/>
			<point x="1356" y="0" type="line"/>
			<point x="1356" y="1208" type="line"/>
			<point x="1321" y="1208" type="line"/>
			<point x="1321" y="971" type="line"/>
			<point x="1321" y="877" type="line"/>
			<point x="1320" y="864" type="line"/>
			<point x="1320" y="160" type="line"/>
			<point x="1321" y="24" type="line"/>
			<point x="1329" y="34" type="line"/>
			<point x="276" y="326" type="line"/>
			<point x="292" y="301" type="line"/>
			<point x="292" y="608" type="line"/>
			<point x="276" y="593" type="line"/>
			<point x="586" y="691"/>
			<point x="963" y="774"/>
			<point x="1346" y="858" type="curve"/>
			<point x="1331" y="890" type="line"/>
			<point x="1285" y="881"/>
			<point x="1241" y="871"/>
			<point x="1197" y="861" type="curve"/>
			<point x="1187" y="859" type="line"/>
			<point x="842" y="784"/>
			<point x="527" y="706"/>
			<point x="256" y="624" type="curve"/>
			<point x="256" y="297" type="line"/>
		</contour>
		<contour>
			<point x="1185" y="843" type="curve"/>
			<point x="1221" y="853" type="line"/>
			<point x="1114" y="976"/>
			<point x="1005" y="1093"/>
			<point x="891" y="1208" type="curve"/>
			<point x="859" y="1212" type="line"/>
			<point x="740" y="1115" type="line" smooth="yes"/>
			<point x="622" y="1018"/>
			<point x="509" y="974"/>
			<point x="375" y="974" type="curve" smooth="yes"/>
			<point x="202" y="974"/>
			<point x="117" y="1047"/>
			<point x="117" y="1192" type="curve" smooth="yes"/>
			<point x="117" y="1208" type="line"/>
			<point x="82" y="1208" type="line"/>
			<point x="82" y="1192" type="line" smooth="yes"/>
			<point x="82" y="1024"/>
			<point x="185" y="940"/>
			<point x="374" y="940" type="curve" smooth="yes"/>
			<point x="527" y="940"/>
			<point x="634" y="986"/>
			<point x="768" y="1092" type="curve" smooth="yes"/>
			<point x="884" y="1184" type="line"/>
			<point x="867" y="1183" type="line"/>
			<point x="976" y="1074"/>
			<point x="1084" y="961"/>
		</contour>
		<contour>
			<point x="1867" y="122" type="line"/>
			<point x="1897" y="122" type="line"/>
			<point x="1897" y="1208" type="line"/>
			<point x="1861" y="1208" type="line"/>
			<point x="1861" y="282" type="line"/>
			<point x="1863" y="146" type="line"/>
			<point x="1869" y="155" type="line"/>
			<point x="1342" y="333" type="line"/>
			<point x="1342" y="298" type="line"/>
		</contour>
	</outline>
</glyph>
<glyph name="VowelLru.bn" format="2">
  <advance width="1825"/>
  <unicode hex="098C"/>
  <anchor x="810" y="1523" name="top2"/>
  <outline>
    <contour>
      <point x="205" y="0" type="curve"/>
      <point x="241" y="0" type="line"/>
      <point x="241" y="49"/>
      <point x="241" y="99"/>
      <point x="241" y="147" type="curve" smooth="yes"/>
      <point x="241" y="184" type="line" smooth="yes"/>
      <point x="241" y="402"/>
      <point x="370" y="519"/>
      <point x="616" y="519" type="curve" smooth="yes"/>
      <point x="824" y="519"/>
      <point x="988" y="419"/>
      <point x="988" y="179" type="curve" smooth="yes"/>
      <point x="988" y="0" type="line"/>
      <point x="1144" y="0" type="line" smooth="yes"/>
      <point x="1456" y="0"/>
      <point x="1648" y="140"/>
      <point x="1648" y="422" type="curve" smooth="yes"/>
      <point x="1648" y="433" type="line" smooth="yes"/>
      <point x="1648" y="733"/>
      <point x="1441" y="894"/>
      <point x="1014" y="933" type="curve" smooth="yes"/>
      <point x="652" y="966" type="line" smooth="yes"/>
      <point x="436" y="986"/>
      <point x="332" y="1056"/>
      <point x="332" y="1192" type="curve" smooth="yes"/>
      <point x="332" y="1218" type="line"/>
      <point x="297" y="1218" type="line"/>
      <point x="297" y="1192" type="line" smooth="yes"/>
      <point x="297" y="1036"/>
      <point x="406" y="954"/>
      <point x="645" y="932" type="curve" smooth="yes"/>
      <point x="1007" y="899" type="line" smooth="yes"/>
      <point x="1414" y="862"/>
      <point x="1611" y="716"/>
      <point x="1611" y="435" type="curve" smooth="yes"/>
      <point x="1611" y="424" type="line" smooth="yes"/>
      <point x="1611" y="163"/>
      <point x="1431" y="34"/>
      <point x="1140" y="34" type="curve" smooth="yes"/>
      <point x="1018" y="34" type="line"/>
      <point x="1024" y="22" type="line"/>
      <point x="1024" y="179" type="line" smooth="yes"/>
      <point x="1024" y="427"/>
      <point x="863" y="555"/>
      <point x="616" y="555" type="curve" smooth="yes"/>
      <point x="347" y="555"/>
      <point x="205" y="423"/>
      <point x="205" y="186" type="curve" smooth="yes"/>
      <point x="205" y="147" type="line" smooth="yes"/>
      <point x="205" y="101"/>
      <point x="205" y="52"/>
    </contour>
  </outline>
</glyph>
<glyph name="VowelAi.bn" format="2">
  <advance width="2273"/>
  <unicode hex="0990"/>
  <anchor x="1909" y="1437" name="top2"/>
  <outline>
    <contour>
      <point x="1686" y="564" type="curve" smooth="yes"/>
      <point x="2017" y="564"/>
      <point x="2196" y="717"/>
      <point x="2196" y="1002" type="curve" smooth="yes"/>
      <point x="2196" y="1017" type="line" smooth="yes"/>
      <point x="2196" y="1315"/>
      <point x="1992" y="1485"/>
      <point x="1594" y="1532" type="curve" smooth="yes"/>
      <point x="1183" y="1581" type="line" smooth="yes"/>
      <point x="968" y="1607"/>
      <point x="863" y="1671"/>
      <point x="863" y="1809" type="curve" smooth="yes"/>
      <point x="863" y="1836" type="line"/>
      <point x="830" y="1836" type="line"/>
      <point x="830" y="1809" type="line" smooth="yes"/>
      <point x="830" y="1655"/>
      <point x="941" y="1575"/>
      <point x="1176" y="1547" type="curve" smooth="yes"/>
      <point x="1587" y="1498" type="line" smooth="yes"/>
      <point x="1975" y="1452"/>
      <point x="2159" y="1292"/>
      <point x="2159" y="1017" type="curve" smooth="yes"/>
      <point x="2159" y="1002" type="line" smooth="yes"/>
      <point x="2159" y="740"/>
      <point x="1989" y="597"/>
      <point x="1674" y="597" type="curve" smooth="yes"/>
      <point x="1660" y="597"/>
      <point x="1640" y="596"/>
      <point x="1625" y="601" type="curve"/>
      <point x="1624" y="565" type="line"/>
      <point x="1645" y="565" type="line"/>
      <point x="1651" y="564"/>
      <point x="1668" y="564"/>
    </contour>
    <contour>
      <point x="1160" y="623" type="curve"/>
      <point x="1167" y="657" type="line"/>
      <point x="1091" y="648"/>
      <point x="1013" y="639"/>
      <point x="908" y="639" type="curve" smooth="yes"/>
      <point x="703" y="639"/>
      <point x="590" y="708"/>
      <point x="590" y="851" type="curve" smooth="yes"/>
      <point x="590" y="930"/>
      <point x="628" y="996"/>
      <point x="688" y="1047" type="curve" smooth="yes"/>
      <point x="796" y="1138"/>
      <point x="976" y="1184"/>
      <point x="1141" y="1184" type="curve" smooth="yes"/>
      <point x="1444" y="1184"/>
      <point x="1595" y="1060"/>
      <point x="1595" y="780" type="curve" smooth="yes"/>
      <point x="1595" y="209" type="line"/>
      <point x="1599" y="40" type="line"/>
      <point x="1600" y="-9" type="line"/>
      <point x="1631" y="-9" type="line"/>
      <point x="1631" y="778" type="line" smooth="yes"/>
      <point x="1631" y="1082"/>
      <point x="1466" y="1218"/>
      <point x="1141" y="1218" type="curve" smooth="yes"/>
      <point x="961" y="1218"/>
      <point x="777" y="1171"/>
      <point x="663" y="1076" type="curve" smooth="yes"/>
      <point x="595" y="1019"/>
      <point x="553" y="945"/>
      <point x="553" y="852" type="curve" smooth="yes"/>
      <point x="553" y="687"/>
      <point x="675" y="605"/>
      <point x="909" y="605" type="curve" smooth="yes"/>
      <point x="1012" y="605"/>
      <point x="1087" y="614"/>
    </contour>
    <contour>
      <point x="1600" y="-9" type="line"/>
      <point x="1619" y="47" type="line"/>
      <point x="1605" y="47" type="line"/>
      <point x="1570" y="161"/>
      <point x="1471" y="214"/>
      <point x="1300" y="214" type="curve" smooth="yes"/>
      <point x="619" y="214" type="line" smooth="yes"/>
      <point x="349" y="214"/>
      <point x="208" y="325"/>
      <point x="208" y="589" type="curve" smooth="yes"/>
      <point x="208" y="679" type="line"/>
      <point x="172" y="679" type="line"/>
      <point x="172" y="671"/>
      <point x="172" y="640"/>
      <point x="172" y="589" type="curve" smooth="yes"/>
      <point x="172" y="305"/>
      <point x="323" y="179"/>
      <point x="619" y="179" type="curve" smooth="yes"/>
      <point x="1313" y="179" type="line" smooth="yes"/>
      <point x="1475" y="179"/>
      <point x="1539" y="129"/>
      <point x="1582" y="32" type="curve" smooth="yes"/>
    </contour>
  </outline>
</glyph>
<glyph name="VowelO.bn" format="2">
	<advance width="1731"/>
	<unicode hex="0993"/>
	<anchor x="590" y="1776" name="top2"/>
	<outline>
		<contour>
			<point x="204" y="613" type="line"/>
			<point x="222" y="489" type="line" smooth="yes"/>
			<point x="269" y="192"/>
			<point x="504" y="21"/>
			<point x="937" y="21" type="curve" smooth="yes"/>
			<point x="1328" y="21"/>
			<point x="1500" y="126"/>
			<point x="1500" y="341" type="curve" smooth="yes"/>
			<point x="1500" y="346" type="line" smooth="yes"/>
			<point x="1500" y="485"/>
			<point x="1388" y="586"/>
			<point x="1172" y="603" type="curve"/>
			<point x="1172" y="607" type="line"/>
			<point x="1382" y="626"/>
			<point x="1478" y="733"/>
			<point x="1478" y="889" type="curve" smooth="yes"/>
			<point x="1478" y="894" type="line" smooth="yes"/>
			<point x="1478" y="1104"/>
			<point x="1302" y="1219"/>
			<point x="972" y="1219" type="curve" smooth="yes"/>
			<point x="617" y="1219"/>
			<point x="430" y="1107"/>
			<point x="430" y="890" type="curve" smooth="yes"/>
			<point x="430" y="870"/>
			<point x="432" y="854"/>
			<point x="435" y="837" type="curve"/>
			<point x="471" y="837" type="line"/>
			<point x="469" y="854"/>
			<point x="467" y="870"/>
			<point x="467" y="890" type="curve" smooth="yes"/>
			<point x="467" y="1085"/>
			<point x="642" y="1185"/>
			<point x="974" y="1185" type="curve" smooth="yes"/>
			<point x="1278" y="1185"/>
			<point x="1441" y="1084"/>
			<point x="1441" y="894" type="curve" smooth="yes"/>
			<point x="1441" y="889" type="line" smooth="yes"/>
			<point x="1441" y="715"/>
			<point x="1299" y="625"/>
			<point x="1034" y="623" type="curve" smooth="yes"/>
			<point x="817" y="621" type="line"/>
			<point x="817" y="589" type="line"/>
			<point x="1034" y="587" type="line" smooth="yes"/>
			<point x="1313" y="584"/>
			<point x="1463" y="503"/>
			<point x="1463" y="346" type="curve" smooth="yes"/>
			<point x="1463" y="341" type="line" smooth="yes"/>
			<point x="1463" y="150"/>
			<point x="1303" y="56"/>
			<point x="937" y="56" type="curve" smooth="yes"/>
			<point x="533" y="56"/>
			<point x="301" y="207"/>
			<point x="257" y="492" type="curve" smooth="yes"/>
			<point x="240" y="613" type="line"/>
		</contour>
	</outline>
</glyph>
<glyph name="VowelAu.bn" format="2">
  <advance width="2066"/>
  <unicode hex="0994"/>
  <anchor x="1740" y="1437" name="top2"/>
  <outline>
    <contour>
      <point x="1376" y="591" type="curve" smooth="yes"/>
      <point x="1792" y="591"/>
      <point x="1989" y="732"/>
      <point x="1989" y="1020" type="curve" smooth="yes"/>
      <point x="1989" y="1025" type="line" smooth="yes"/>
      <point x="1989" y="1315"/>
      <point x="1787" y="1484"/>
      <point x="1387" y="1532" type="curve" smooth="yes"/>
      <point x="976" y="1581" type="line" smooth="yes"/>
      <point x="761" y="1607"/>
      <point x="656" y="1671"/>
      <point x="656" y="1809" type="curve" smooth="yes"/>
      <point x="656" y="1836" type="line"/>
      <point x="623" y="1836" type="line"/>
      <point x="623" y="1809" type="line" smooth="yes"/>
      <point x="623" y="1655"/>
      <point x="734" y="1575"/>
      <point x="970" y="1547" type="curve" smooth="yes"/>
      <point x="1380" y="1498" type="line" smooth="yes"/>
      <point x="1770" y="1451"/>
      <point x="1952" y="1294"/>
      <point x="1952" y="1025" type="curve" smooth="yes"/>
      <point x="1952" y="1020" type="line" smooth="yes"/>
      <point x="1952" y="751"/>
      <point x="1764" y="624"/>
      <point x="1364" y="624" type="curve" smooth="yes"/>
      <point x="1312" y="624"/>
      <point x="1240" y="624"/>
      <point x="1185" y="625" type="curve"/>
      <point x="1147" y="607" type="line"/>
      <point x="1169" y="604" type="line"/>
      <point x="1199" y="599"/>
      <point x="1284" y="591"/>
    </contour>
    <contour>
      <point x="204" y="613" type="line"/>
      <point x="222" y="489" type="line" smooth="yes"/>
      <point x="265" y="191"/>
      <point x="504" y="21"/>
      <point x="937" y="21" type="curve" smooth="yes"/>
      <point x="1328" y="21"/>
      <point x="1500" y="126"/>
      <point x="1500" y="341" type="curve" smooth="yes"/>
      <point x="1500" y="347" type="line" smooth="yes"/>
      <point x="1500" y="486"/>
      <point x="1388" y="587"/>
      <point x="1172" y="604" type="curve"/>
      <point x="1172" y="607" type="line"/>
      <point x="1382" y="626"/>
      <point x="1478" y="733"/>
      <point x="1478" y="889" type="curve" smooth="yes"/>
      <point x="1478" y="895" type="line" smooth="yes"/>
      <point x="1478" y="1104"/>
      <point x="1302" y="1219"/>
      <point x="972" y="1219" type="curve" smooth="yes"/>
      <point x="617" y="1219"/>
      <point x="430" y="1107"/>
      <point x="430" y="890" type="curve" smooth="yes"/>
      <point x="430" y="870"/>
      <point x="432" y="854"/>
      <point x="435" y="837" type="curve"/>
      <point x="471" y="837" type="line"/>
      <point x="469" y="854"/>
      <point x="467" y="870"/>
      <point x="467" y="890" type="curve" smooth="yes"/>
      <point x="467" y="1085"/>
      <point x="642" y="1185"/>
      <point x="974" y="1185" type="curve" smooth="yes"/>
      <point x="1278" y="1185"/>
      <point x="1441" y="1084"/>
      <point x="1441" y="895" type="curve" smooth="yes"/>
      <point x="1441" y="889" type="line" smooth="yes"/>
      <point x="1441" y="715"/>
      <point x="1299" y="625"/>
      <point x="1034" y="623" type="curve" smooth="yes"/>
      <point x="817" y="621" type="line"/>
      <point x="817" y="589" type="line"/>
      <point x="1034" y="587" type="line" smooth="yes"/>
      <point x="1313" y="584"/>
      <point x="1463" y="503"/>
      <point x="1463" y="347" type="curve" smooth="yes"/>
      <point x="1463" y="341" type="line" smooth="yes"/>
      <point x="1463" y="150"/>
      <point x="1303" y="56"/>
      <point x="937" y="56" type="curve" smooth="yes"/>
      <point x="533" y="56"/>
      <point x="297" y="206"/>
      <point x="257" y="492" type="curve" smooth="yes"/>
      <point x="240" y="613" type="line"/>
    </contour>
  </outline>
</glyph>
<glyph name="Gha.bn" format="2">
  <advance width="1766"/>
  <unicode hex="0998"/>
  <anchor x="1466" y="0" name="bottom1"/>
  <anchor x="1426" y="1403" name="top"/>
  <anchor x="1070" y="1776" name="top2"/>
  <outline>
    <contour>
      <point x="1466" y="0" type="line"/>
      <point x="1466" y="1188" type="line"/>
      <point x="1430" y="1188" type="line"/>
      <point x="1430" y="160" type="line"/>
      <point x="1432" y="24" type="line"/>
      <point x="1439" y="34" type="line"/>
      <point x="310" y="345" type="line"/>
      <point x="324" y="318" type="line"/>
      <point x="324" y="602" type="line"/>
      <point x="310" y="593" type="line"/>
      <point x="982" y="757" type="line"/>
      <point x="978" y="788" type="line"/>
      <point x="288" y="622" type="line"/>
      <point x="288" y="315" type="line"/>
      <point x="1436" y="0" type="line"/>
    </contour>
    <contour>
      <point x="574" y="1179" type="curve"/>
      <point x="539" y="1203" type="line"/>
      <point x="343" y="1203"/>
      <point x="232" y="1114"/>
      <point x="232" y="965" type="curve" smooth="yes"/>
      <point x="232" y="963" type="line" smooth="yes"/>
      <point x="232" y="790"/>
      <point x="378" y="698"/>
      <point x="643" y="698" type="curve"/>
      <point x="643" y="687" type="line"/>
      <point x="978" y="788" type="line"/>
      <point x="838" y="756"/>
      <point x="724" y="728"/>
      <point x="643" y="728" type="curve" smooth="yes"/>
      <point x="406" y="728"/>
      <point x="269" y="810"/>
      <point x="269" y="960" type="curve" smooth="yes"/>
      <point x="269" y="961" type="line" smooth="yes"/>
      <point x="269" y="1099"/>
      <point x="371" y="1179"/>
    </contour>
    <contour>
      <point x="-42" y="1177" type="line"/>
      <point x="1466" y="1177" type="line"/>
      <point x="1466" y="1208" type="line"/>
      <point x="-48" y="1208" type="line"/>
    </contour>
    <contour>
      <point x="1443" y="1199" type="line"/>
      <point x="1443" y="912" type="line"/>
      <point x="1466" y="912" type="line"/>
      <point x="1466" y="1199" type="line"/>
    </contour>
    <contour>
      <point x="1443" y="1177" type="line"/>
      <point x="1828" y="1177" type="line"/>
      <point x="1822" y="1208" type="line"/>
      <point x="1443" y="1208" type="line"/>
    </contour>
  </outline>
</glyph>
<glyph name="Ja.bn" format="2">
  <advance width="2420"/>
  <unicode hex="099C"/>
  <note>
Ja.bn
</note>
  <anchor x="2119" y="279" name="bottom1"/>
  <anchor x="1424" y="1403" name="top"/>
  <anchor x="1004" y="1776" name="top2"/>
  <outline>
    <contour>
      <point x="1003" y="20" type="curve" smooth="yes"/>
      <point x="1410" y="20"/>
      <point x="1625" y="168"/>
      <point x="1625" y="453" type="curve" smooth="yes"/>
      <point x="1625" y="525"/>
      <point x="1616" y="602"/>
      <point x="1599" y="668" type="curve"/>
      <point x="1574" y="682" type="line"/>
      <point x="1413" y="616" type="line" smooth="yes"/>
      <point x="1280" y="561"/>
      <point x="1174" y="542"/>
      <point x="1052" y="542" type="curve" smooth="yes"/>
      <point x="892" y="542"/>
      <point x="802" y="609"/>
      <point x="802" y="737" type="curve" smooth="yes"/>
      <point x="802" y="743" type="line" smooth="yes"/>
      <point x="802" y="927"/>
      <point x="1057" y="1060"/>
      <point x="1390" y="1172" type="curve"/>
      <point x="1382" y="1183" type="line"/>
      <point x="1373" y="1199" type="line"/>
      <point x="1012" y="1079"/>
      <point x="765" y="943"/>
      <point x="765" y="741" type="curve" smooth="yes"/>
      <point x="765" y="737" type="line" smooth="yes"/>
      <point x="765" y="586"/>
      <point x="869" y="508"/>
      <point x="1057" y="508" type="curve" smooth="yes"/>
      <point x="1183" y="508"/>
      <point x="1296" y="531"/>
      <point x="1427" y="584" type="curve" smooth="yes"/>
      <point x="1585" y="648" type="line"/>
      <point x="1568" y="661" type="line"/>
      <point x="1583" y="577"/>
      <point x="1588" y="505"/>
      <point x="1588" y="453" type="curve" smooth="yes"/>
      <point x="1588" y="192"/>
      <point x="1384" y="55"/>
      <point x="1001" y="55" type="curve" smooth="yes"/>
      <point x="571" y="55"/>
      <point x="322" y="263"/>
      <point x="277" y="650" type="curve" smooth="yes"/>
      <point x="252" y="866" type="line"/>
      <point x="216" y="866" type="line"/>
      <point x="241" y="646" type="line" smooth="yes"/>
      <point x="287" y="239"/>
      <point x="554" y="20"/>
    </contour>
    <contour>
      <point x="2089" y="-10" type="curve"/>
      <point x="2125" y="-10" type="line"/>
      <point x="2122" y="57"/>
      <point x="2119" y="120"/>
      <point x="2119" y="279" type="curve" smooth="yes"/>
      <point x="2119" y="488"/>
      <point x="2152" y="665"/>
      <point x="2200" y="836" type="curve"/>
      <point x="1823" y="880"/>
      <point x="1550" y="1000"/>
      <point x="1380" y="1194" type="curve"/>
      <point x="1355" y="1170" type="line"/>
      <point x="1525" y="974"/>
      <point x="1799" y="854"/>
      <point x="2172" y="804" type="curve"/>
      <point x="2163" y="827" type="line"/>
      <point x="2113" y="653"/>
      <point x="2082" y="481"/>
      <point x="2082" y="279" type="curve" smooth="yes"/>
      <point x="2082" y="137"/>
      <point x="2086" y="63"/>
    </contour>
    <contour>
      <point x="-58" y="1177" type="line"/>
      <point x="2500" y="1177" type="line"/>
      <point x="2494" y="1208" type="line"/>
      <point x="-64" y="1208" type="line"/>
    </contour>
  </outline>
</glyph>
<glyph name="Nya.bn" format="2">
	<advance width="2711"/>
	<unicode hex="099E"/>
	<anchor x="1651" y="-9" name="bottom1"/>
	<anchor x="1610" y="1403" name="top"/>
	<anchor x="1258" y="1776" name="top2"/>
	<outline>
		<contour>
			<point x="2115" y="273" type="curve" smooth="yes"/>
			<point x="2372" y="273"/>
			<point x="2509" y="352"/>
			<point x="2509" y="505" type="curve" smooth="yes"/>
			<point x="2509" y="511" type="line" smooth="yes"/>
			<point x="2509" y="618"/>
			<point x="2427" y="679"/>
			<point x="2321" y="691" type="curve"/>
			<point x="2321" y="695" type="line"/>
			<point x="2428" y="707"/>
			<point x="2509" y="768"/>
			<point x="2509" y="875" type="curve" smooth="yes"/>
			<point x="2509" y="880" type="line" smooth="yes"/>
			<point x="2509" y="1032"/>
			<point x="2370" y="1114"/>
			<point x="2115" y="1114" type="curve" smooth="yes"/>
			<point x="1849" y="1114"/>
			<point x="1680" y="1031"/>
			<point x="1618" y="875" type="curve"/>
			<point x="1609" y="875" type="line"/>
			<point x="1609" y="834" type="line"/>
			<point x="1629" y="834" type="line"/>
			<point x="1694" y="1001"/>
			<point x="1854" y="1083"/>
			<point x="2115" y="1083" type="curve" smooth="yes"/>
			<point x="2350" y="1083"/>
			<point x="2473" y="1011"/>
			<point x="2473" y="880" type="curve" smooth="yes"/>
			<point x="2473" y="875" type="line" smooth="yes"/>
			<point x="2473" y="766"/>
			<point x="2387" y="711"/>
			<point x="2212" y="709" type="curve" smooth="yes"/>
			<point x="2040" y="707" type="line"/>
			<point x="2040" y="678" type="line"/>
			<point x="2212" y="677" type="line" smooth="yes"/>
			<point x="2387" y="676"/>
			<point x="2473" y="621"/>
			<point x="2473" y="511" type="curve" smooth="yes"/>
			<point x="2473" y="505" type="line" smooth="yes"/>
			<point x="2473" y="373"/>
			<point x="2350" y="304"/>
			<point x="2115" y="304" type="curve" smooth="yes"/>
			<point x="1854" y="304"/>
			<point x="1694" y="386"/>
			<point x="1629" y="553" type="curve"/>
			<point x="1609" y="553" type="line"/>
			<point x="1609" y="512" type="line"/>
			<point x="1618" y="512" type="line"/>
			<point x="1676" y="364"/>
			<point x="1847" y="273"/>
		</contour>
		<contour>
			<point x="1160" y="623" type="curve"/>
			<point x="1167" y="657" type="line"/>
			<point x="1091" y="648"/>
			<point x="1013" y="639"/>
			<point x="908" y="639" type="curve" smooth="yes"/>
			<point x="703" y="639"/>
			<point x="590" y="708"/>
			<point x="590" y="851" type="curve" smooth="yes"/>
			<point x="590" y="930"/>
			<point x="628" y="996"/>
			<point x="688" y="1047" type="curve" smooth="yes"/>
			<point x="796" y="1138"/>
			<point x="976" y="1184"/>
			<point x="1141" y="1184" type="curve" smooth="yes"/>
			<point x="1444" y="1184"/>
			<point x="1595" y="1060"/>
			<point x="1595" y="780" type="curve" smooth="yes"/>
			<point x="1595" y="209" type="line"/>
			<point x="1599" y="40" type="line"/>
			<point x="1600" y="-9" type="line"/>
			<point x="1631" y="-9" type="line"/>
			<point x="1631" y="778" type="line" smooth="yes"/>
			<point x="1631" y="1082"/>
			<point x="1466" y="1218"/>
			<point x="1141" y="1218" type="curve" smooth="yes"/>
			<point x="961" y="1218"/>
			<point x="777" y="1171"/>
			<point x="663" y="1076" type="curve" smooth="yes"/>
			<point x="595" y="1019"/>
			<point x="553" y="945"/>
			<point x="553" y="852" type="curve" smooth="yes"/>
			<point x="553" y="687"/>
			<point x="675" y="605"/>
			<point x="909" y="605" type="curve" smooth="yes"/>
			<point x="1012" y="605"/>
			<point x="1087" y="614"/>
		</contour>
		<contour>
			<point x="1582" y="32" type="curve" smooth="yes"/>
			<point x="1600" y="-9" type="line"/>
			<point x="1619" y="47" type="line"/>
			<point x="1605" y="47" type="line"/>
			<point x="1570" y="161"/>
			<point x="1471" y="214"/>
			<point x="1300" y="214" type="curve" smooth="yes"/>
			<point x="619" y="214" type="line" smooth="yes"/>
			<point x="349" y="214"/>
			<point x="208" y="325"/>
			<point x="208" y="589" type="curve" smooth="yes"/>
			<point x="208" y="679" type="line"/>
			<point x="172" y="679" type="line"/>
			<point x="172" y="671"/>
			<point x="172" y="640"/>
			<point x="172" y="589" type="curve" smooth="yes"/>
			<point x="172" y="305"/>
			<point x="323" y="179"/>
			<point x="619" y="179" type="curve" smooth="yes"/>
			<point x="1313" y="179" type="line" smooth="yes"/>
			<point x="1475" y="179"/>
			<point x="1539" y="129"/>
		</contour>
	</outline>
</glyph>
<glyph name="Tta.bn" format="2">
  <advance width="1684"/>
  <unicode hex="099F"/>
  <anchor x="1098" y="182" name="bottom1"/>
  <anchor x="1145" y="1561" name="top"/>
  <anchor x="1312" y="1519" name="top2"/>
  <outline>
    <contour>
      <point x="814" y="20" type="curve" smooth="yes"/>
      <point x="1016" y="20"/>
      <point x="1211" y="71"/>
      <point x="1342" y="171" type="curve" smooth="yes"/>
      <point x="1440" y="247"/>
      <point x="1502" y="351"/>
      <point x="1502" y="484" type="curve" smooth="yes"/>
      <point x="1502" y="675"/>
      <point x="1379" y="778"/>
      <point x="1043" y="778" type="curve" smooth="yes"/>
      <point x="925" y="778"/>
      <point x="833" y="769"/>
      <point x="719" y="753" type="curve"/>
      <point x="712" y="718" type="line"/>
      <point x="822" y="736"/>
      <point x="921" y="744"/>
      <point x="1045" y="744" type="curve" smooth="yes"/>
      <point x="1360" y="744"/>
      <point x="1466" y="653"/>
      <point x="1466" y="484" type="curve" smooth="yes"/>
      <point x="1466" y="360"/>
      <point x="1405" y="263"/>
      <point x="1309" y="193" type="curve" smooth="yes"/>
      <point x="1183" y="101"/>
      <point x="999" y="55"/>
      <point x="814" y="55" type="curve" smooth="yes"/>
      <point x="472" y="55"/>
      <point x="305" y="189"/>
      <point x="305" y="464" type="curve" smooth="yes"/>
      <point x="305" y="1190" type="line"/>
      <point x="269" y="1190" type="line"/>
      <point x="269" y="470" type="line" smooth="yes"/>
      <point x="269" y="168"/>
      <point x="448" y="20"/>
    </contour>
    <contour>
      <point x="-79" y="1177" type="line"/>
      <point x="1716" y="1177" type="line"/>
      <point x="1710" y="1208" type="line"/>
      <point x="-85" y="1208" type="line"/>
    </contour>
    <contour>
      <point x="1481" y="1205" type="line"/>
      <point x="1497" y="1238"/>
      <point x="1505" y="1277"/>
      <point x="1505" y="1325" type="curve" smooth="yes"/>
      <point x="1505" y="1492"/>
      <point x="1395" y="1570"/>
      <point x="1184" y="1570" type="curve" smooth="yes"/>
      <point x="533" y="1570" type="line" smooth="yes"/>
      <point x="357" y="1570"/>
      <point x="272" y="1630"/>
      <point x="272" y="1756" type="curve" smooth="yes"/>
      <point x="272" y="1774" type="line"/>
      <point x="241" y="1774" type="line"/>
      <point x="241" y="1756" type="line" smooth="yes"/>
      <point x="241" y="1611"/>
      <point x="339" y="1539"/>
      <point x="533" y="1539" type="curve" smooth="yes"/>
      <point x="1184" y="1539" type="line" smooth="yes"/>
      <point x="1382" y="1539"/>
      <point x="1472" y="1474"/>
      <point x="1472" y="1323" type="curve" smooth="yes"/>
      <point x="1472" y="1275"/>
      <point x="1463" y="1232"/>
      <point x="1445" y="1190" type="curve"/>
      <point x="1471" y="1190" type="line"/>
    </contour>
  </outline>
</glyph>
<glyph name="Dda.bn" format="2">
  <advance width="1942"/>
  <unicode hex="09A1"/>
  <note>
Dda.bn
</note>
  <anchor x="1197" y="182" name="bottom1"/>
  <anchor x="859" y="1403" name="top"/>
  <anchor x="591" y="1776" name="top2"/>
  <outline>
    <contour>
      <point x="252" y="866" type="line"/>
      <point x="216" y="866" type="line"/>
      <point x="241" y="646" type="line" smooth="yes"/>
      <point x="288" y="236"/>
      <point x="559" y="20"/>
      <point x="1033" y="20" type="curve" smooth="yes"/>
      <point x="1483" y="20"/>
      <point x="1719" y="208"/>
      <point x="1719" y="564" type="curve" smooth="yes"/>
      <point x="1719" y="670"/>
      <point x="1705" y="748"/>
      <point x="1672" y="835" type="curve"/>
      <point x="1634" y="839" type="line"/>
      <point x="1510" y="757" type="line" smooth="yes"/>
      <point x="1372" y="666"/>
      <point x="1253" y="612"/>
      <point x="1118" y="612" type="curve" smooth="yes"/>
      <point x="964" y="612"/>
      <point x="889" y="691"/>
      <point x="889" y="852" type="curve" smooth="yes"/>
      <point x="889" y="1196" type="line"/>
      <point x="854" y="1196" type="line"/>
      <point x="854" y="852" type="line" smooth="yes"/>
      <point x="854" y="667"/>
      <point x="941" y="577"/>
      <point x="1120" y="577" type="curve" smooth="yes"/>
      <point x="1263" y="577"/>
      <point x="1388" y="634"/>
      <point x="1532" y="729" type="curve" smooth="yes"/>
      <point x="1650" y="807" type="line"/>
      <point x="1642" y="815" type="line"/>
      <point x="1671" y="741"/>
      <point x="1682" y="650"/>
      <point x="1682" y="564" type="curve" smooth="yes"/>
      <point x="1682" y="233"/>
      <point x="1458" y="56"/>
      <point x="1033" y="56" type="curve" smooth="yes"/>
      <point x="581" y="56"/>
      <point x="322" y="261"/>
      <point x="277" y="650" type="curve" smooth="yes"/>
    </contour>
    <contour>
      <point x="-58" y="1177" type="line"/>
      <point x="1974" y="1177" type="line"/>
      <point x="1968" y="1208" type="line"/>
      <point x="-64" y="1208" type="line"/>
    </contour>
  </outline>
</glyph>
<glyph name="Nna.bn" format="2">
  <advance width="1690"/>
  <unicode hex="09A3"/>
  <anchor x="1390" y="200" name="bottom1"/>
  <anchor x="1350" y="1403" name="top"/>
  <anchor x="994" y="1776" name="top2"/>
  <outline>
    <contour>
      <point x="662" y="504" type="curve" smooth="yes"/>
      <point x="746" y="504"/>
      <point x="819" y="512"/>
      <point x="884" y="528" type="curve"/>
      <point x="888" y="562" type="line"/>
      <point x="827" y="547"/>
      <point x="753" y="539"/>
      <point x="662" y="539" type="curve" smooth="yes"/>
      <point x="367" y="539"/>
      <point x="222" y="638"/>
      <point x="222" y="841" type="curve" smooth="yes"/>
      <point x="222" y="846" type="line" smooth="yes"/>
      <point x="222" y="1065"/>
      <point x="401" y="1187"/>
      <point x="736" y="1187" type="curve" smooth="yes"/>
      <point x="1064" y="1187"/>
      <point x="1272" y="1060"/>
      <point x="1363" y="792" type="curve"/>
      <point x="1390" y="812" type="line"/>
      <point x="1379" y="814" type="line"/>
      <point x="1303" y="1082"/>
      <point x="1083" y="1221"/>
      <point x="730" y="1221" type="curve" smooth="yes"/>
      <point x="374" y="1221"/>
      <point x="185" y="1088"/>
      <point x="185" y="846" type="curve" smooth="yes"/>
      <point x="185" y="841" type="line" smooth="yes"/>
      <point x="185" y="620"/>
      <point x="347" y="504"/>
    </contour>
    <contour>
      <point x="1354" y="0" type="line"/>
      <point x="1390" y="0" type="line"/>
      <point x="1390" y="1208" type="line"/>
      <point x="1356" y="1208" type="line"/>
      <point x="1356" y="826" type="line"/>
      <point x="1354" y="826" type="line"/>
    </contour>
    <contour>
      <point x="1367" y="1199" type="line"/>
      <point x="1367" y="912" type="line"/>
      <point x="1390" y="912" type="line"/>
      <point x="1390" y="1199" type="line"/>
    </contour>
    <contour>
      <point x="1367" y="1177" type="line"/>
      <point x="1752" y="1177" type="line"/>
      <point x="1746" y="1208" type="line"/>
      <point x="1367" y="1208" type="line"/>
    </contour>
  </outline>
</glyph>
<glyph name="Da.bn" format="2">
  <advance width="1714"/>
  <unicode hex="09A6"/>
  <note>
Da.bn
</note>
  <anchor x="1428" y="0" name="bottom1"/>
  <anchor x="289" y="1403" name="top"/>
  <anchor x="499" y="1776" name="top2"/>
  <outline>
    <contour>
      <point x="-101" y="1177" type="line"/>
      <point x="1756" y="1177" type="line"/>
      <point x="1750" y="1208" type="line"/>
      <point x="-107" y="1208" type="line"/>
    </contour>
    <contour>
      <point x="1392" y="-38" type="line"/>
      <point x="1428" y="-38" type="line"/>
      <point x="1428" y="897" type="line"/>
      <point x="1388" y="897" type="line"/>
      <point x="985" y="729"/>
      <point x="633" y="533"/>
      <point x="316" y="299" type="curve"/>
      <point x="329" y="297" type="line"/>
      <point x="329" y="606" type="line"/>
      <point x="329" y="1196" type="line"/>
      <point x="293" y="1196" type="line"/>
      <point x="293" y="268" type="line"/>
      <point x="333" y="268" type="line"/>
      <point x="660" y="505"/>
      <point x="1010" y="701"/>
      <point x="1399" y="866" type="curve"/>
      <point x="1394" y="884" type="line"/>
      <point x="1392" y="613" type="line"/>
    </contour>
  </outline>
</glyph>
<glyph name="Dha.bn" format="2">
  <advance width="1728"/>
  <unicode hex="09A7"/>
  <anchor x="1428" y="0" name="bottom1"/>
  <anchor x="1388" y="1403" name="top"/>
  <anchor x="1032" y="1776" name="top2"/>
  <outline>
    <contour>
      <point x="1397" y="0" type="line"/>
      <point x="1428" y="0" type="line"/>
      <point x="1428" y="1208" type="line"/>
      <point x="1392" y="1208" type="line"/>
      <point x="1392" y="160" type="line"/>
      <point x="1393" y="24" type="line"/>
      <point x="1401" y="34" type="line"/>
      <point x="288" y="341" type="line"/>
      <point x="304" y="313" type="line"/>
      <point x="304" y="615" type="line"/>
      <point x="288" y="586" type="line"/>
      <point x="615" y="694"/>
      <point x="1014" y="777"/>
      <point x="1418" y="848" type="curve"/>
      <point x="1403" y="880" type="line"/>
      <point x="980" y="807"/>
      <point x="593" y="719"/>
      <point x="268" y="617" type="curve"/>
      <point x="268" y="310" type="line"/>
    </contour>
    <contour>
      <point x="622" y="700" type="line"/>
      <point x="857" y="760" type="line"/>
      <point x="783" y="743"/>
      <point x="695" y="736"/>
      <point x="622" y="736" type="curve" smooth="yes"/>
      <point x="459" y="736"/>
      <point x="291" y="787"/>
      <point x="291" y="958" type="curve" smooth="yes"/>
      <point x="291" y="960" type="line" smooth="yes"/>
      <point x="291" y="1104"/>
      <point x="407" y="1187"/>
      <point x="617" y="1187" type="curve" smooth="yes"/>
      <point x="728" y="1187"/>
      <point x="840" y="1162"/>
      <point x="925" y="1097" type="curve"/>
      <point x="929" y="1132" type="line"/>
      <point x="858" y="1193"/>
      <point x="729" y="1221"/>
      <point x="616" y="1221" type="curve" smooth="yes"/>
      <point x="379" y="1221"/>
      <point x="253" y="1125"/>
      <point x="253" y="962" type="curve" smooth="yes"/>
      <point x="253" y="960" type="line" smooth="yes"/>
      <point x="253" y="756"/>
      <point x="455" y="707"/>
      <point x="622" y="707" type="curve"/>
    </contour>
    <contour>
      <point x="1405" y="1199" type="line"/>
      <point x="1405" y="912" type="line"/>
      <point x="1428" y="912" type="line"/>
      <point x="1428" y="1199" type="line"/>
    </contour>
    <contour>
      <point x="1405" y="1177" type="line"/>
      <point x="1790" y="1177" type="line"/>
      <point x="1784" y="1208" type="line"/>
      <point x="1405" y="1208" type="line"/>
    </contour>
  </outline>
</glyph>
<glyph name="Pa.bn" format="2">
  <advance width="1775"/>
  <unicode hex="09AA"/>
  <anchor x="1475" y="200" name="bottom1"/>
  <anchor x="1435" y="1403" name="top"/>
  <anchor x="1079" y="1776" name="top2"/>
  <outline>
    <contour>
      <point x="173" y="818" type="line"/>
      <point x="752" y="521" type="line"/>
      <point x="793" y="538" type="line"/>
      <point x="186" y="850" type="line"/>
      <point x="211" y="816" type="line"/>
      <point x="211" y="824" type="line" smooth="yes"/>
      <point x="211" y="1047"/>
      <point x="427" y="1187"/>
      <point x="777" y="1187" type="curve" smooth="yes"/>
      <point x="1161" y="1187"/>
      <point x="1378" y="1065"/>
      <point x="1439" y="817" type="curve"/>
      <point x="1439" y="779" type="line"/>
      <point x="1457" y="779" type="line"/>
      <point x="1468" y="888" type="line"/>
      <point x="1447" y="888" type="line"/>
      <point x="1387" y="1091"/>
      <point x="1163" y="1221"/>
      <point x="777" y="1221" type="curve" smooth="yes"/>
      <point x="401" y="1221"/>
      <point x="173" y="1071"/>
      <point x="173" y="824" type="curve" smooth="yes"/>
    </contour>
    <contour>
      <point x="338" y="297" type="line"/>
      <point x="1468" y="833" type="line"/>
      <point x="1450" y="863" type="line"/>
      <point x="302" y="320" type="line"/>
    </contour>
    <contour>
      <point x="1439" y="0" type="line"/>
      <point x="1475" y="0" type="line"/>
      <point x="1475" y="1208" type="line"/>
      <point x="1441" y="1208" type="line"/>
      <point x="1441" y="866" type="line"/>
      <point x="1439" y="866" type="line"/>
    </contour>
    <contour>
      <point x="1452" y="1199" type="line"/>
      <point x="1452" y="912" type="line"/>
      <point x="1475" y="912" type="line"/>
      <point x="1475" y="1199" type="line"/>
    </contour>
    <contour>
      <point x="1452" y="1177" type="line"/>
      <point x="1837" y="1177" type="line"/>
      <point x="1831" y="1208" type="line"/>
      <point x="1452" y="1208" type="line"/>
    </contour>
  </outline>
</glyph>
<glyph name="Pha.bn" format="2">
  <advance width="2381"/>
  <unicode hex="09AB"/>
  <anchor x="1424" y="0" name="bottom1"/>
  <anchor x="1404" y="1403" name="top"/>
  <anchor x="1048" y="1776" name="top2"/>
  <outline>
    <contour>
      <point x="-105" y="1177" type="line"/>
      <point x="2424" y="1177" type="line"/>
      <point x="2418" y="1208" type="line"/>
      <point x="-111" y="1208" type="line"/>
    </contour>
    <contour>
      <point x="1393" y="0" type="line"/>
      <point x="1424" y="0" type="line"/>
      <point x="1424" y="899" type="line"/>
      <point x="1389" y="899" type="line"/>
      <point x="1389" y="160" type="line"/>
      <point x="1390" y="24" type="line"/>
      <point x="1396" y="33" type="line"/>
      <point x="274" y="343" type="line"/>
      <point x="288" y="318" type="line"/>
      <point x="288" y="587" type="line"/>
      <point x="274" y="565" type="line"/>
      <point x="897" y="765" type="line"/>
      <point x="897" y="794" type="line"/>
      <point x="633" y="943"/>
      <point x="454" y="1036"/>
      <point x="174" y="1183" type="curve"/>
      <point x="161" y="1183" type="line"/>
      <point x="161" y="1150" type="line"/>
      <point x="847" y="787" type="line"/>
      <point x="847" y="785" type="line"/>
      <point x="252" y="592" type="line"/>
      <point x="252" y="315" type="line"/>
    </contour>
    <contour>
      <point x="1685" y="376" type="curve"/>
      <point x="1692" y="339" type="line"/>
      <point x="1728" y="337"/>
      <point x="1769" y="336"/>
      <point x="1801" y="336" type="curve" smooth="yes"/>
      <point x="2088" y="336"/>
      <point x="2228" y="428"/>
      <point x="2228" y="615" type="curve" smooth="yes"/>
      <point x="2228" y="618" type="line" smooth="yes"/>
      <point x="2228" y="805"/>
      <point x="2084" y="899"/>
      <point x="1794" y="899" type="curve" smooth="yes"/>
      <point x="1418" y="899" type="line"/>
      <point x="1418" y="867" type="line"/>
      <point x="1800" y="867" type="line" smooth="yes"/>
      <point x="2063" y="867"/>
      <point x="2192" y="786"/>
      <point x="2192" y="620" type="curve" smooth="yes"/>
      <point x="2192" y="616" type="line" smooth="yes"/>
      <point x="2192" y="451"/>
      <point x="2063" y="370"/>
      <point x="1799" y="370" type="curve" smooth="yes"/>
      <point x="1763" y="370"/>
      <point x="1721" y="372"/>
    </contour>
  </outline>
</glyph>
<glyph name="Bha.bn" format="2">
  <advance width="1941"/>
  <unicode hex="09AD"/>
  <anchor x="1198" y="182" name="bottom1"/>
  <anchor x="1001" y="1403" name="top"/>
  <anchor x="693" y="1776" name="top2"/>
  <outline>
    <contour>
      <point x="1030" y="20" type="curve" smooth="yes"/>
      <point x="1481" y="20"/>
      <point x="1715" y="192"/>
      <point x="1718" y="544" type="curve" smooth="yes"/>
      <point x="1719" y="670"/>
      <point x="1704" y="751"/>
      <point x="1671" y="835" type="curve"/>
      <point x="1633" y="839" type="line"/>
      <point x="1463" y="644"/>
      <point x="1298" y="562"/>
      <point x="1075" y="562" type="curve" smooth="yes"/>
      <point x="874" y="562"/>
      <point x="776" y="627"/>
      <point x="776" y="760" type="curve" smooth="yes"/>
      <point x="776" y="762" type="line" smooth="yes"/>
      <point x="776" y="895"/>
      <point x="873" y="967"/>
      <point x="1057" y="967" type="curve" smooth="yes"/>
      <point x="1093" y="967"/>
      <point x="1137" y="963"/>
      <point x="1167" y="953" type="curve"/>
      <point x="1157" y="986" type="line"/>
      <point x="1125" y="996"/>
      <point x="1086" y="1000"/>
      <point x="1049" y="1000" type="curve" smooth="yes"/>
      <point x="846" y="1000"/>
      <point x="739" y="917"/>
      <point x="739" y="762" type="curve" smooth="yes"/>
      <point x="739" y="760" type="line" smooth="yes"/>
      <point x="739" y="604"/>
      <point x="851" y="528"/>
      <point x="1079" y="528" type="curve" smooth="yes"/>
      <point x="1308" y="528"/>
      <point x="1499" y="621"/>
      <point x="1659" y="818" type="curve"/>
      <point x="1641" y="815" type="line"/>
      <point x="1670" y="741"/>
      <point x="1682" y="647"/>
      <point x="1681" y="544" type="curve" smooth="yes"/>
      <point x="1678" y="220"/>
      <point x="1459" y="56"/>
      <point x="1030" y="56" type="curve" smooth="yes"/>
      <point x="587" y="56"/>
      <point x="324" y="251"/>
      <point x="277" y="651" type="curve" smooth="yes"/>
      <point x="252" y="866" type="line"/>
      <point x="216" y="866" type="line"/>
      <point x="241" y="646" type="line" smooth="yes"/>
      <point x="287" y="239"/>
      <point x="556" y="20"/>
    </contour>
    <contour>
      <point x="-58" y="1177" type="line"/>
      <point x="1973" y="1177" type="line"/>
      <point x="1967" y="1208" type="line"/>
      <point x="-64" y="1208" type="line"/>
    </contour>
  </outline>
</glyph>
<glyph name="Ma.bn" format="2">
  <advance width="1708"/>
  <unicode hex="09AE"/>
  <anchor x="1409" y="200" name="bottom1"/>
  <anchor x="1368" y="1403" name="top"/>
  <anchor x="1012" y="1776" name="top2"/>
  <outline>
    <contour>
      <point x="646" y="107" type="curve" smooth="yes"/>
      <point x="701" y="107"/>
      <point x="752" y="115"/>
      <point x="806" y="126" type="curve"/>
      <point x="810" y="160" type="line"/>
      <point x="754" y="149"/>
      <point x="699" y="142"/>
      <point x="644" y="142" type="curve" smooth="yes"/>
      <point x="404" y="142"/>
      <point x="272" y="233"/>
      <point x="272" y="408" type="curve" smooth="yes"/>
      <point x="272" y="413" type="line" smooth="yes"/>
      <point x="272" y="612"/>
      <point x="441" y="699"/>
      <point x="746" y="699" type="curve" smooth="yes"/>
      <point x="1057" y="699"/>
      <point x="1283" y="575"/>
      <point x="1377" y="342" type="curve"/>
      <point x="1401" y="386" type="line"/>
      <point x="1386" y="386" type="line"/>
      <point x="1309" y="601"/>
      <point x="1068" y="733"/>
      <point x="741" y="733" type="curve" smooth="yes"/>
      <point x="412" y="733"/>
      <point x="235" y="637"/>
      <point x="235" y="415" type="curve" smooth="yes"/>
      <point x="235" y="410" type="line" smooth="yes"/>
      <point x="235" y="213"/>
      <point x="379" y="107"/>
    </contour>
    <contour>
      <point x="517" y="681" type="line"/>
      <point x="541" y="705" type="line"/>
      <point x="391" y="750"/>
      <point x="306" y="857"/>
      <point x="306" y="1026" type="curve" smooth="yes"/>
      <point x="306" y="1196" type="line"/>
      <point x="270" y="1196" type="line"/>
      <point x="270" y="1026" type="line" smooth="yes"/>
      <point x="270" y="841"/>
      <point x="359" y="730"/>
      <point x="517" y="688" type="curve"/>
    </contour>
    <contour>
      <point x="1373" y="0" type="line"/>
      <point x="1409" y="0" type="line"/>
      <point x="1409" y="1194" type="line"/>
      <point x="1373" y="1194" type="line"/>
      <point x="1373" y="531" type="line"/>
      <point x="1375" y="397" type="line"/>
      <point x="1373" y="379" type="line"/>
    </contour>
    <contour>
      <point x="-80" y="1177" type="line"/>
      <point x="1408" y="1177" type="line"/>
      <point x="1408" y="1208" type="line"/>
      <point x="-86" y="1208" type="line"/>
    </contour>
    <contour>
      <point x="1385" y="1199" type="line"/>
      <point x="1385" y="912" type="line"/>
      <point x="1408" y="912" type="line"/>
      <point x="1408" y="1199" type="line"/>
    </contour>
    <contour>
      <point x="1385" y="1177" type="line"/>
      <point x="1770" y="1177" type="line"/>
      <point x="1764" y="1208" type="line"/>
      <point x="1385" y="1208" type="line"/>
    </contour>
  </outline>
</glyph>
<glyph name="La.bn" format="2">
  <advance width="1984"/>
  <unicode hex="09B2"/>
  <anchor x="1684" y="200" name="bottom1"/>
  <anchor x="1644" y="1403" name="top"/>
  <anchor x="1288" y="1776" name="top2"/>
  <outline>
    <contour>
      <point x="621" y="216" type="curve" smooth="yes"/>
      <point x="678" y="216"/>
      <point x="741" y="224"/>
      <point x="795" y="235" type="curve"/>
      <point x="808" y="270" type="line"/>
      <point x="745" y="257"/>
      <point x="684" y="250"/>
      <point x="621" y="250" type="curve" smooth="yes"/>
      <point x="379" y="250"/>
      <point x="251" y="351"/>
      <point x="251" y="542" type="curve" smooth="yes"/>
      <point x="251" y="547" type="line" smooth="yes"/>
      <point x="251" y="741"/>
      <point x="395" y="849"/>
      <point x="626" y="849" type="curve" smooth="yes"/>
      <point x="858" y="849"/>
      <point x="1017" y="751"/>
      <point x="1017" y="561" type="curve" smooth="yes"/>
      <point x="1017" y="510" type="line"/>
      <point x="1051" y="510" type="line"/>
      <point x="1051" y="561" type="line" smooth="yes"/>
      <point x="1051" y="703"/>
      <point x="1097" y="849"/>
      <point x="1362" y="849" type="curve" smooth="yes"/>
      <point x="1512" y="849"/>
      <point x="1621" y="787"/>
      <point x="1650" y="697" type="curve"/>
      <point x="1663" y="746" type="line"/>
      <point x="1654" y="746" type="line"/>
      <point x="1624" y="810"/>
      <point x="1523" y="883"/>
      <point x="1356" y="883" type="curve" smooth="yes"/>
      <point x="1165" y="883"/>
      <point x="1056" y="801"/>
      <point x="1032" y="671" type="curve"/>
      <point x="1031" y="671" type="line"/>
      <point x="994" y="801"/>
      <point x="839" y="883"/>
      <point x="623" y="883" type="curve" smooth="yes"/>
      <point x="373" y="883"/>
      <point x="214" y="764"/>
      <point x="214" y="547" type="curve" smooth="yes"/>
      <point x="214" y="542" type="line" smooth="yes"/>
      <point x="214" y="330"/>
      <point x="357" y="216"/>
    </contour>
    <contour>
      <point x="-54" y="1177" type="line"/>
      <point x="1683" y="1177" type="line"/>
      <point x="1683" y="1208" type="line"/>
      <point x="-60" y="1208" type="line"/>
    </contour>
    <contour>
      <point x="1648" y="0" type="line"/>
      <point x="1684" y="0" type="line"/>
      <point x="1684" y="1194" type="line"/>
      <point x="1648" y="1194" type="line"/>
      <point x="1648" y="952" type="line"/>
      <point x="1650" y="736" type="line"/>
      <point x="1648" y="727" type="line"/>
    </contour>
    <contour>
      <point x="1661" y="1199" type="line"/>
      <point x="1661" y="912" type="line"/>
      <point x="1684" y="912" type="line"/>
      <point x="1684" y="1199" type="line"/>
    </contour>
    <contour>
      <point x="1661" y="1177" type="line"/>
      <point x="2046" y="1177" type="line"/>
      <point x="2040" y="1208" type="line"/>
      <point x="1661" y="1208" type="line"/>
    </contour>
  </outline>
</glyph>
<glyph name="Sha.bn" format="2">
	<advance width="2031"/>
	<unicode hex="09B6"/>
	<anchor x="1751" y="200" name="bottom1"/>
	<anchor x="1691" y="1403" name="top"/>
	<anchor x="1335" y="1776" name="top2"/>
	<outline>
		<contour>
			<point x="1695" y="0" type="line"/>
			<point x="1731" y="0" type="line"/>
			<point x="1731" y="1208" type="line"/>
			<point x="1697" y="1208" type="line"/>
			<point x="1697" y="828" type="line"/>
			<point x="1695" y="828" type="line"/>
		</contour>
		<contour>
			<point x="726" y="740" type="curve"/>
			<point x="727" y="740" type="line"/>
			<point x="772" y="585"/>
			<point x="905" y="504"/>
			<point x="1124" y="504" type="curve" smooth="yes"/>
			<point x="1205" y="504"/>
			<point x="1276" y="512"/>
			<point x="1340" y="528" type="curve"/>
			<point x="1344" y="563" type="line"/>
			<point x="1284" y="546"/>
			<point x="1216" y="538"/>
			<point x="1136" y="538" type="curve" smooth="yes"/>
			<point x="881" y="538"/>
			<point x="749" y="643"/>
			<point x="749" y="848" type="curve" smooth="yes"/>
			<point x="749" y="853" type="line" smooth="yes"/>
			<point x="749" y="1078"/>
			<point x="893" y="1188"/>
			<point x="1186" y="1188" type="curve" smooth="yes"/>
			<point x="1461" y="1188"/>
			<point x="1630" y="1059"/>
			<point x="1702" y="794" type="curve"/>
			<point x="1726" y="815" type="line"/>
			<point x="1719" y="815" type="line"/>
			<point x="1658" y="1081"/>
			<point x="1475" y="1221"/>
			<point x="1178" y="1221" type="curve" smooth="yes"/>
			<point x="916" y="1221"/>
			<point x="767" y="1133"/>
			<point x="726" y="952" type="curve"/>
			<point x="725" y="952" type="line"/>
			<point x="677" y="1123"/>
			<point x="506" y="1208"/>
			<point x="207" y="1208" type="curve" smooth="yes"/>
			<point x="-64" y="1208" type="line"/>
			<point x="-58" y="1178" type="line"/>
			<point x="209" y="1178" type="line" smooth="yes"/>
			<point x="532" y="1178"/>
			<point x="705" y="1068"/>
			<point x="705" y="853" type="curve" smooth="yes"/>
			<point x="705" y="848" type="line" smooth="yes"/>
			<point x="705" y="642"/>
			<point x="579" y="538"/>
			<point x="336" y="538" type="curve" smooth="yes"/>
			<point x="245" y="538"/>
			<point x="171" y="546"/>
			<point x="112" y="563" type="curve"/>
			<point x="115" y="528" type="line"/>
			<point x="180" y="512"/>
			<point x="253" y="504"/>
			<point x="336" y="504" type="curve" smooth="yes"/>
			<point x="554" y="504"/>
			<point x="689" y="586"/>
		</contour>
		<contour>
			<point x="1708" y="1199" type="line"/>
			<point x="1708" y="912" type="line"/>
			<point x="1731" y="912" type="line"/>
			<point x="1731" y="1199" type="line"/>
		</contour>
		<contour>
			<point x="1708" y="1177" type="line"/>
			<point x="2093" y="1177" type="line"/>
			<point x="2087" y="1208" type="line"/>
			<point x="1708" y="1208" type="line"/>
		</contour>
	</outline>
</glyph>
<glyph name="Ssa.bn" format="2">
	<advance width="1725"/>
	<unicode hex="09B7"/>
	<anchor x="1425" y="0" name="bottom1"/>
	<anchor x="1385" y="1403" name="top"/>
	<anchor x="1029" y="1776" name="top2"/>
	<outline>
		<contour>
			<point x="1402" y="1199" type="line"/>
			<point x="1402" y="912" type="line"/>
			<point x="1425" y="912" type="line"/>
			<point x="1425" y="1199" type="line"/>
		</contour>
		<contour>
			<point x="1402" y="1177" type="line"/>
			<point x="1787" y="1177" type="line"/>
			<point x="1781" y="1208" type="line"/>
			<point x="1402" y="1208" type="line"/>
		</contour>
		<contour>
			<point x="1394" y="0" type="line"/>
			<point x="1425" y="0" type="line"/>
			<point x="1425" y="1188" type="line"/>
			<point x="1389" y="1188" type="line"/>
			<point x="1389" y="160" type="line"/>
			<point x="1390" y="24" type="line"/>
			<point x="1396" y="33" type="line"/>
			<point x="273" y="343" type="line"/>
			<point x="288" y="318" type="line"/>
			<point x="288" y="587" type="line"/>
			<point x="273" y="565" type="line"/>
			<point x="897" y="765" type="line"/>
			<point x="897" y="780" type="line"/>
			<point x="880" y="770" type="line"/>
			<point x="1418" y="484" type="line"/>
			<point x="1413" y="523" type="line"/>
			<point x="899" y="795" type="line"/>
			<point x="627" y="941"/>
			<point x="412" y="1056"/>
			<point x="173" y="1183" type="curve"/>
			<point x="161" y="1183" type="line"/>
			<point x="161" y="1148" type="line"/>
			<point x="848" y="786" type="line"/>
			<point x="848" y="785" type="line"/>
			<point x="252" y="592" type="line"/>
			<point x="252" y="315" type="line"/>
		</contour>
		<contour>
			<point x="-105" y="1177" type="line"/>
			<point x="1425" y="1177" type="line"/>
			<point x="1425" y="1208" type="line"/>
			<point x="-111" y="1208" type="line"/>
		</contour>
	</outline>
</glyph>
<glyph name="Nukta.bn" format="2">
  <unicode hex="09BC"/>
  <outline>
    <contour>
      <point x="-378" y="-205" type="curve" smooth="yes"/>
      <point x="-333" y="-205"/>
      <point x="-312" y="-180"/>
      <point x="-312" y="-149" type="curve" smooth="yes"/>
      <point x="-312" y="-146" type="line" smooth="yes"/>
      <point x="-312" y="-112"/>
      <point x="-333" y="-88"/>
      <point x="-378" y="-88" type="curve" smooth="yes"/>
      <point x="-423" y="-88"/>
      <point x="-444" y="-112"/>
      <point x="-444" y="-146" type="curve" smooth="yes"/>
      <point x="-444" y="-149" type="line" smooth="yes"/>
      <point x="-444" y="-179"/>
      <point x="-423" y="-205"/>
    </contour>
  </outline>
</glyph>
<glyph name="Avagraha.bn" format="2">
	<advance width="1529"/>
	<unicode hex="09BD"/>
	<outline>
		<contour>
			<point x="451" y="926" type="curve" smooth="yes"/>
			<point x="451" y="870" type="line"/>
			<point x="485" y="870" type="line"/>
			<point x="485" y="926" type="line" smooth="yes"/>
			<point x="485" y="1103"/>
			<point x="353" y="1208"/>
			<point x="128" y="1208" type="curve" smooth="yes"/>
			<point x="-74" y="1208" type="line"/>
			<point x="-68" y="1177" type="line"/>
			<point x="128" y="1177" type="line" smooth="yes"/>
			<point x="336" y="1177"/>
			<point x="451" y="1087"/>
		</contour>
		<contour>
			<point x="1448" y="-131" type="line"/>
			<point x="1452" y="-96" type="line"/>
			<point x="563" y="152" type="line"/>
			<point x="410" y="195" type="line"/>
			<point x="413" y="218" type="line"/>
			<point x="288" y="217" type="line"/>
			<point x="433" y="189"/>
			<point x="573" y="176"/>
			<point x="714" y="176" type="curve" smooth="yes"/>
			<point x="1191" y="176"/>
			<point x="1310" y="328"/>
			<point x="1310" y="544" type="curve" smooth="yes"/>
			<point x="1310" y="549" type="line" smooth="yes"/>
			<point x="1310" y="779"/>
			<point x="1113" y="929"/>
			<point x="772" y="929" type="curve" smooth="yes"/>
			<point x="411" y="929"/>
			<point x="218" y="807"/>
			<point x="218" y="578" type="curve" smooth="yes"/>
			<point x="218" y="562"/>
			<point x="220" y="543"/>
			<point x="222" y="529" type="curve"/>
			<point x="258" y="529" type="line"/>
			<point x="256" y="543"/>
			<point x="255" y="562"/>
			<point x="255" y="578" type="curve" smooth="yes"/>
			<point x="255" y="786"/>
			<point x="435" y="895"/>
			<point x="772" y="895" type="curve" smooth="yes"/>
			<point x="1095" y="895"/>
			<point x="1273" y="760"/>
			<point x="1273" y="549" type="curve" smooth="yes"/>
			<point x="1273" y="544" type="line" smooth="yes"/>
			<point x="1273" y="346"/>
			<point x="1167" y="210"/>
			<point x="706" y="210" type="curve" smooth="yes"/>
			<point x="537" y="210"/>
			<point x="386" y="225"/>
			<point x="247" y="255" type="curve" smooth="yes"/>
			<point x="174" y="271" type="line"/>
			<point x="170" y="232" type="line"/>
		</contour>
	</outline>
</glyph>
<glyph name="SignAa.bn" format="2">
	<advance width="633"/>
	<unicode hex="09BE"/>
	<anchor x="293" y="1403" name="top"/>
	<anchor x="-63" y="1776" name="top2"/>
	<outline>
		<contour>
			<point x="297" y="0" type="line"/>
			<point x="333" y="0" type="line"/>
			<point x="333" y="1188" type="line"/>
			<point x="297" y="1188" type="line"/>
		</contour>
		<contour>
			<point x="-59" y="1177" type="line"/>
			<point x="336" y="1177" type="line"/>
			<point x="336" y="1208" type="line"/>
			<point x="-65" y="1208" type="line"/>
		</contour>
		<contour>
			<point x="310" y="1199" type="line"/>
			<point x="310" y="912" type="line"/>
			<point x="333" y="912" type="line"/>
			<point x="333" y="1199" type="line"/>
		</contour>
		<contour>
			<point x="310" y="1177" type="line"/>
			<point x="695" y="1177" type="line"/>
			<point x="689" y="1208" type="line"/>
			<point x="310" y="1208" type="line"/>
		</contour>
	</outline>
</glyph>
<glyph name="SignIi.bn" format="2">
	<advance width="633"/>
	<unicode hex="09C0"/>
	<anchor x="293" y="1403" name="top"/>
	<anchor x="453" y="1493" name="top2"/>
	<outline>
		<contour>
			<point x="-769" y="1418" type="curve" smooth="yes"/>
			<point x="-268" y="1418" type="line"/>
			<point x="-275" y="1448" type="line"/>
			<point x="-769" y="1448" type="line" smooth="yes"/>
			<point x="-953" y="1448"/>
			<point x="-1040" y="1498"/>
			<point x="-1040" y="1602" type="curve" smooth="yes"/>
			<point x="-1040" y="1735"/>
			<point x="-904" y="1798"/>
			<point x="-619" y="1798" type="curve" smooth="yes"/>
			<point x="-5" y="1798"/>
			<point x="297" y="1543"/>
			<point x="297" y="1194" type="curve" smooth="yes"/>
			<point x="297" y="1182" type="line"/>
			<point x="334" y="1182" type="line"/>
			<point x="334" y="1194" type="line" smooth="yes"/>
			<point x="334" y="1564"/>
			<point x="19" y="1830"/>
			<point x="-619" y="1830" type="curve" smooth="yes"/>
			<point x="-927" y="1830"/>
			<point x="-1074" y="1756"/>
			<point x="-1074" y="1602" type="curve" smooth="yes"/>
			<point x="-1074" y="1477"/>
			<point x="-976" y="1418"/>
		</contour>
		<contour>
			<point x="297" y="0" type="line"/>
			<point x="333" y="0" type="line"/>
			<point x="333" y="1188" type="line"/>
			<point x="297" y="1188" type="line"/>
		</contour>
		<contour>
			<point x="-59" y="1177" type="line"/>
			<point x="336" y="1177" type="line"/>
			<point x="336" y="1208" type="line"/>
			<point x="-65" y="1208" type="line"/>
		</contour>
		<contour>
			<point x="310" y="1199" type="line"/>
			<point x="310" y="912" type="line"/>
			<point x="333" y="912" type="line"/>
			<point x="333" y="1199" type="line"/>
		</contour>
		<contour>
			<point x="310" y="1177" type="line"/>
			<point x="695" y="1177" type="line"/>
			<point x="689" y="1208" type="line"/>
			<point x="310" y="1208" type="line"/>
		</contour>
	</outline>
</glyph>
<glyph name="SignU.bn" format="2">
	<advance width="0"/>
	<unicode hex="09C1"/>
	<anchor x="-233" y="0" name="_bottom1"/>
	<outline>
		<contour>
			<point x="-266" y="-277" type="line"/>
			<point x="-233" y="-289" type="line"/>
			<point x="-233" y="18" type="line"/>
			<point x="-266" y="18" type="line"/>
		</contour>
		<contour>
			<point x="256" y="-603" type="curve"/>
			<point x="261" y="-568" type="line"/>
			<point x="-72" y="-298"/>
			<point x="-367" y="-196"/>
			<point x="-634" y="-196" type="curve" smooth="yes"/>
			<point x="-895" y="-196"/>
			<point x="-1024" y="-264"/>
			<point x="-1024" y="-407" type="curve" smooth="yes"/>
			<point x="-1024" y="-540"/>
			<point x="-903" y="-607"/>
			<point x="-656" y="-607" type="curve" smooth="yes"/>
			<point x="-382" y="-607"/>
			<point x="-233" y="-464"/>
			<point x="-233" y="-287" type="curve" smooth="yes"/>
			<point x="-233" y="-273" type="line"/>
			<point x="-266" y="-265" type="line"/>
			<point x="-266" y="-281" type="line" smooth="yes"/>
			<point x="-266" y="-449"/>
			<point x="-404" y="-574"/>
			<point x="-656" y="-574" type="curve" smooth="yes"/>
			<point x="-880" y="-574"/>
			<point x="-989" y="-518"/>
			<point x="-989" y="-409" type="curve" smooth="yes"/>
			<point x="-989" y="-287"/>
			<point x="-871" y="-228"/>
			<point x="-634" y="-228" type="curve" smooth="yes"/>
			<point x="-361" y="-228"/>
			<point x="-68" y="-331"/>
		</contour>
	</outline>
</glyph>
<glyph name="SignUu.bn" format="2">
	<advance width="0"/>
	<unicode hex="09C2"/>
	<anchor x="9" y="0" name="_bottom1"/>
	<outline>
		<contour>
			<point x="9" y="-249" type="line"/>
			<point x="9" y="18" type="line"/>
			<point x="-24" y="18" type="line"/>
			<point x="-24" y="-231" type="line"/>
		</contour>
		<contour>
			<point x="524" y="-699" type="line"/>
			<point x="529" y="-665" type="line"/>
			<point x="45" y="-464" type="line"/>
			<point x="-50" y="-527"/>
			<point x="-144" y="-574"/>
			<point x="-319" y="-574" type="curve" smooth="yes"/>
			<point x="-554" y="-574"/>
			<point x="-665" y="-518"/>
			<point x="-665" y="-411" type="curve" smooth="yes"/>
			<point x="-665" y="-270"/>
			<point x="-485" y="-228"/>
			<point x="-309" y="-228" type="curve" smooth="yes"/>
			<point x="-200" y="-228"/>
			<point x="-118" y="-235"/>
			<point x="9" y="-249" type="curve"/>
			<point x="-6" y="-217" type="line"/>
			<point x="-106" y="-206"/>
			<point x="-206" y="-196"/>
			<point x="-315" y="-196" type="curve" smooth="yes"/>
			<point x="-525" y="-196"/>
			<point x="-700" y="-258"/>
			<point x="-700" y="-406" type="curve" smooth="yes"/>
			<point x="-700" y="-539"/>
			<point x="-576" y="-607"/>
			<point x="-316" y="-607" type="curve" smooth="yes"/>
			<point x="-134" y="-607"/>
			<point x="-34" y="-555"/>
			<point x="64" y="-495" type="curve"/>
			<point x="30" y="-495" type="line"/>
		</contour>
	</outline>
</glyph>
<glyph name="SignRu.bn" format="2">
	<advance width="0"/>
	<unicode hex="09C3"/>
	<anchor x="-133" y="0" name="_bottom1"/>
	<outline>
		<contour>
			<point x="-133" y="-180" type="line"/>
			<point x="-133" y="18" type="line"/>
			<point x="-166" y="18" type="line"/>
			<point x="-166" y="-178" type="line"/>
		</contour>
		<contour>
			<point x="36" y="-681" type="line"/>
			<point x="40" y="-644" type="line"/>
			<point x="-811" y="-400" type="line"/>
			<point x="-811" y="-396" type="line"/>
			<point x="-712" y="-356"/>
			<point x="-322" y="-234"/>
			<point x="-133" y="-181" type="curve"/>
			<point x="-158" y="-153" type="line"/>
			<point x="-375" y="-216"/>
			<point x="-722" y="-323"/>
			<point x="-862" y="-378" type="curve"/>
			<point x="-862" y="-420" type="line"/>
		</contour>
	</outline>
</glyph>
<glyph name="SignRuu.bn" format="2">
  <unicode hex="09C4"/>
  <anchor x="300" y="182" name="_bottom1"/>
  <outline>
    <contour>
      <point x="133" y="-563" type="curve"/>
      <point x="74" y="-546" type="line"/>
      <point x="-117" y="-604"/>
      <point x="-327" y="-671"/>
      <point x="-429" y="-711" type="curve"/>
      <point x="-429" y="-753" type="line"/>
      <point x="469" y="-1014" type="line"/>
      <point x="473" y="-979" type="line"/>
      <point x="-378" y="-733" type="line"/>
      <point x="-378" y="-729" type="line"/>
      <point x="-303" y="-699"/>
      <point x="-62" y="-622"/>
    </contour>
    <contour>
      <point x="280" y="-181" type="line"/>
      <point x="280" y="18" type="line"/>
      <point x="247" y="18" type="line"/>
      <point x="247" y="-178" type="line"/>
    </contour>
    <contour>
      <point x="449" y="-681" type="line"/>
      <point x="453" y="-646" type="line"/>
      <point x="-398" y="-400" type="line"/>
      <point x="-398" y="-396" type="line"/>
      <point x="-299" y="-356"/>
      <point x="91" y="-234"/>
      <point x="280" y="-181" type="curve"/>
      <point x="255" y="-152" type="line"/>
      <point x="38" y="-215"/>
      <point x="-309" y="-322"/>
      <point x="-449" y="-377" type="curve"/>
      <point x="-449" y="-420" type="line"/>
    </contour>
  </outline>
</glyph>
<glyph name="SignE.bn" format="2">
  <advance width="810"/>
  <unicode hex="09C7"/>
  <outline>
    <contour>
      <point x="702" y="1178" type="curve"/>
      <point x="691" y="1201" type="line"/>
      <point x="371" y="1123"/>
      <point x="199" y="849"/>
      <point x="199" y="564" type="curve" smooth="yes"/>
      <point x="199" y="553" type="line" smooth="yes"/>
      <point x="199" y="183"/>
      <point x="394" y="9"/>
      <point x="652" y="-18" type="curve" smooth="yes"/>
      <point x="700" y="-23" type="line"/>
      <point x="704" y="9" type="line"/>
      <point x="654" y="14" type="line" smooth="yes"/>
      <point x="416" y="38"/>
      <point x="236" y="199"/>
      <point x="236" y="551" type="curve" smooth="yes"/>
      <point x="236" y="562" type="line" smooth="yes"/>
      <point x="236" y="838"/>
      <point x="403" y="1097"/>
    </contour>
    <contour>
      <point x="-58" y="1178" type="line"/>
      <point x="1007" y="1178" type="line"/>
      <point x="1001" y="1208" type="line"/>
      <point x="-64" y="1208" type="line"/>
    </contour>
  </outline>
</glyph>
<glyph name="SignAi.bn" format="2">
	<advance width="819"/>
	<unicode hex="09C8"/>
	<anchor x="395" y="1561" name="top"/>
	<anchor x="562" y="1519" name="top2"/>
	<outline>
		<contour>
			<point x="711" y="1178" type="curve"/>
			<point x="700" y="1201" type="line"/>
			<point x="380" y="1123"/>
			<point x="208" y="849"/>
			<point x="208" y="564" type="curve" smooth="yes"/>
			<point x="208" y="553" type="line" smooth="yes"/>
			<point x="208" y="183"/>
			<point x="403" y="9"/>
			<point x="661" y="-18" type="curve" smooth="yes"/>
			<point x="709" y="-23" type="line"/>
			<point x="713" y="9" type="line"/>
			<point x="663" y="14" type="line" smooth="yes"/>
			<point x="425" y="38"/>
			<point x="245" y="199"/>
			<point x="245" y="551" type="curve" smooth="yes"/>
			<point x="245" y="562" type="line" smooth="yes"/>
			<point x="245" y="838"/>
			<point x="412" y="1097"/>
		</contour>
		<contour>
			<point x="-49" y="1178" type="line"/>
			<point x="1159" y="1178" type="line"/>
			<point x="1153" y="1208" type="line"/>
			<point x="-55" y="1208" type="line"/>
		</contour>
		<contour>
			<point x="731" y="1205" type="line"/>
			<point x="747" y="1238"/>
			<point x="755" y="1277"/>
			<point x="755" y="1325" type="curve" smooth="yes"/>
			<point x="755" y="1492"/>
			<point x="645" y="1570"/>
			<point x="434" y="1570" type="curve" smooth="yes"/>
			<point x="248" y="1570" type="line" smooth="yes"/>
			<point x="72" y="1570"/>
			<point x="-13" y="1630"/>
			<point x="-13" y="1756" type="curve" smooth="yes"/>
			<point x="-13" y="1774" type="line"/>
			<point x="-44" y="1774" type="line"/>
			<point x="-44" y="1756" type="line" smooth="yes"/>
			<point x="-44" y="1611"/>
			<point x="53" y="1539"/>
			<point x="248" y="1539" type="curve" smooth="yes"/>
			<point x="434" y="1539" type="line" smooth="yes"/>
			<point x="632" y="1539"/>
			<point x="722" y="1474"/>
			<point x="722" y="1323" type="curve" smooth="yes"/>
			<point x="722" y="1275"/>
			<point x="713" y="1232"/>
			<point x="695" y="1190" type="curve"/>
			<point x="721" y="1190" type="line"/>
		</contour>
	</outline>
</glyph>
<glyph name="SignO.bn" format="2">
  <advance width="1869"/>
  <unicode hex="09CB"/>
  <anchor x="1529" y="1403" name="top"/>
  <anchor x="1173" y="1776" name="top2"/>
  <outline>
    <contour>
      <point x="1038" y="1208" type="line"/>
      <point x="1038" y="1178" type="line"/>
      <point x="1357" y="1178" type="line"/>
      <point x="1357" y="1208" type="line"/>
    </contour>
    <contour>
      <point x="702" y="1178" type="curve"/>
      <point x="691" y="1201" type="line"/>
      <point x="371" y="1123"/>
      <point x="199" y="849"/>
      <point x="199" y="564" type="curve" smooth="yes"/>
      <point x="199" y="553" type="line" smooth="yes"/>
      <point x="199" y="183"/>
      <point x="394" y="9"/>
      <point x="652" y="-18" type="curve" smooth="yes"/>
      <point x="700" y="-23" type="line"/>
      <point x="704" y="9" type="line"/>
      <point x="654" y="14" type="line" smooth="yes"/>
      <point x="416" y="38"/>
      <point x="236" y="199"/>
      <point x="236" y="551" type="curve" smooth="yes"/>
      <point x="236" y="562" type="line" smooth="yes"/>
      <point x="236" y="838"/>
      <point x="403" y="1097"/>
    </contour>
    <contour>
      <point x="-58" y="1178" type="line"/>
      <point x="1007" y="1178" type="line"/>
      <point x="1001" y="1208" type="line"/>
      <point x="-64" y="1208" type="line"/>
    </contour>
    <contour>
      <point x="1533" y="0" type="line"/>
      <point x="1569" y="0" type="line"/>
      <point x="1569" y="1188" type="line"/>
      <point x="1533" y="1188" type="line"/>
    </contour>
    <contour>
      <point x="1177" y="1177" type="line"/>
      <point x="1572" y="1177" type="line"/>
      <point x="1572" y="1208" type="line"/>
      <point x="1171" y="1208" type="line"/>
    </contour>
    <contour>
      <point x="1546" y="1199" type="line"/>
      <point x="1546" y="912" type="line"/>
      <point x="1569" y="912" type="line"/>
      <point x="1569" y="1199" type="line"/>
    </contour>
    <contour>
      <point x="1546" y="1177" type="line"/>
      <point x="1931" y="1177" type="line"/>
      <point x="1925" y="1208" type="line"/>
      <point x="1546" y="1208" type="line"/>
    </contour>
  </outline>
</glyph>
<glyph name="SignAu.bn" format="2">
	<advance width="1878"/>
	<unicode hex="09CC"/>
	<anchor x="464" y="1561" name="top"/>
	<anchor x="631" y="1519" name="top2"/>
	<outline>
		<contour>
			<point x="1047" y="1208" type="line"/>
			<point x="1047" y="1178" type="line"/>
			<point x="1366" y="1178" type="line"/>
			<point x="1366" y="1208" type="line"/>
		</contour>
		<contour>
			<point x="711" y="1178" type="curve"/>
			<point x="700" y="1201" type="line"/>
			<point x="380" y="1123"/>
			<point x="208" y="849"/>
			<point x="208" y="564" type="curve" smooth="yes"/>
			<point x="208" y="553" type="line" smooth="yes"/>
			<point x="208" y="183"/>
			<point x="403" y="9"/>
			<point x="661" y="-18" type="curve" smooth="yes"/>
			<point x="709" y="-23" type="line"/>
			<point x="713" y="9" type="line"/>
			<point x="663" y="14" type="line" smooth="yes"/>
			<point x="425" y="38"/>
			<point x="245" y="199"/>
			<point x="245" y="551" type="curve" smooth="yes"/>
			<point x="245" y="562" type="line" smooth="yes"/>
			<point x="245" y="838"/>
			<point x="412" y="1097"/>
		</contour>
		<contour>
			<point x="-49" y="1178" type="line"/>
			<point x="1159" y="1178" type="line"/>
			<point x="1153" y="1208" type="line"/>
			<point x="-55" y="1208" type="line"/>
		</contour>
		<contour>
			<point x="1542" y="0" type="line"/>
			<point x="1578" y="0" type="line"/>
			<point x="1578" y="1188" type="line"/>
			<point x="1542" y="1188" type="line"/>
		</contour>
		<contour>
			<point x="1186" y="1177" type="line"/>
			<point x="1581" y="1177" type="line"/>
			<point x="1581" y="1208" type="line"/>
			<point x="1180" y="1208" type="line"/>
		</contour>
		<contour>
			<point x="1555" y="1199" type="line"/>
			<point x="1555" y="912" type="line"/>
			<point x="1578" y="912" type="line"/>
			<point x="1578" y="1199" type="line"/>
		</contour>
		<contour>
			<point x="1555" y="1177" type="line"/>
			<point x="1940" y="1177" type="line"/>
			<point x="1934" y="1208" type="line"/>
			<point x="1555" y="1208" type="line"/>
		</contour>
		<contour>
			<point x="800" y="1205" type="line"/>
			<point x="816" y="1238"/>
			<point x="824" y="1277"/>
			<point x="824" y="1325" type="curve" smooth="yes"/>
			<point x="824" y="1492"/>
			<point x="714" y="1570"/>
			<point x="503" y="1570" type="curve" smooth="yes"/>
			<point x="317" y="1570" type="line" smooth="yes"/>
			<point x="141" y="1570"/>
			<point x="56" y="1630"/>
			<point x="56" y="1756" type="curve" smooth="yes"/>
			<point x="56" y="1774" type="line"/>
			<point x="25" y="1774" type="line"/>
			<point x="25" y="1756" type="line" smooth="yes"/>
			<point x="25" y="1611"/>
			<point x="122" y="1539"/>
			<point x="317" y="1539" type="curve" smooth="yes"/>
			<point x="503" y="1539" type="line" smooth="yes"/>
			<point x="701" y="1539"/>
			<point x="791" y="1474"/>
			<point x="791" y="1323" type="curve" smooth="yes"/>
			<point x="791" y="1275"/>
			<point x="782" y="1232"/>
			<point x="764" y="1190" type="curve"/>
			<point x="790" y="1190" type="line"/>
		</contour>
	</outline>
</glyph>
<glyph name="Hasant.bn" format="2">
  <unicode hex="09CD"/>
  <anchor x="-87" y="21" name="_bottom1"/>
  <outline>
    <contour>
      <point x="700" y="-534" type="line"/>
      <point x="-17" y="-161" type="line"/>
      <point x="-20" y="-198" type="line"/>
      <point x="697" y="-569" type="line"/>
    </contour>
  </outline>
</glyph>
<glyph name="KhandaTa.bn" format="2">
  <advance width="1501"/>
  <unicode hex="09CE"/>
  <outline>
    <contour>
      <point x="1244" y="-2" type="curve"/>
      <point x="1281" y="-2" type="line"/>
      <point x="1288" y="34"/>
      <point x="1291" y="64"/>
      <point x="1291" y="87" type="curve" smooth="yes"/>
      <point x="1291" y="212"/>
      <point x="1230" y="319"/>
      <point x="906" y="397" type="curve" smooth="yes"/>
      <point x="629" y="464" type="line" smooth="yes"/>
      <point x="348" y="532"/>
      <point x="213" y="622"/>
      <point x="213" y="813" type="curve" smooth="yes"/>
      <point x="213" y="821" type="line" smooth="yes"/>
      <point x="213" y="1065"/>
      <point x="388" y="1185"/>
      <point x="720" y="1185" type="curve" smooth="yes"/>
      <point x="1027" y="1185"/>
      <point x="1187" y="1086"/>
      <point x="1187" y="883" type="curve" smooth="yes"/>
      <point x="1187" y="881" type="line" smooth="yes"/>
      <point x="1187" y="721"/>
      <point x="1082" y="643"/>
      <point x="867" y="643" type="curve" smooth="yes"/>
      <point x="807" y="643" type="line"/>
      <point x="815" y="611" type="line"/>
      <point x="882" y="611" type="line" smooth="yes"/>
      <point x="1108" y="611"/>
      <point x="1224" y="702"/>
      <point x="1224" y="881" type="curve" smooth="yes"/>
      <point x="1224" y="883" type="line" smooth="yes"/>
      <point x="1224" y="1104"/>
      <point x="1049" y="1217"/>
      <point x="719" y="1217" type="curve" smooth="yes"/>
      <point x="366" y="1217"/>
      <point x="176" y="1083"/>
      <point x="176" y="824" type="curve" smooth="yes"/>
      <point x="176" y="813" type="line" smooth="yes"/>
      <point x="176" y="592"/>
      <point x="328" y="503"/>
      <point x="623" y="432" type="curve" smooth="yes"/>
      <point x="900" y="365" type="line" smooth="yes"/>
      <point x="1215" y="289"/>
      <point x="1254" y="194"/>
      <point x="1254" y="87" type="curve" smooth="yes"/>
      <point x="1254" y="64"/>
      <point x="1251" y="34"/>
    </contour>
  </outline>
</glyph>
<glyph name="SignAuMark.bn" format="2">
  <advance width="636"/>
  <unicode hex="09D7"/>
  <anchor x="0" y="1561" name="top"/>
  <anchor x="167" y="1519" name="top2"/>
  <outline>
    <contour>
      <point x="300" y="0" type="line"/>
      <point x="336" y="0" type="line"/>
      <point x="336" y="1188" type="line"/>
      <point x="300" y="1188" type="line"/>
    </contour>
    <contour>
      <point x="-56" y="1177" type="line"/>
      <point x="339" y="1177" type="line"/>
      <point x="339" y="1208" type="line"/>
      <point x="-62" y="1208" type="line"/>
    </contour>
    <contour>
      <point x="313" y="1199" type="line"/>
      <point x="313" y="912" type="line"/>
      <point x="336" y="912" type="line"/>
      <point x="336" y="1199" type="line"/>
    </contour>
    <contour>
      <point x="313" y="1177" type="line"/>
      <point x="698" y="1177" type="line"/>
      <point x="692" y="1208" type="line"/>
      <point x="313" y="1208" type="line"/>
    </contour>
    <contour>
      <point x="336" y="1205" type="line"/>
      <point x="352" y="1238"/>
      <point x="360" y="1277"/>
      <point x="360" y="1325" type="curve" smooth="yes"/>
      <point x="360" y="1492"/>
      <point x="250" y="1570"/>
      <point x="39" y="1570" type="curve" smooth="yes"/>
      <point x="-147" y="1570" type="line" smooth="yes"/>
      <point x="-323" y="1570"/>
      <point x="-408" y="1630"/>
      <point x="-408" y="1756" type="curve" smooth="yes"/>
      <point x="-408" y="1774" type="line"/>
      <point x="-439" y="1774" type="line"/>
      <point x="-439" y="1756" type="line" smooth="yes"/>
      <point x="-439" y="1611"/>
      <point x="-342" y="1539"/>
      <point x="-147" y="1539" type="curve" smooth="yes"/>
      <point x="39" y="1539" type="line" smooth="yes"/>
      <point x="237" y="1539"/>
      <point x="327" y="1474"/>
      <point x="327" y="1323" type="curve" smooth="yes"/>
      <point x="327" y="1275"/>
      <point x="318" y="1232"/>
      <point x="300" y="1190" type="curve"/>
      <point x="326" y="1190" type="line"/>
    </contour>
  </outline>
</glyph>
<glyph name="Rra.bn" format="2">
	<advance width="1942"/>
	<unicode hex="09DC"/>
	<anchor x="1197" y="182" name="bottom1"/>
	<anchor x="859" y="1403" name="top"/>
	<anchor x="591" y="1776" name="top2"/>
	<outline>
		<contour>
			<point x="277" y="650" type="curve" smooth="yes"/>
			<point x="252" y="866" type="line"/>
			<point x="216" y="866" type="line"/>
			<point x="241" y="646" type="line" smooth="yes"/>
			<point x="288" y="236"/>
			<point x="559" y="20"/>
			<point x="1033" y="20" type="curve" smooth="yes"/>
			<point x="1483" y="20"/>
			<point x="1719" y="208"/>
			<point x="1719" y="564" type="curve" smooth="yes"/>
			<point x="1719" y="670"/>
			<point x="1705" y="748"/>
			<point x="1672" y="835" type="curve"/>
			<point x="1634" y="839" type="line"/>
			<point x="1510" y="757" type="line" smooth="yes"/>
			<point x="1372" y="666"/>
			<point x="1253" y="612"/>
			<point x="1118" y="612" type="curve" smooth="yes"/>
			<point x="964" y="612"/>
			<point x="889" y="691"/>
			<point x="889" y="852" type="curve" smooth="yes"/>
			<point x="889" y="1196" type="line"/>
			<point x="854" y="1196" type="line"/>
			<point x="854" y="852" type="line" smooth="yes"/>
			<point x="854" y="667"/>
			<point x="941" y="577"/>
			<point x="1120" y="577" type="curve" smooth="yes"/>
			<point x="1263" y="577"/>
			<point x="1388" y="634"/>
			<point x="1532" y="729" type="curve" smooth="yes"/>
			<point x="1650" y="807" type="line"/>
			<point x="1642" y="815" type="line"/>
			<point x="1671" y="741"/>
			<point x="1682" y="650"/>
			<point x="1682" y="564" type="curve" smooth="yes"/>
			<point x="1682" y="233"/>
			<point x="1458" y="56"/>
			<point x="1033" y="56" type="curve" smooth="yes"/>
			<point x="581" y="56"/>
			<point x="322" y="261"/>
		</contour>
		<contour>
			<point x="-58" y="1177" type="line"/>
			<point x="1974" y="1177" type="line"/>
			<point x="1968" y="1208" type="line"/>
			<point x="-64" y="1208" type="line"/>
		</contour>
		<contour>
			<point x="985" y="-358" type="curve" smooth="yes"/>
			<point x="1030" y="-358"/>
			<point x="1051" y="-333"/>
			<point x="1051" y="-302" type="curve" smooth="yes"/>
			<point x="1051" y="-299" type="line" smooth="yes"/>
			<point x="1051" y="-265"/>
			<point x="1030" y="-241"/>
			<point x="985" y="-241" type="curve" smooth="yes"/>
			<point x="940" y="-241"/>
			<point x="919" y="-265"/>
			<point x="919" y="-299" type="curve" smooth="yes"/>
			<point x="919" y="-302" type="line" smooth="yes"/>
			<point x="919" y="-332"/>
			<point x="940" y="-358"/>
		</contour>
	</outline>
</glyph>
<glyph name="Rha.bn" format="2">
  <advance width="1684"/>
  <unicode hex="09DD"/>
  <anchor x="1098" y="182" name="bottom1"/>
  <anchor x="270" y="1403" name="top"/>
  <anchor x="503" y="1792" name="top2"/>
  <outline>
    <contour>
      <point x="783" y="-358" type="curve" smooth="yes"/>
      <point x="828" y="-358"/>
      <point x="849" y="-333"/>
      <point x="849" y="-302" type="curve" smooth="yes"/>
      <point x="849" y="-299" type="line" smooth="yes"/>
      <point x="849" y="-265"/>
      <point x="828" y="-241"/>
      <point x="783" y="-241" type="curve" smooth="yes"/>
      <point x="738" y="-241"/>
      <point x="717" y="-265"/>
      <point x="717" y="-299" type="curve" smooth="yes"/>
      <point x="717" y="-302" type="line" smooth="yes"/>
      <point x="717" y="-332"/>
      <point x="738" y="-358"/>
    </contour>
    <contour>
      <point x="814" y="20" type="curve" smooth="yes"/>
      <point x="1016" y="20"/>
      <point x="1211" y="71"/>
      <point x="1342" y="171" type="curve" smooth="yes"/>
      <point x="1440" y="247"/>
      <point x="1502" y="351"/>
      <point x="1502" y="484" type="curve" smooth="yes"/>
      <point x="1502" y="675"/>
      <point x="1379" y="778"/>
      <point x="1043" y="778" type="curve" smooth="yes"/>
      <point x="925" y="778"/>
      <point x="833" y="769"/>
      <point x="719" y="753" type="curve"/>
      <point x="712" y="718" type="line"/>
      <point x="822" y="736"/>
      <point x="921" y="744"/>
      <point x="1045" y="744" type="curve" smooth="yes"/>
      <point x="1360" y="744"/>
      <point x="1466" y="653"/>
      <point x="1466" y="484" type="curve" smooth="yes"/>
      <point x="1466" y="360"/>
      <point x="1405" y="263"/>
      <point x="1309" y="193" type="curve" smooth="yes"/>
      <point x="1183" y="101"/>
      <point x="999" y="55"/>
      <point x="814" y="55" type="curve" smooth="yes"/>
      <point x="472" y="55"/>
      <point x="305" y="189"/>
      <point x="305" y="464" type="curve" smooth="yes"/>
      <point x="305" y="1190" type="line"/>
      <point x="269" y="1190" type="line"/>
      <point x="269" y="470" type="line" smooth="yes"/>
      <point x="269" y="168"/>
      <point x="448" y="20"/>
    </contour>
    <contour>
      <point x="-79" y="1177" type="line"/>
      <point x="1716" y="1177" type="line"/>
      <point x="1710" y="1208" type="line"/>
      <point x="-85" y="1208" type="line"/>
    </contour>
  </outline>
</glyph>
<glyph name="Yya.bn" format="2">
  <advance width="1725"/>
  <unicode hex="09DF"/>
  <anchor x="1425" y="0" name="bottom1"/>
  <anchor x="1385" y="1403" name="top"/>
  <anchor x="1029" y="1776" name="top2"/>
  <outline>
    <contour>
      <point x="656" y="-152" type="curve" smooth="yes"/>
      <point x="701" y="-152"/>
      <point x="722" y="-127"/>
      <point x="722" y="-96" type="curve" smooth="yes"/>
      <point x="722" y="-93" type="line" smooth="yes"/>
      <point x="722" y="-59"/>
      <point x="701" y="-35"/>
      <point x="656" y="-35" type="curve" smooth="yes"/>
      <point x="611" y="-35"/>
      <point x="590" y="-59"/>
      <point x="590" y="-93" type="curve" smooth="yes"/>
      <point x="590" y="-96" type="line" smooth="yes"/>
      <point x="590" y="-126"/>
      <point x="611" y="-152"/>
    </contour>
    <contour>
      <point x="1394" y="0" type="line"/>
      <point x="1425" y="0" type="line"/>
      <point x="1425" y="1188" type="line"/>
      <point x="1389" y="1188" type="line"/>
      <point x="1389" y="160" type="line"/>
      <point x="1390" y="24" type="line"/>
      <point x="1396" y="33" type="line"/>
      <point x="274" y="343" type="line"/>
      <point x="288" y="318" type="line"/>
      <point x="288" y="587" type="line"/>
      <point x="274" y="565" type="line"/>
      <point x="897" y="765" type="line"/>
      <point x="897" y="794" type="line"/>
      <point x="633" y="943"/>
      <point x="454" y="1036"/>
      <point x="174" y="1183" type="curve"/>
      <point x="161" y="1183" type="line"/>
      <point x="161" y="1150" type="line"/>
      <point x="847" y="787" type="line"/>
      <point x="847" y="785" type="line"/>
      <point x="252" y="592" type="line"/>
      <point x="252" y="315" type="line"/>
    </contour>
    <contour>
      <point x="-105" y="1177" type="line"/>
      <point x="1413" y="1177" type="line"/>
      <point x="1413" y="1208" type="line"/>
      <point x="-111" y="1208" type="line"/>
    </contour>
    <contour>
      <point x="1402" y="1199" type="line"/>
      <point x="1402" y="912" type="line"/>
      <point x="1425" y="912" type="line"/>
      <point x="1425" y="1199" type="line"/>
    </contour>
    <contour>
      <point x="1402" y="1177" type="line"/>
      <point x="1787" y="1177" type="line"/>
      <point x="1781" y="1208" type="line"/>
      <point x="1402" y="1208" type="line"/>
    </contour>
  </outline>
</glyph>
<glyph name="VowelLruu.bn" format="2">
	<advance width="1829"/>
	<unicode hex="09E1"/>
	<anchor x="714" y="1523" name="top2"/>
	<outline>
		<contour>
			<point x="1201" y="29" type="curve"/>
			<point x="1159" y="6" type="line"/>
			<point x="1503" y="-32"/>
			<point x="1618" y="-154"/>
			<point x="1618" y="-330" type="curve" smooth="yes"/>
			<point x="1618" y="-340" type="line" smooth="yes"/>
			<point x="1618" y="-526"/>
			<point x="1476" y="-620"/>
			<point x="1246" y="-620" type="curve" smooth="yes"/>
			<point x="1143" y="-620" type="line"/>
			<point x="1150" y="-632" type="line"/>
			<point x="1150" y="-520" type="line" smooth="yes"/>
			<point x="1150" y="-303"/>
			<point x="1007" y="-189"/>
			<point x="787" y="-189" type="curve" smooth="yes"/>
			<point x="548" y="-189"/>
			<point x="422" y="-307"/>
			<point x="422" y="-516" type="curve" smooth="yes"/>
			<point x="422" y="-546" type="line" smooth="yes"/>
			<point x="422" y="-582"/>
			<point x="422" y="-614"/>
			<point x="422" y="-650" type="curve"/>
			<point x="455" y="-650" type="line"/>
			<point x="455" y="-618"/>
			<point x="455" y="-584"/>
			<point x="455" y="-552" type="curve" smooth="yes"/>
			<point x="455" y="-516" type="line" smooth="yes"/>
			<point x="455" y="-325"/>
			<point x="569" y="-219"/>
			<point x="787" y="-219" type="curve" smooth="yes"/>
			<point x="972" y="-219"/>
			<point x="1118" y="-311"/>
			<point x="1118" y="-520" type="curve" smooth="yes"/>
			<point x="1118" y="-650" type="line"/>
			<point x="1250" y="-650" type="line" smooth="yes"/>
			<point x="1499" y="-650"/>
			<point x="1652" y="-545"/>
			<point x="1652" y="-341" type="curve" smooth="yes"/>
			<point x="1652" y="-331" type="line" smooth="yes"/>
			<point x="1652" y="-156"/>
			<point x="1557" y="-17"/>
		</contour>
		<contour>
			<point x="205" y="0" type="curve"/>
			<point x="241" y="0" type="line"/>
			<point x="241" y="49"/>
			<point x="241" y="99"/>
			<point x="241" y="147" type="curve" smooth="yes"/>
			<point x="241" y="184" type="line" smooth="yes"/>
			<point x="241" y="402"/>
			<point x="370" y="519"/>
			<point x="616" y="519" type="curve" smooth="yes"/>
			<point x="824" y="519"/>
			<point x="988" y="419"/>
			<point x="988" y="179" type="curve" smooth="yes"/>
			<point x="988" y="0" type="line"/>
			<point x="1144" y="0" type="line" smooth="yes"/>
			<point x="1456" y="0"/>
			<point x="1648" y="140"/>
			<point x="1648" y="422" type="curve" smooth="yes"/>
			<point x="1648" y="433" type="line" smooth="yes"/>
			<point x="1648" y="733"/>
			<point x="1441" y="894"/>
			<point x="1014" y="933" type="curve" smooth="yes"/>
			<point x="652" y="966" type="line" smooth="yes"/>
			<point x="436" y="986"/>
			<point x="332" y="1056"/>
			<point x="332" y="1192" type="curve" smooth="yes"/>
			<point x="332" y="1218" type="line"/>
			<point x="297" y="1218" type="line"/>
			<point x="297" y="1192" type="line" smooth="yes"/>
			<point x="297" y="1036"/>
			<point x="406" y="954"/>
			<point x="645" y="932" type="curve" smooth="yes"/>
			<point x="1007" y="899" type="line" smooth="yes"/>
			<point x="1414" y="862"/>
			<point x="1611" y="716"/>
			<point x="1611" y="435" type="curve" smooth="yes"/>
			<point x="1611" y="424" type="line" smooth="yes"/>
			<point x="1611" y="163"/>
			<point x="1431" y="34"/>
			<point x="1140" y="34" type="curve" smooth="yes"/>
			<point x="1018" y="34" type="line"/>
			<point x="1024" y="22" type="line"/>
			<point x="1024" y="179" type="line" smooth="yes"/>
			<point x="1024" y="427"/>
			<point x="863" y="555"/>
			<point x="616" y="555" type="curve" smooth="yes"/>
			<point x="347" y="555"/>
			<point x="205" y="423"/>
			<point x="205" y="186" type="curve" smooth="yes"/>
			<point x="205" y="147" type="line" smooth="yes"/>
			<point x="205" y="101"/>
			<point x="205" y="52"/>
		</contour>
	</outline>
</glyph>
<glyph name="SignLru.bn" format="2">
	<advance width="1645"/>
	<unicode hex="09E2"/>
	<outline>
		<contour>
			<point x="604" y="-676" type="curve"/>
			<point x="636" y="-676" type="line"/>
			<point x="636" y="-646"/>
			<point x="636" y="-616"/>
			<point x="636" y="-587" type="curve" smooth="yes"/>
			<point x="636" y="-562" type="line" smooth="yes"/>
			<point x="636" y="-435"/>
			<point x="711" y="-366"/>
			<point x="853" y="-366" type="curve" smooth="yes"/>
			<point x="973" y="-366"/>
			<point x="1069" y="-425"/>
			<point x="1069" y="-565" type="curve" smooth="yes"/>
			<point x="1069" y="-676" type="line"/>
			<point x="1166" y="-676" type="line" smooth="yes"/>
			<point x="1354" y="-676"/>
			<point x="1470" y="-591"/>
			<point x="1470" y="-422" type="curve" smooth="yes"/>
			<point x="1470" y="-414" type="line" smooth="yes"/>
			<point x="1470" y="-234"/>
			<point x="1346" y="-135"/>
			<point x="1089" y="-111" type="curve" smooth="yes"/>
			<point x="878" y="-91" type="line" smooth="yes"/>
			<point x="751" y="-79"/>
			<point x="688" y="-39"/>
			<point x="688" y="42" type="curve" smooth="yes"/>
			<point x="688" y="58" type="line"/>
			<point x="657" y="58" type="line"/>
			<point x="657" y="42" type="line" smooth="yes"/>
			<point x="657" y="-54"/>
			<point x="724" y="-105"/>
			<point x="871" y="-119" type="curve" smooth="yes"/>
			<point x="1082" y="-139" type="line" smooth="yes"/>
			<point x="1322" y="-162"/>
			<point x="1438" y="-247"/>
			<point x="1438" y="-413" type="curve" smooth="yes"/>
			<point x="1438" y="-420" type="line" smooth="yes"/>
			<point x="1438" y="-572"/>
			<point x="1333" y="-648"/>
			<point x="1164" y="-648" type="curve" smooth="yes"/>
			<point x="1089" y="-648" type="line"/>
			<point x="1099" y="-660" type="line"/>
			<point x="1099" y="-565" type="line" smooth="yes"/>
			<point x="1099" y="-415"/>
			<point x="1002" y="-338"/>
			<point x="853" y="-338" type="curve" smooth="yes"/>
			<point x="690" y="-338"/>
			<point x="604" y="-418"/>
			<point x="604" y="-562" type="curve" smooth="yes"/>
			<point x="604" y="-587" type="line" smooth="yes"/>
			<point x="604" y="-615"/>
			<point x="604" y="-645"/>
		</contour>
	</outline>
</glyph>
<glyph name="SignLruu.bn" format="2">
  <advance width="1665"/>
  <unicode hex="09E3"/>
  <outline>
    <contour>
      <point x="1241" y="-651" type="curve"/>
      <point x="1214" y="-672" type="line"/>
      <point x="1399" y="-693"/>
      <point x="1483" y="-755"/>
      <point x="1483" y="-870" type="curve" smooth="yes"/>
      <point x="1483" y="-877" type="line" smooth="yes"/>
      <point x="1483" y="-985"/>
      <point x="1400" y="-1040"/>
      <point x="1267" y="-1040" type="curve" smooth="yes"/>
      <point x="1204" y="-1040" type="line"/>
      <point x="1214" y="-1052" type="line"/>
      <point x="1214" y="-986" type="line" smooth="yes"/>
      <point x="1214" y="-854"/>
      <point x="1128" y="-785"/>
      <point x="995" y="-785" type="curve" smooth="yes"/>
      <point x="851" y="-785"/>
      <point x="775" y="-857"/>
      <point x="775" y="-984" type="curve" smooth="yes"/>
      <point x="775" y="-1003" type="line" smooth="yes"/>
      <point x="775" y="-1024"/>
      <point x="775" y="-1044"/>
      <point x="775" y="-1065" type="curve"/>
      <point x="804" y="-1065" type="line"/>
      <point x="804" y="-1046"/>
      <point x="804" y="-1025"/>
      <point x="804" y="-1005" type="curve" smooth="yes"/>
      <point x="804" y="-984" type="line" smooth="yes"/>
      <point x="804" y="-873"/>
      <point x="870" y="-811"/>
      <point x="996" y="-811" type="curve" smooth="yes"/>
      <point x="1103" y="-811"/>
      <point x="1187" y="-865"/>
      <point x="1187" y="-986" type="curve" smooth="yes"/>
      <point x="1187" y="-1065" type="line"/>
      <point x="1269" y="-1065" type="line" smooth="yes"/>
      <point x="1420" y="-1065"/>
      <point x="1514" y="-1001"/>
      <point x="1514" y="-877" type="curve" smooth="yes"/>
      <point x="1514" y="-871" type="line" smooth="yes"/>
      <point x="1514" y="-764"/>
      <point x="1455" y="-680"/>
    </contour>
    <contour>
      <point x="644" y="-676" type="curve"/>
      <point x="676" y="-676" type="line"/>
      <point x="676" y="-646"/>
      <point x="676" y="-616"/>
      <point x="676" y="-587" type="curve" smooth="yes"/>
      <point x="676" y="-562" type="line" smooth="yes"/>
      <point x="676" y="-435"/>
      <point x="751" y="-366"/>
      <point x="893" y="-366" type="curve" smooth="yes"/>
      <point x="1013" y="-366"/>
      <point x="1109" y="-425"/>
      <point x="1109" y="-565" type="curve" smooth="yes"/>
      <point x="1109" y="-676" type="line"/>
      <point x="1206" y="-676" type="line" smooth="yes"/>
      <point x="1394" y="-676"/>
      <point x="1510" y="-591"/>
      <point x="1510" y="-422" type="curve" smooth="yes"/>
      <point x="1510" y="-414" type="line" smooth="yes"/>
      <point x="1510" y="-234"/>
      <point x="1386" y="-135"/>
      <point x="1129" y="-111" type="curve" smooth="yes"/>
      <point x="918" y="-91" type="line" smooth="yes"/>
      <point x="791" y="-79"/>
      <point x="728" y="-39"/>
      <point x="728" y="42" type="curve" smooth="yes"/>
      <point x="728" y="58" type="line"/>
      <point x="697" y="58" type="line"/>
      <point x="697" y="42" type="line" smooth="yes"/>
      <point x="697" y="-54"/>
      <point x="764" y="-105"/>
      <point x="911" y="-119" type="curve" smooth="yes"/>
      <point x="1122" y="-139" type="line" smooth="yes"/>
      <point x="1362" y="-162"/>
      <point x="1478" y="-247"/>
      <point x="1478" y="-413" type="curve" smooth="yes"/>
      <point x="1478" y="-420" type="line" smooth="yes"/>
      <point x="1478" y="-572"/>
      <point x="1373" y="-648"/>
      <point x="1204" y="-648" type="curve" smooth="yes"/>
      <point x="1129" y="-648" type="line"/>
      <point x="1139" y="-660" type="line"/>
      <point x="1139" y="-565" type="line" smooth="yes"/>
      <point x="1139" y="-415"/>
      <point x="1042" y="-338"/>
      <point x="893" y="-338" type="curve" smooth="yes"/>
      <point x="730" y="-338"/>
      <point x="644" y="-418"/>
      <point x="644" y="-562" type="curve" smooth="yes"/>
      <point x="644" y="-587" type="line" smooth="yes"/>
      <point x="644" y="-615"/>
      <point x="644" y="-645"/>
    </contour>
  </outline>
</glyph>
<glyph name="Zero.bn" format="2">
  <advance width="1567"/>
  <unicode hex="09E6"/>
  <outline>
    <contour>
      <point x="785" y="20" type="curve" smooth="yes"/>
      <point x="1165" y="20"/>
      <point x="1377" y="229"/>
      <point x="1377" y="618" type="curve" smooth="yes"/>
      <point x="1377" y="629" type="line" smooth="yes"/>
      <point x="1377" y="1018"/>
      <point x="1159" y="1218"/>
      <point x="782" y="1218" type="curve" smooth="yes"/>
      <point x="408" y="1218"/>
      <point x="190" y="1018"/>
      <point x="190" y="629" type="curve" smooth="yes"/>
      <point x="190" y="618" type="line" smooth="yes"/>
      <point x="190" y="229"/>
      <point x="404" y="20"/>
    </contour>
    <contour>
      <point x="783" y="55" type="curve" smooth="yes"/>
      <point x="434" y="55"/>
      <point x="227" y="242"/>
      <point x="227" y="621" type="curve" smooth="yes"/>
      <point x="227" y="627" type="line" smooth="yes"/>
      <point x="227" y="1001"/>
      <point x="434" y="1184"/>
      <point x="783" y="1184" type="curve" smooth="yes"/>
      <point x="1137" y="1184"/>
      <point x="1340" y="1005"/>
      <point x="1340" y="627" type="curve" smooth="yes"/>
      <point x="1340" y="621" type="line" smooth="yes"/>
      <point x="1340" y="242"/>
      <point x="1137" y="55"/>
    </contour>
  </outline>
</glyph>
<glyph name="One.bn" format="2">
	<advance width="1527"/>
	<unicode hex="09E7"/>
	<outline>
		<contour>
			<point x="1337" y="384" type="curve" smooth="yes"/>
			<point x="1337" y="395" type="line"/>
			<point x="1337" y="605"/>
			<point x="1194" y="748"/>
			<point x="892" y="840" type="curve" smooth="yes"/>
			<point x="432" y="980" type="line" smooth="yes"/>
			<point x="287" y="1024"/>
			<point x="219" y="1090"/>
			<point x="219" y="1192" type="curve" smooth="yes"/>
			<point x="219" y="1218" type="line"/>
			<point x="184" y="1218" type="line"/>
			<point x="184" y="1192" type="line" smooth="yes"/>
			<point x="184" y="1069"/>
			<point x="259" y="994"/>
			<point x="425" y="944" type="curve" smooth="yes"/>
			<point x="885" y="806" type="line" smooth="yes"/>
			<point x="1167" y="721"/>
			<point x="1300" y="591"/>
			<point x="1300" y="397" type="curve" smooth="yes"/>
			<point x="1300" y="386" type="line" smooth="yes"/>
			<point x="1300" y="167"/>
			<point x="1110" y="53"/>
			<point x="751" y="53" type="curve" smooth="yes"/>
			<point x="391" y="53"/>
			<point x="196" y="166"/>
			<point x="196" y="379" type="curve" smooth="yes"/>
			<point x="196" y="419"/>
			<point x="203" y="466"/>
			<point x="212" y="511" type="curve"/>
			<point x="174" y="511" type="line"/>
			<point x="165" y="466"/>
			<point x="159" y="427"/>
			<point x="159" y="379" type="curve" smooth="yes"/>
			<point x="159" y="136"/>
			<point x="368" y="19"/>
			<point x="755" y="19" type="curve" smooth="yes"/>
			<point x="1133" y="19"/>
			<point x="1337" y="140"/>
		</contour>
	</outline>
</glyph>
<glyph name="Two.bn" format="2">
  <advance width="1500"/>
  <unicode hex="09E8"/>
  <outline>
    <contour>
      <point x="1437" y="-78" type="line"/>
      <point x="1442" y="-41" type="line"/>
      <point x="722" y="146" type="line"/>
      <point x="334" y="248" type="line"/>
      <point x="335" y="226" type="line"/>
      <point x="335" y="255" type="line"/>
      <point x="297" y="240" type="line"/>
      <point x="431" y="198"/>
      <point x="591" y="177"/>
      <point x="785" y="177" type="curve" smooth="yes"/>
      <point x="1101" y="177"/>
      <point x="1256" y="282"/>
      <point x="1256" y="499" type="curve" smooth="yes"/>
      <point x="1256" y="510" type="line" smooth="yes"/>
      <point x="1256" y="705"/>
      <point x="1117" y="817"/>
      <point x="831" y="878" type="curve" smooth="yes"/>
      <point x="380" y="974" type="line" smooth="yes"/>
      <point x="245" y="1003"/>
      <point x="140" y="1070"/>
      <point x="140" y="1192" type="curve" smooth="yes"/>
      <point x="140" y="1218" type="line"/>
      <point x="105" y="1218" type="line"/>
      <point x="105" y="1192" type="line" smooth="yes"/>
      <point x="105" y="1047"/>
      <point x="215" y="974"/>
      <point x="373" y="940" type="curve" smooth="yes"/>
      <point x="824" y="844" type="line" smooth="yes"/>
      <point x="1090" y="787"/>
      <point x="1219" y="686"/>
      <point x="1219" y="510" type="curve" smooth="yes"/>
      <point x="1219" y="499" type="line" smooth="yes"/>
      <point x="1219" y="305"/>
      <point x="1075" y="211"/>
      <point x="781" y="211" type="curve" smooth="yes"/>
      <point x="607" y="211"/>
      <point x="463" y="227"/>
      <point x="349" y="258" type="curve" smooth="yes"/>
      <point x="153" y="311" type="line"/>
      <point x="150" y="268" type="line"/>
    </contour>
  </outline>
</glyph>
<glyph name="Three.bn" format="2">
	<advance width="1967"/>
	<unicode hex="09E9"/>
	<outline>
		<contour>
			<point x="1004" y="20" type="curve" smooth="yes"/>
			<point x="1490" y="20"/>
			<point x="1754" y="253"/>
			<point x="1754" y="653" type="curve" smooth="yes"/>
			<point x="1754" y="664" type="line" smooth="yes"/>
			<point x="1754" y="1008"/>
			<point x="1577" y="1191"/>
			<point x="1290" y="1191" type="curve" smooth="yes"/>
			<point x="1000" y="1191"/>
			<point x="846" y="1081"/>
			<point x="846" y="790" type="curve" smooth="yes"/>
			<point x="846" y="758"/>
			<point x="851" y="715"/>
			<point x="858" y="683" type="curve"/>
			<point x="896" y="683" type="line"/>
			<point x="889" y="715"/>
			<point x="884" y="758"/>
			<point x="884" y="790" type="curve" smooth="yes"/>
			<point x="884" y="1058"/>
			<point x="1026" y="1157"/>
			<point x="1291" y="1157" type="curve" smooth="yes"/>
			<point x="1558" y="1157"/>
			<point x="1717" y="986"/>
			<point x="1717" y="664" type="curve" smooth="yes"/>
			<point x="1717" y="653" type="line" smooth="yes"/>
			<point x="1717" y="277"/>
			<point x="1465" y="55"/>
			<point x="1004" y="55" type="curve" smooth="yes"/>
			<point x="536" y="55"/>
			<point x="284" y="293"/>
			<point x="235" y="747" type="curve" smooth="yes"/>
			<point x="208" y="1052" type="line"/>
			<point x="172" y="1052" type="line"/>
			<point x="199" y="743" type="line" smooth="yes"/>
			<point x="250" y="270"/>
			<point x="514" y="20"/>
		</contour>
	</outline>
</glyph>
<glyph name="Four.bn" format="2">
	<advance width="1580"/>
	<unicode hex="09EA"/>
	<outline>
		<contour>
			<point x="790" y="664" type="curve" smooth="yes"/>
			<point x="1209" y="664"/>
			<point x="1359" y="744"/>
			<point x="1359" y="907" type="curve" smooth="yes"/>
			<point x="1359" y="912" type="line" smooth="yes"/>
			<point x="1359" y="1102"/>
			<point x="1172" y="1195"/>
			<point x="790" y="1195" type="curve" smooth="yes"/>
			<point x="408" y="1195"/>
			<point x="221" y="1102"/>
			<point x="221" y="912" type="curve" smooth="yes"/>
			<point x="221" y="907" type="line" smooth="yes"/>
			<point x="221" y="744"/>
			<point x="371" y="664"/>
		</contour>
		<contour>
			<point x="661" y="647" type="curve"/>
			<point x="685" y="634" type="line"/>
			<point x="564" y="634" type="line"/>
			<point x="564" y="661" type="line"/>
			<point x="685" y="661" type="line"/>
			<point x="661" y="644" type="line"/>
			<point x="361" y="644"/>
			<point x="184" y="731"/>
			<point x="184" y="907" type="curve" smooth="yes"/>
			<point x="184" y="912" type="line" smooth="yes"/>
			<point x="184" y="1122"/>
			<point x="386" y="1229"/>
			<point x="790" y="1229" type="curve" smooth="yes"/>
			<point x="1194" y="1229"/>
			<point x="1396" y="1122"/>
			<point x="1396" y="912" type="curve" smooth="yes"/>
			<point x="1396" y="907" type="line" smooth="yes"/>
			<point x="1396" y="731"/>
			<point x="1225" y="644"/>
			<point x="940" y="644" type="curve"/>
			<point x="915" y="661" type="line"/>
			<point x="1026" y="661" type="line"/>
			<point x="1026" y="634" type="line"/>
			<point x="915" y="634" type="line"/>
			<point x="940" y="647" type="line"/>
			<point x="1233" y="647"/>
			<point x="1407" y="550"/>
			<point x="1407" y="353" type="curve" smooth="yes"/>
			<point x="1407" y="348" type="line" smooth="yes"/>
			<point x="1407" y="113"/>
			<point x="1205" y="-1"/>
			<point x="790" y="-1" type="curve" smooth="yes"/>
			<point x="375" y="-1"/>
			<point x="173" y="113"/>
			<point x="173" y="348" type="curve" smooth="yes"/>
			<point x="173" y="353" type="line" smooth="yes"/>
			<point x="173" y="550"/>
			<point x="336" y="647"/>
		</contour>
		<contour>
			<point x="790" y="34" type="curve" smooth="yes"/>
			<point x="1180" y="34"/>
			<point x="1370" y="135"/>
			<point x="1370" y="342" type="curve" smooth="yes"/>
			<point x="1370" y="348" type="line" smooth="yes"/>
			<point x="1370" y="547"/>
			<point x="1217" y="630"/>
			<point x="790" y="630" type="curve" smooth="yes"/>
			<point x="363" y="630"/>
			<point x="210" y="547"/>
			<point x="210" y="349" type="curve" smooth="yes"/>
			<point x="210" y="343" type="line" smooth="yes"/>
			<point x="210" y="135"/>
			<point x="400" y="34"/>
		</contour>
	</outline>
</glyph>
<glyph name="Five.bn" format="2">
	<advance width="1692"/>
	<unicode hex="09EB"/>
	<outline>
		<contour>
			<point x="944" y="20" type="curve" smooth="yes"/>
			<point x="1242" y="20"/>
			<point x="1448" y="122"/>
			<point x="1529" y="187" type="curve"/>
			<point x="1384" y="280"/>
			<point x="1318" y="418"/>
			<point x="1318" y="603" type="curve" smooth="yes"/>
			<point x="1318" y="606" type="line" smooth="yes"/>
			<point x="1318" y="770"/>
			<point x="1384" y="907"/>
			<point x="1468" y="1018" type="curve"/>
			<point x="1456" y="1044" type="line"/>
			<point x="1386" y="1001"/>
			<point x="1239" y="948"/>
			<point x="1061" y="948" type="curve" smooth="yes"/>
			<point x="728" y="948"/>
			<point x="609" y="1110"/>
			<point x="556" y="1216" type="curve" smooth="yes"/>
			<point x="555" y="1218" type="line"/>
			<point x="516" y="1218" type="line"/>
			<point x="290" y="1076"/>
			<point x="181" y="885"/>
			<point x="181" y="640" type="curve" smooth="yes"/>
			<point x="181" y="633" type="line" smooth="yes"/>
			<point x="181" y="205"/>
			<point x="514" y="20"/>
		</contour>
		<contour>
			<point x="1062" y="915" type="curve" smooth="yes"/>
			<point x="1219" y="915"/>
			<point x="1383" y="960"/>
			<point x="1431" y="1000" type="curve"/>
			<point x="1431" y="1015" type="line"/>
			<point x="1347" y="905"/>
			<point x="1282" y="771"/>
			<point x="1282" y="606" type="curve" smooth="yes"/>
			<point x="1282" y="603" type="line" smooth="yes"/>
			<point x="1282" y="392"/>
			<point x="1361" y="257"/>
			<point x="1489" y="174" type="curve"/>
			<point x="1486" y="197" type="line"/>
			<point x="1425" y="152"/>
			<point x="1219" y="54"/>
			<point x="944" y="54" type="curve" smooth="yes"/>
			<point x="537" y="54"/>
			<point x="218" y="227"/>
			<point x="218" y="633" type="curve" smooth="yes"/>
			<point x="218" y="640" type="line" smooth="yes"/>
			<point x="218" y="883"/>
			<point x="333" y="1063"/>
			<point x="541" y="1195" type="curve"/>
			<point x="525" y="1203" type="line"/>
			<point x="590" y="1088"/>
			<point x="705" y="915"/>
		</contour>
	</outline>
</glyph>
<glyph name="Six.bn" format="2">
  <advance width="1948"/>
  <unicode hex="09EC"/>
  <outline>
    <contour>
      <point x="995" y="20" type="curve" smooth="yes"/>
      <point x="1481" y="20"/>
      <point x="1735" y="208"/>
      <point x="1735" y="564" type="curve" smooth="yes"/>
      <point x="1735" y="682"/>
      <point x="1721" y="779"/>
      <point x="1688" y="866" type="curve"/>
      <point x="1650" y="870" type="line"/>
      <point x="1526" y="781" type="line" smooth="yes"/>
      <point x="1402" y="692"/>
      <point x="1280" y="643"/>
      <point x="1144" y="643" type="curve" smooth="yes"/>
      <point x="973" y="643"/>
      <point x="889" y="722"/>
      <point x="889" y="883" type="curve" smooth="yes"/>
      <point x="889" y="927" type="line"/>
      <point x="853" y="927" type="line"/>
      <point x="853" y="883" type="line" smooth="yes"/>
      <point x="853" y="700"/>
      <point x="949" y="610"/>
      <point x="1144" y="610" type="curve" smooth="yes"/>
      <point x="1300" y="610"/>
      <point x="1414" y="658"/>
      <point x="1548" y="754" type="curve" smooth="yes"/>
      <point x="1666" y="839" type="line"/>
      <point x="1656" y="846" type="line"/>
      <point x="1685" y="772"/>
      <point x="1698" y="661"/>
      <point x="1698" y="564" type="curve" smooth="yes"/>
      <point x="1698" y="232"/>
      <point x="1456" y="55"/>
      <point x="995" y="55" type="curve" smooth="yes"/>
      <point x="540" y="55"/>
      <point x="281" y="274"/>
      <point x="234" y="690" type="curve" smooth="yes"/>
      <point x="201" y="982" type="line"/>
      <point x="165" y="982" type="line"/>
      <point x="198" y="686" type="line" smooth="yes"/>
      <point x="247" y="250"/>
      <point x="518" y="20"/>
    </contour>
    <contour>
      <point x="853" y="885" type="line"/>
      <point x="889" y="885" type="line"/>
      <point x="889" y="950" type="line" smooth="yes"/>
      <point x="889" y="1112"/>
      <point x="800" y="1212"/>
      <point x="641" y="1212" type="curve" smooth="yes"/>
      <point x="601" y="1212" type="line"/>
      <point x="607" y="1182" type="line"/>
      <point x="641" y="1182" type="line" smooth="yes"/>
      <point x="776" y="1182"/>
      <point x="853" y="1100"/>
      <point x="853" y="950" type="curve" smooth="yes"/>
    </contour>
  </outline>
</glyph>
<glyph name="Seven.bn" format="2">
  <advance width="1623"/>
  <unicode hex="09ED"/>
  <outline>
    <contour>
      <point x="783" y="1208" type="curve" smooth="yes"/>
      <point x="594" y="1208"/>
      <point x="409" y="1155"/>
      <point x="289" y="1051" type="curve" smooth="yes"/>
      <point x="207" y="980"/>
      <point x="155" y="884"/>
      <point x="155" y="764" type="curve" smooth="yes"/>
      <point x="155" y="567"/>
      <point x="306" y="450"/>
      <point x="607" y="450" type="curve" smooth="yes"/>
      <point x="1300" y="450" type="line"/>
      <point x="1300" y="484" type="line"/>
      <point x="607" y="484" type="line" smooth="yes"/>
      <point x="363" y="484"/>
      <point x="191" y="571"/>
      <point x="191" y="764" type="curve" smooth="yes"/>
      <point x="191" y="874"/>
      <point x="243" y="964"/>
      <point x="326" y="1032" type="curve" smooth="yes"/>
      <point x="439" y="1124"/>
      <point x="610" y="1174"/>
      <point x="783" y="1174" type="curve" smooth="yes"/>
      <point x="1111" y="1174"/>
      <point x="1279" y="1042"/>
      <point x="1279" y="778" type="curve" smooth="yes"/>
      <point x="1279" y="309" type="line"/>
      <point x="1315" y="309" type="line"/>
      <point x="1315" y="769" type="line" smooth="yes"/>
      <point x="1315" y="1062"/>
      <point x="1134" y="1208"/>
    </contour>
    <contour>
      <point x="1315" y="346" type="line"/>
      <point x="1279" y="346" type="line"/>
      <point x="1279" y="281" type="line" smooth="yes"/>
      <point x="1279" y="119"/>
      <point x="1368" y="19"/>
      <point x="1527" y="19" type="curve" smooth="yes"/>
      <point x="1567" y="19" type="line"/>
      <point x="1561" y="49" type="line"/>
      <point x="1527" y="49" type="line" smooth="yes"/>
      <point x="1392" y="49"/>
      <point x="1315" y="131"/>
      <point x="1315" y="281" type="curve" smooth="yes"/>
    </contour>
  </outline>
</glyph>
<glyph name="Eight.bn" format="2">
  <advance width="1898"/>
  <unicode hex="09EE"/>
  <outline>
    <contour>
      <point x="833" y="20" type="curve" smooth="yes"/>
      <point x="1005" y="20"/>
      <point x="1178" y="65"/>
      <point x="1303" y="150" type="curve" smooth="yes"/>
      <point x="1415" y="226"/>
      <point x="1489" y="333"/>
      <point x="1489" y="467" type="curve" smooth="yes"/>
      <point x="1489" y="592"/>
      <point x="1418" y="679"/>
      <point x="1280" y="722" type="curve"/>
      <point x="1256" y="729" type="line"/>
      <point x="1202" y="747"/>
      <point x="1138" y="755"/>
      <point x="1071" y="755" type="curve" smooth="yes"/>
      <point x="302" y="755" type="line"/>
      <point x="302" y="722" type="line"/>
      <point x="1071" y="722" type="line" smooth="yes"/>
      <point x="1313" y="722"/>
      <point x="1452" y="646"/>
      <point x="1452" y="469" type="curve" smooth="yes"/>
      <point x="1452" y="344"/>
      <point x="1384" y="244"/>
      <point x="1279" y="174" type="curve" smooth="yes"/>
      <point x="1161" y="96"/>
      <point x="999" y="55"/>
      <point x="833" y="55" type="curve" smooth="yes"/>
      <point x="485" y="55"/>
      <point x="324" y="191"/>
      <point x="324" y="462" type="curve" smooth="yes"/>
      <point x="324" y="899" type="line"/>
      <point x="288" y="899" type="line"/>
      <point x="288" y="466" type="line" smooth="yes"/>
      <point x="288" y="169"/>
      <point x="463" y="20"/>
    </contour>
    <contour>
      <point x="1223" y="725" type="line"/>
      <point x="1799" y="721" type="line"/>
      <point x="1799" y="755" type="line"/>
      <point x="1071" y="755" type="line"/>
    </contour>
    <contour>
      <point x="288" y="881" type="line"/>
      <point x="324" y="881" type="line"/>
      <point x="324" y="946" type="line" smooth="yes"/>
      <point x="324" y="1108"/>
      <point x="235" y="1208"/>
      <point x="76" y="1208" type="curve" smooth="yes"/>
      <point x="36" y="1208" type="line"/>
      <point x="42" y="1178" type="line"/>
      <point x="76" y="1178" type="line" smooth="yes"/>
      <point x="211" y="1178"/>
      <point x="288" y="1096"/>
      <point x="288" y="946" type="curve" smooth="yes"/>
    </contour>
  </outline>
</glyph>
